<svg id="Layer_1" data-name="Layer 1" xmlns="http://www.w3.org/2000/svg" viewBox="0 0 24 24"><title>Artboard 1</title><path d="M19.56,8.13c0,.16,0,.33,0,.5A11,11,0,0,1,8.48,19.72,11,11,0,0,1,2.5,18c.31,0,.62.05.93.05a7.78,7.78,0,0,0,4.84-1.67,3.91,3.91,0,0,1-3.64-2.7,4.4,4.4,0,0,0,.73.07,3.88,3.88,0,0,0,1-.14A3.9,3.9,0,0,1,3.26,9.76v0A3.94,3.94,0,0,0,5,10.2,3.9,3.9,0,0,1,3.3,7a4,4,0,0,1,.52-2,11.06,11.06,0,0,0,8,4.07,3.65,3.65,0,0,1-.1-.88A3.9,3.9,0,0,1,18.5,5.51a7.69,7.69,0,0,0,2.48-1,3.94,3.94,0,0,1-1.72,2.16,7.66,7.66,0,0,0,2.24-.61A7.93,7.93,0,0,1,19.56,8.13Z"/></svg>