<svg id="Layer_1" data-name="Layer 1" xmlns="http://www.w3.org/2000/svg" viewBox="0 0 200 200"><defs><style>.cls-1{fill:#47caf5;}.cls-2{fill:none;}</style></defs><title>_listen</title><path class="cls-1" d="M162.07,73.59a48.74,48.74,0,0,0-.15-8.07c-.12-.29-.38-.39-.44-.59-.25-1,0-1.73-.29-2.79-.23-.74-.7-.88-.73-1.91-.26.09-.15,0-.3.15-.65-1-.45-2.51-1.47-3.82-.25-.15,0,0-.29,0,.22-.4-.16-.24.29-.44-.19-.41-.38-.17-.58-.44a15.46,15.46,0,0,1-.74-2.35c-.62-1.48-1.55-1.84-1.61-3.38l-.15.15c-.72-.45-2.09-4.12-1.91-4.7-1.86-1.73-2.77-5.6-4.7-6.76.06-.3,0-.28.15-.44-.22-.43-.62-.26-.88-.58-.65-.8-.45-1.45-1.18-2.21-.48-.49-1.27-.68-1.76-1.17-.2-.2-.22-.55-.44-.74h-.29l-.15-.73c-.29-.34-1-.39-1.32-.73v-.59c-.47-.53-1.39-.69-1.91-1.18-.22-.2-.23-.66-.44-.88h-.15c-.4,0-3.54-2.33-4.26-2.79-.42-.27-.65-.85-1-1.17a10.24,10.24,0,0,0-1-.59l-.44.15c-.93-.42-.61-1.12-2.06-1.18l.15-.44-.44.3c-.84-1-3.22-1.4-4.11-1.91h-.15l.15-.3c-.25,0-.58.05-.88-.14-.49-.21-.3-.05-.3-.44-1.54,0-2.07-.56-3.08-.88h-1.47c-.59-.2-1.5-.8-2.06-1-.07,0-1.45-.09-1.61-.15-.94-.36-2.43-.94-3.09-1.17h-1c-1-.28-2.69-.53-3.67-.89H108l-1.91-.44-1.46.15c-1-.15-4-1-5-.73a7.17,7.17,0,0,1-2.49.44c-3.19-.52-8.87.54-11.46,1.76-.57.27-1.88.24-2.79.59-.5.19-1.06.71-1.61.88H80.13l-.44.73-1,.15c-.88.4-1.6,1-2.64,1.47-.38.17-.72.06-1,.29a56.92,56.92,0,0,1-5.87,3.67c-.57.34-.8,1.25-1.32,1.62-.37.26-.79.19-1.18.44s-.33.62-.58.88-.87.31-1.18.59a23.54,23.54,0,0,0-1.47,1.91,25,25,0,0,0-2.93,3.23c-.31.47-.2,1-.44,1.61-1,2.38-1.9,4.87-2.79,7.49-.4,1.16-.09,2.37-.45,3.08v1.62a1.79,1.79,0,0,0,.74-.29c.55-.52.39-1.92.59-2.35a16.75,16.75,0,0,1,4.11-4.41c.06,0,.46.28.73.15,1-.51.43-1.24,1.47-1.47v-.44c.3-.06.28,0,.44-.15,1.56-.2,1.64-2,3.08-2.35-.09-.25,0-.14-.14-.29,1.44-1.32,3.06-2.1,4.55-3.53.11-.15.09-.13.15-.44,1.59-.27,2.73-2.21,3.67-2.2V30c.3.06.28,0,.44.15.11-.16.09-.14.15-.44.51-.12.36-.19.88-.3l-.15-.14c.51-1,1-.26,1.76-.74l.15-.44c.46-.31.92-.16,1.47-.44,1.17-.6,3.06-2,4.11-2.2.62-.12,1.48-.71,2-.44.37-.22.18,0,.3-.44a3.11,3.11,0,0,0,1,.14,1.75,1.75,0,0,0,.14-.58,4.73,4.73,0,0,1,1.18.44c.11-.16.09-.14.14-.44a21.81,21.81,0,0,0,3.68-.74c1.18-.29,2.5.22,3.67,0,.43-.08,3.08-.44,3.08-.44.2,0,.73.54.88.59l2.94-.29c.92.3,2.23.38,3.08.58,1.14.28,2.68,0,3.38.15,1.25.36,1.74.54,3.08.88l.88-.15.3.59c.55-.41,3.59.6,4,.88,0,0,.58,0,.3-.14l-.15-.15a2,2,0,0,0,1.32.44c.12.5.07.37.44.59s2,.16,2.64.44c1.11.44,3.87,2.05,5.44,1.91.09.37,0,.08,0,.44,1,0,5.32,2.7,5.72,3.81.31,0,.29,0,.45-.14.38.25.2,0,.14.44,1.56.71,2,2.12,3.53,2.94v.58h.58c.51.54,1.36,1,1.62,1.76l-.15.59c.16.38.57.63.59.88s0,.15-.15.3a19,19,0,0,0-4.55-4v-.44c-1.08-.13-1.49-.71-2.2-1.17-.65.28-3.22-1.38-3.82-1.77s-1.1-.16-1.62-.44c-.18-.09-.5-.52-.73-.58l-.59.14c-1.22-.68-3-1.42-4.26-2-.93-.46-1.45-.19-2.2-.88-.22.24-1.37-.12-1.47-.15h-.14c-.67-.31-1.49-1-2.21-1.32s-1.22,0-1.76-.15-1.58-.7-2-.44c-.37-.22-.18,0-.3-.44-1.43.54-4.81-.34-6.61-.29a16.64,16.64,0,0,0-4.69.88c-.47.15-.81-.24-1.18-.15a28.94,28.94,0,0,0-5.29,1.76c-.94.48-2.74.26-3.81.59-1.25.39-2.09.93-3.23,1.32-.74.26-1.24,0-1.91.3-1.57.63-5.07,3.52-6.32,3.52.1.25,0,.14.15.29a49.31,49.31,0,0,0-6.9,7.35c-.25.33-.09.78-.3,1.17s-.82.87-1,1.32c-1.64,3.67-2.46,11.06-1.62,15.27L70.59,67c0,.34-.17,1.05-.15,1.17.37,2,1,4.3,1.32,6,.35,2.14.29,4,.88,5.43l.15,1.62c.23.8,1,1.85,1,2.79a5.75,5.75,0,0,0-.15,1.61c0,.11.3,1.08.3,1.18a11.61,11.61,0,0,0,.29,4c.27.67.93.77,1.47,1.18-.85.51,2.29,1.78,2.64,2a3.89,3.89,0,0,0,1.18-.14c-.1-.94-.5-.79-.45-1.47h-.58c-.13-.61-.43-.48-.59-.88V90l-.29-.29c-.2-.72.34-1.47.44-1.91l-.15-1.32c.22-.94.39-1.52.59-2.21.42-1.47-.1-2.92.44-4.26.18-.44.74-.87.88-1.46.39-1.61.56-4.25,1.61-5.44.18-.33.37-.31.59-.58,1.54.05,2.15,1,3.23,1.46h.59c.28.15.62.72.88.88.44.28,1.37.28,1.76.59.21.17.73,1.33.88,1,.33.08.76,1.15.74,1.17A39.86,39.86,0,0,1,89.38,89c-.45,1.63-1.54,6.34-1.32,7.34.32,1.47-.61,6.26-1.17,7.35-.35.66-.8,2.17-1,2a31,31,0,0,0-.88,3.53c-.06.49.79,1.09.29,2-.65,1.26-5.52,3.9-6.75,4.55a2.18,2.18,0,0,0-1,1.33l.15.44c-.06.08-.92.14-.44.29A12.18,12.18,0,0,1,75,120.73c-.14.12-.48.15-.58.29a38.56,38.56,0,0,0-2.06,4.26,6.5,6.5,0,0,0,.29,2.06,10.25,10.25,0,0,0,1.77,1c1.18.8,2.75-.79,3.67-.59,3.27.7,4.63-1.28,6.16-2.79.32-.31,1.15-.62,1.33-1s-.16-1.23.14-1.62l.44-.14.15-.74L87,121l-.14-.44c.12-.16.62-.27.73-.44.51-.73.48-1.56,1-2.2.38-.45.62-.24,1-.73h.44c.4-1.87,4.33-3.7,5.43-5.29a32.24,32.24,0,0,1,3.09-3.67c.29-.32.93-.55,1.17-.88a19.38,19.38,0,0,1,1.17-2.06c.38-.39,1-.72,1.33-1.17l.44-1.18c.18-.26.7-.34.88-.59.39-.56.36-1.31.73-1.9a26.25,26.25,0,0,0,2.06-2.94c.3-.71.11-1.28.44-2.06.19-.45.81-.66,1-1a8.94,8.94,0,0,0,.88-5.28s0-4.79,0-4.85a2,2,0,0,0,.14-1c-.1-.3-.59-.61-.73-.88a8.56,8.56,0,0,0-1-2.05c-.37-.39-1-.6-1.32-1-.14-.19,0-.43-.15-.59l-.29.15c-.17-.09-.16-.49-.29-.59h-.59c-.13-.1-.14-.48-.29-.59-.49-.32-1.15-.24-1.62-.58s-.95-1.12-1.47-1.47h-.44c-1.14-.73-1.77-2.06-2.64-3.08-.17-.2-.55-.12-.74-.3-.58-.54-.38-.88-.88-1.47s-2.15-1.28-2.93-1.91l-.15-.44-.74-.14c-.14-.13-.12-.48-.29-.59l-2-.59-.74-.73h-.59L88.8,66l-1.62-.15c-.2-.08-.65-.63-.88-.73-.67-.29-1.18-.1-1.76-.44-1.17-.7-1.83-3.66-1.76-5.29h.44c.4-.84.77-2.7,1.17-3.23.11-.14.48-.28.59-.44v-.44c.76-.93,1.8-1,2-2.5h.45v-.59c1.17-.29,2.25-1.12,3.52-1.46.7-.19,1.36.44,2.06,0,.22-.15,1.32-1.34,1.46-1,1.64,0,3.83-.91,4.7-.3,2.89.81,5.78,3.19,8.23,4.26,1.84.81,4.41,1,5.58,0,.68-.33-.09-2-.59-3.38-.69-1.82-2.91-5.22-5-6,.19-1.69,3.86-4.14,5.28-5h.59l.15-.59c.61-.52,1.93-.13,2-.73,1.53,0,6.39-.44,7,0l.15.44a17.23,17.23,0,0,0,1.91.59c.45.2,1.14.68,1.61.88.79.33,1.72.23,2.35.73.26.21.79,1.15,1,1.32s.52-.21.59-.14.12.56.29.73a.86.86,0,0,1,.88,0c.24.19.32.7.59.88,1,.69,1.43,1.25,2.49,1.91v.59a1.3,1.3,0,0,1,.74.15c.86.33,1.71,2.09,1.76,3.23h.44c.14.87.67,1,.88,1.32v.73c.1.18.63.28.74.44a9,9,0,0,1,.44,2.79c.28.42.56.45.44,1.18.18.25.77.74.88,1,.77,2.06,0,7.53-.44,9.1l.15,2.35c-.14.42-.62,1.21-.74,1.62l.15,1h-.3c-.5,1-.37,3.12-1,4,0,.92.17,1.15-.44,1.17.23,1.58-1.65,4.68-2.06,5.88-.31.89-.27,1.66-1.17,1.91.15.11,0,0,.29.14-2.78,6.48-6.46,13.14-10.72,17.77-1.44,1.56-3.45,4.08-5.58,4.85l-.44,1.32c-.18.82.25,1.15.15,1.76.39.14.38.15.58.44,2.9-.17,3-1,4.7-2.2a.65.65,0,0,0,.74,0c.42-.28.68-.94,1-1.18l.89-.14c-.37-.26,1.67-1.59,1.9-1.91.35-.49.33-.93.74-1.32.16-.12.13-.1.44-.15v-.44c1-.46,5.26-4.73,5.43-5.88.26.1.15,0,.3.15.65-.92,1.11-2.64,2.2-3.08v-.44H138c.2-1.38,2.44-2.22,2.79-4l.15.15a23.24,23.24,0,0,0,2.93-4c.45-.89.22-1.55.74-2.35,2.35-3.58,4.06-10.07,4.4-13.8a33.32,33.32,0,0,1,.74-4.26,3.72,3.72,0,0,0-.15-1.17c0-.29.25-1.34.29-1.62.08-.55-.26-1.84-.14-2.49a6.66,6.66,0,0,0,.29-2.35c1.59.79,2.33,2.53,2.94,4.26l.14,1.61a14.73,14.73,0,0,1,.3,8.08,26.56,26.56,0,0,0-.3,3.08l.15.74-.44.29c.38.8-1,4.26-1,5.43h-.44c0,3.89-2.63,6.17-3.52,10.13h-.3c-.28.12.3.15.3.15-.17,1.07-.56,1.21-1.18,1.76.23.17-.54,2.22-.73,2.65a24.79,24.79,0,0,1-2.06,3.37c-.44.69-.43,1.53-.88,2.21l-.59.29c-.31.53-.19,1.18-.58,1.62s-.9.68-1.18,1l-.14.59c-.21.2-.73.2-.89.44-.43.7-.48,1.35-1,1.91s-1.43.84-1.62,1.76c-.25-.09-.14,0-.29-.14a6.75,6.75,0,0,0-.74.88l.15.44c-.53.5-1.37.68-1.76,1.32a9.06,9.06,0,0,1-1.47,1.91,25.82,25.82,0,0,1-2.35,1.47,16.37,16.37,0,0,0-2.2,2.35,14,14,0,0,0-2.65,1.61c-.36.28-1.09,1.59-1.32,1.76h-.58l-.59.74h-.44c-.25.19-.33.69-.59.88s-.51.11-.73.29v.3c-.34.23-.68.08-1,.29l-.88,1c-.36.25-.79.17-1.18.44-.15.1,0,.49-.14.58s-.46-.31-.74,0c-1.15,1.34-5.14,4.67-7.05,5l.15.44c-.84-.1-.46.43-1,.88s-1.26.38-1.61,1.17h-.3l.3.3c-.26-.1-.15,0-.3-.15-.31.18-.18.51-.58.88s-1,.4-1.47.74-.46.78-1,1V136c-1,.19-1.63,1.39-2.2,2.06v.14c-.29.07-.19-.06-.3-.14-.46.24-.39.69-.73,1a1.83,1.83,0,0,1-1,.45c-.36.43-.44,1.06-1,1.61v.15l-.29-.15c-.84,1.93-2.32,2.64-3.23,4.26-.92,0-1,0-1.76,0V145c-.31-.06-.29,0-.44-.15h-.3l.15.44a14.51,14.51,0,0,0-1.76-.44c-.52.14-.27-.09-.3.44-.39.11-2.37,1-2.35.59-.51.63,0,.74-.88.73l.15.44-.15-.14c-.71.22-.64,1-1,1.32h-.58c-.19.14-2.72,3.08-2.79,3.23l.14.59h-.44c-.2.16-.26.52-.44.73l-.29-.15c-.27.32-.08.61-.29,1a6.56,6.56,0,0,0-1,.88v.59c-.43.62-1.31,1-1.18,1.76-.44.5-.77.23-.88,1.18l-.15-.15a5.21,5.21,0,0,0-1.9,3.23c-.54.08-.85.3-1,.29a2.56,2.56,0,0,0-.88,1.47c-.8.19-2.85,2.5-3.38,3.23-.34.47-1.14.71-1.47,1.18v.44c-.23.26-.79.32-1,.59-1.51,1.69-3.43,5.1-5.72,5.58v.44c-.73.07-3.1,1.44-3.23,2-.26-.09-.15,0-.3-.14-.53.13-.45.09-.59.58a9.93,9.93,0,0,0-2,.44c-.54.15-1.63,0-2.5.15a6.69,6.69,0,0,1-1.91.29c-1.58-.31-3.15-1.73-4.25-1.76-.46-1-1-1-1.47-1.91s-1-2.13-1.32-2.64c-.07-.11-.7-.52-.74-.59l-.15-.88c-.12-.14-.48-.11-.58-.29l-.15-1c-.56-1.33-1.63-3.24-2.94-4a7.51,7.51,0,0,0-2.2-.15A4.75,4.75,0,0,1,38,165.66c-.66,3,.56,6.5,1.61,8.52.25.46.91.77,1.18,1.18A22.9,22.9,0,0,0,45,180.64c.73.59,2.12,1,2.93,1.62.63.44,1,1.07,1.77,1.47.11.05.29-.26.58-.15a12.36,12.36,0,0,0,6.91.44c.82-.18,1,.38,1.61.29a21.05,21.05,0,0,0,5-1.17c.11-.07.3-.53.44-.59l.59.15v-.15a8.67,8.67,0,0,0,1.18-.44,8.77,8.77,0,0,1,2.49-1.47v-.44c1.17-.14,1.38-1.19,2.2-1.61.5-.26,1,0,1.47-.3.21-.13,0-.38.15-.59s.69-.48.88-.73c.44-.57.63-1.47,1.18-1.91l.73-.15a14.65,14.65,0,0,0,2.35-3.37h.44a7.65,7.65,0,0,1,2.5-2.65c.28-.18,1-.19,1.17-.44l-.15-.44c.16-.2.4-.68.59-.88s.78-.32,1-.59l.15-.58a8.28,8.28,0,0,1,1.61-1.32c-.27-.17.65-1.69.88-2.06.6-1,1.8-1.41,2.21-2.64,1.49-.12,3,.48,5.14.58l.58.15c.17-.06.18-.5.3-.59l.44.15v-.29c.5-.35,1-.38,1.47-.74l.58-.88c.28-.21.66-.19.88-.44,1-1.14,1.24-2.22,2.06-3.38.38-.53,1.23-.81,1.61-1.32v-.59c.18-.3,1.25-1.14,1.62-1.61.22-.28.64-.34.88-.59.4-.41.39-1,.74-1.47s1-.84,1.32-.73l-.15-.44c.39-.52,1-.86,1.17-1.62h.74c.18-.08,3.12-3.43,3.23-3.67h.29l-.44.44v.15l.44.15A3.29,3.29,0,0,0,111,142a4,4,0,0,1,1-.44c.17-1,4.07-3.58,5-4.11-.18-.14.63-1.09.88-1.32,1.28-1.18,3.13-1.74,4.41-2.94.34-.32.53-.87.88-1.17s.87-.18,1.32-.44c.22-.13.26-.6.44-.74l.88-.15c.19-.08.52-.54.59-.58.41-.26.73-.07,1.17-.3-.11-.07,1.34-1.94,1.91-1.91.92.07,1.7-1.49,2.5-2s1.37-.57,2.05-1,1.25-1.81,2.06-2.35l1.17-.44c.38-.29.49-1.07.89-1.32s1-.1,1-.15c.68-.46,1.09-1.71,1.62-2.35.38-.45,1.35-.45,1.76-.88s.56-1.28.74-1.47c.61-.63,1.4-1.16,2.05-1.76l-.15-.44c.21-.35.91-.57,1.18-.88a24.18,24.18,0,0,0,1.32-2.35c.16-.24.68-.37.88-.59.51-.55.84-1.17,1.32-1.76l.59-.29c.34-.54.25-1.09.59-1.62.11-.18.64-.16.73-.29s-.18-.85,0-1.32c.25-.66,1.05-1.33,1.32-1.91.15-.31-.2-.45-.14-.59l.44-.44v-.59c.51-1.19,1.58-2.6,2.2-4,.23-.5.06-1.15.15-1.32.26-.56.79-1.36,1-1.91s0-1,.15-1.32a54.64,54.64,0,0,1,2.64-5.73,8,8,0,0,0,.3-1.91c0-.05.4-.18.44-.29.2-.65-.23-1,0-1.77C161.24,79.79,161.34,76.7,162.07,73.59ZM47.24,133.8l.44,1.32a12.36,12.36,0,0,0,3.08,2.64v.44c.81.16.78.61,1.33.88a11.77,11.77,0,0,0,1.61.45c4,1.3,8.53-.57,11.16-2.5.53-.69,0-1.75,0-2.35-.7-.57-.91-1.29-2-1.47.07-.27-.23-.88,0-1.32l.58-.88h.3c.27-.45-.14-.69,0-1,.27-.7.64-.84.73-1.91h.44c.17-1.39.48-1,.88-1.76.58-1-.44-2.23-.14-3.23a5.56,5.56,0,0,1,.73-1.18h.29c.93-1.26.47-2,1.62-2.93.74.59,3.23,1.63,4.4.73,1.19-.12,1-1,1.77-1.61-.41-2.07-1.54-2.47-2.5-3.82.3-.64-.8-1-.73-1.76.14-1.82-2.5-3.21-3.38-4.85v-.73c0-.12-.41-.24-.44-.3-.3-.49.1-.86,0-1.17a7.55,7.55,0,0,0-.74-1.18h-.14c-.29-.08.29-.14.29-.14-.6-1.84-2.64-4.59-2.79-5.88-1.06-.2-.95-.86-1.62-1.32a13.5,13.5,0,0,0-2.64-1c-.09-.45,0-.35-.29-.58-.89-.51-2-.07-3.23.44-.38,2.07,1.07,3.74,1.76,5.58v.73c.25.55.92,1.19,1.17,1.76a8.09,8.09,0,0,1,.3,2.21c.15.85.94,1.88.88,2.79a11.9,11.9,0,0,1,.29,5.72,25.56,25.56,0,0,1-3.67,6c-.42.54-1.62.49-2.2.88-.34.23-1.13,1.35-1.47,1.62s-.75.08-1.17.29a21.48,21.48,0,0,0-3.23,2.5h-.74a5.37,5.37,0,0,1-1.32,2.64l-.59.15c-.3.37-.17.91-.59,1.32.1.89.12,2.59.59,3.23C46.41,133.48,47,133.51,47.24,133.8Zm76.65-13.51c.15.12,0,0,.3.15v-.15Zm26.58-36.12h.15c-.1-.26,0-.15-.15-.3Zm-22-54.34h.15c-.09-.25,0-.14-.15-.29ZM133.58,45c.15.12,0,0,.3.15V45Z"/><rect class="cls-2" width="200" height="200"/></svg>