<svg id="Layer_1" data-name="Layer 1" xmlns="http://www.w3.org/2000/svg" viewBox="0 0 200 200"><defs><style>.cls-1{fill:#47caf5;fill-rule:evenodd;}.cls-2{fill:none;}</style></defs><title>_look</title><path class="cls-1" d="M181.4,81.53c-.29-.68-1.05-.57-1.41-1.1-.54-.8-.09-1.15-1.26-1.88.23-.81,0-1,.32-1.88,1.23-2.88,2.21-4.86.47-7.84-1.58-.53-.57-.86-1.41-1.41a20.42,20.42,0,0,0-4.55-1.88,9.16,9.16,0,0,1-1.72.31c-.42.25-.26.61-.94.79-.11.89-.38,1.57.47,1.88-.33.59,0,2.52-.79,3.45-.19.35-.27.31-.62.47a1.87,1.87,0,0,0-1.57-.79V71c-1.53-.3-2.73-2-3.92-2.82a66,66,0,0,0-10.66-5.48c-1.59-.67-3.86-.86-5.17-1.26-1.78-.54-4.2-1.29-6.43-1.88h-1.56c-.71-.17-1.68-.46-2.36-.62l-1.09.15a31.12,31.12,0,0,0-3.92-.94c-.76-.09-2.33.32-3.45,0-.32-.09-1.16-.38-1.57-.47l-.94.16c-1.94-.3-4.15-.3-5.8-.63l-1.56.16c-1.54-.35-3.87-.09-5.49-.47h-2.82a16.69,16.69,0,0,0-2.35,0,34.11,34.11,0,0,0-10.19,0c-1,.2-2.79-.58-3.61-.47A33.37,33.37,0,0,0,91,57.7l-2.35.16c-.53.14-1.36.48-1.88.63-.94.25-4,.08-4.39.31-1.48.06-1.58,1.13-2.51,1.57h-1.1a20.45,20.45,0,0,0-2.5,1.09c-.07,0-.49-.27-.79-.15a104.31,104.31,0,0,0-10,4.23h-1.1c-.87.31-1.33.79-2.35,1.25-.63.29-1.12,0-1.72.32C49.53,72.8,38.18,76.65,30.77,85.29c-.22.26-.66.26-.94.47-.58.44-.83,1.48-1.41,1.88-.22.15-.46,0-.63.16a18.66,18.66,0,0,0-.94,1.72c-.61.84-1.63,1.61-2.19,2.51l-.47,1.41c-.51.84-1.31,1.41-1.57,2.51-1.23.26-2.44.56-3.61.78a8,8,0,0,0,.32,3.76l.63.63c.28.94-.72,1-.16,1.88-.18.35-.23.24-.47.47-.59.86-.07,1.77-.47,3,0,.11-.21,1.2-.32,1.41s-.55.2-.62.31c-.44.71.68,3.33,1.25,3.61a3.45,3.45,0,0,0,3.92.78l.78.31c.18-.11.26-.65.47-.78.62-.37,1.44-.49,2-.78.15-.48.05-1.32.16-1.57s.48-.41.63-.78c1.76.26,2.26,1.82,3.29,2.82a13.17,13.17,0,0,0,2,1.41H33c.22.17.26.77.48.94h.62l.79.94c.37.25.82.06,1.25.31,0,0,.61.78.63.79.43.23,2,.4,2.35.62s.33.78.62.94c.11.06.62-.22.95,0,5.47,3.7,12.34,6,18.33,8.47l.47-.16c.57.17,1.29.63,1.73.78h1.25c3.82,1.23,10.23,2.72,13.95,2,.25,0,2.23.57,3.14.32l.47-.32,2.82.32c.77-.17,1.5-.44,2.35-.63l.94.16c.32-.07.72-.54.94-.63l3.29-.16.32-.47c.68-.27,1.8,0,3-.31,1.44-.37,3.31-.68,4.55-1.1s2.6-.21,3.45-.94h1.09c-.35,1.15-1.25.72-2.19,1.25-2.1,1.21-5,2.27-7.68,3.45a17.5,17.5,0,0,0-2.19,1.57c-.42.27-.68-.17-1,0l-.15.47c-.31.2-1.69.64-2,.78-1.24.53-2.88.36-3.92.63-3,.78-6.53,1-9.4,1.72-.43.11-1.36-.32-2-.15-5.23,1.32-10.25,1.47-15.52,2.82H55.07c-2.41.59-5.77.37-8.16,1.1-1.92.58-3.51-.33-4.85.47h-.32c.06.85.2.94,1.1.94a4.88,4.88,0,0,0,.31.78c.47.78,4.73,1.61,6.27,1.57V143c2,0,3.18.26,5.17.47.52.05.88-.31,1.57-.31,1,0,2.06.71,3.29.31,1.52-.5,3.27-.25,5.49-.78.64-.16,1.5.25,1.88.15.74-.19,2.37-.62,3.14-.78.61-.13,1.68.46,2.5.15a13.78,13.78,0,0,1,2.35-.78c.48,0,.44.37.79.47,1-1,3.12-.09,5.17-.63.69-.18,2.11-.64,2.67-.78l1.09.31.32-.47c1.25-.51,2.59.25,3.76-.31a11.71,11.71,0,0,1,1.09-.63c.88-.26,1.51,0,2.36-.31.61-.24,1.43-.85,2-1.1l1.26-.15c.36-.19.88-1,1.09-1.1a30.47,30.47,0,0,1,3-.94l.79-.79h.62c.69-.33,1.57-1.09,2.2-1.41l.47.16c.84-.33,1.85-1.05,2.66-1.41H107V132c.47-.28,1.44-.2,1.88-.47l.15-.47,1.41-.32c.35-.15.67-.63.94-.78.59-.31,1.18-.1,1.73-.47.18-.13.67-.77.94-.94.6-.37,1.32-.38,1.88-.79.23-.16.36-.63.63-.78a19.63,19.63,0,0,1,2-1.1h.79l.16-.62c.67-.58,1.6-.3,2.19-.63l.63-.78h.78c.23-.13.69-.68.94-.79.66-.29,1.39-.16,2-.47a9.75,9.75,0,0,0,1.25-.78l.16-.47h.63a23.64,23.64,0,0,0,3.13-1.73l.78-.15c.17-.14.15-.64.32-.79.56-.48,2.22-.43,2.19-1.09,1-.72,3.41-1.2,3.45-2.35,1.21.17.45-.11.94-.79a3.39,3.39,0,0,0,1.1-.15l.63-1.1.94-.16c.27-.18.5-.75.78-.94,1.39-1,2.94-1.45,3.76-3a3.41,3.41,0,0,0,1.25-.62,18.51,18.51,0,0,1,3.77-3.14h.62c.47-.27.56-1.19.94-1.57s.76-.24,1.1-.47l1.26-1.25c.47-.28,1-.15,1.41-.47.26-.2.43-.6.78-.78h.47c.19-.16.25-.63.47-.79a9.12,9.12,0,0,0,1.25-.78v-.32l.94-.15c2.68-1.69,4.92-4.12,7.53-6,.46-.33.67-1,1.09-1.41A33.11,33.11,0,0,0,173.4,87c.3-.38,1.19-2.07,1.57-1.72.6.27.71.77,1.26,1.1a7.46,7.46,0,0,0,3.13.15c1.52-.05,1.85-1,2.82-1.57A6.34,6.34,0,0,0,181.4,81.53ZM59.14,89.36c-.09.36-.56,1.25-.63,1.57-.22,1.11.43,2.84,0,4.23A39,39,0,0,0,58,105.51v2.35c.49,1.32.86,2.83,1.41,4.23.22.54.88,1,1.1,1.41.72,1.49,1.85,4.28,3.14,5V119a22.16,22.16,0,0,1-6.12-1.88c-.53-.32-1.89-.18-2.35-.47-.12-.08-.15-.55-.31-.63l-2.2-.31c-.38-.26,0-.56-.47-.47-.63-.35-1.78-1.54-2.5-.79-1-1.15-4.4-3-6-2.66l-.16-.47c-.34-.22-.63-.09-.94-.32v-.31l-1.41-.16v-.31H40.8c-.34-.22-.58-.86-.94-1.1h-.63l-.15-.47-1.41-.31c-.41-.21-.62-.8-.94-1.1-.61-.57-1.57-.7-2.2-1.25s-1.51-2-2.19-2.51a11.94,11.94,0,0,1-2.2-1.88c-.44-.78,1.11-3.1,1.57-3.92a59.25,59.25,0,0,1,4.86-6.58c.2-.26.71-.24.94-.47a14.37,14.37,0,0,0,1.25-1.73h.63v-.47c1.16-.47,1.94-1.87,3-2.5,1.45-.89,2.7-1.94,4.07-2.83.92-.59,2.1-.65,3-1.25l.63-.78c1.4-.92,3.33-1.24,4.86-2,.24-.13.57-.66.78-.79h.79c1.37-.63,3-1.87,4.38-2.35l.94.16.79-.78c.67-.35,1.56-.43,1.88-.63h.31c-.54,2.31-3,4.45-3.92,6.58l-.15,1.26C60,84.27,59.53,85.9,59,87.8ZM76.07,77.29c3.2,0,3.41,1.31,4.86,3v.47c-.2-.14-.3-.52-.47-.62h-.79V80a36.31,36.31,0,0,1-3.76-2.35ZM80.46,87.8v.78l-.47.16c-.2-.38-.42-.61-.63-.94h-.63V87A5.39,5.39,0,0,1,80.46,87.8Zm-2-1.41-.16.15-.15.16L78,86.23c.27.1.15,0,.31.16Zm-5.17-3.61c.27.1.15,0,.31.16H73.4l-.15.15ZM70.9,81.21a3,3,0,0,1,1.72,1.26,6.23,6.23,0,0,0-1.72-.94ZM67,92.5a2.62,2.62,0,0,0,.47-.32,8.52,8.52,0,0,1,.31-3.13c.17-.68,0-1.12.31-1.57l.16-.47c2.55.22,3.59,3,5.17,4.23v.47c-2.17.07-5.21,2.49-6.11,3.92H67C67.11,95.1,66.82,92.86,67,92.5Zm0,6.42v-.31c1.09.22,1.8,2.3,2.82,3-.25.65-2.33,1.62-3,1.72C66.74,102,66.33,99.91,67,98.92Zm17.71,16.46-.47-.15c-.21.78-1.14,2.19-.63,3.44.21.53.57.61.63,1.57-.78.13-1.42.61-2.35.47-.72-.1-2.24-.44-2.82-.47s-.74.36-1.1.47c-1.23.37-3.41-.51-4.23-1.1h-.16l.16-.31h-.16c-.21-.25-.58-.24-.78-.47-.9-1-1.54-2.23-2.35-3.29-.32-.41-.75-.24-1.1-.78l-.16-1c-.44-.72-1.2-1.72-1.57-2.5-.28-.61-.23-1.12-.47-1.57.25-.21.19-.1.32-.47a9.21,9.21,0,0,0,7.21-.63c.8-.46,1.11-1.38,2-1.72.16-.13,0-.06.31-.16a1.85,1.85,0,0,0,.47.32v.15c-.31.07-.2-.07-.31-.15-.13.16,0,.38-.16.62l-1.1.94c-.06.12.26.51,0,.79h-.47l-.16.78c-.25.37-1.19.54-1.25.63-.33.52,0,1.3-.31,1.72.48.7,1,.86,1.25,1.88a1.78,1.78,0,0,1-.47,1.73,14.56,14.56,0,0,0,2.2.94,2.18,2.18,0,0,0,.31-.63c1,.13,1.52-.13,2.35.31.68-.7,1.9-1,2.66-1.56.94-.76,1.41-2.27,2.67-2.67l.16-.16v.16l.47.16C85.16,113.93,84.77,114.3,84.69,115.38Zm.63-3.13-.16.15-.16-.15a1.65,1.65,0,0,1,.32-.79l.31.16A1.21,1.21,0,0,1,85.32,112.25Zm1.56-36.52a.88.88,0,0,1-.78-.16c-.89,0-.95-.23-1.25-.78h-1.1a4.57,4.57,0,0,0-.94-2.2l-.16-.15-.47.78c-1.52-.27-3.88-2.3-5.33-2L77,71c.14-.92,2.73-2.64,3.6-3,.65-.25,1.45,0,1.88-.47,2.56,0,2.39,3.25,3.3,5,.44.87,1.12,1,1.09,2.51l.47-.16.16.16C87.34,75.58,87.37,75.56,86.88,75.73Zm7.53,42.32c-.42.73-1.71.59-2.2.15-.24-.23.88-1.87,1.1-2.35a2.59,2.59,0,0,1,.47.79c.37.07.23,0,.78,0A6.76,6.76,0,0,1,94.41,118.05Zm9.87,7h-.63v-.47h.47l.16.16Zm2.2-10.5-.16.47c-.31.19-.85-.2-.94-.16-.38.16-3,1.5-3.76.94h-.32a19,19,0,0,1,2-6.42c.34-.59,1.39-1.58,1.1-2.2.12-.11.35-.2.47-.31h.47c.42,2.09.13,4.06,1.1,6A2.82,2.82,0,0,1,106.48,114.6Zm2-47.34h-.15A11.14,11.14,0,0,1,109,64a9.38,9.38,0,0,1,2,.32l.31.15C110.61,65.72,109.36,66.17,108.51,67.26Zm5.65,44.67-.94-.15c-.27-.7-.3-.94-.94-1.26v-1.25h.62a3.71,3.71,0,0,0,1.26,1.72Zm14.26-45.14c-.27-.1-.15,0-.31-.15C128.38,66.74,128.26,66.67,128.42,66.79Zm-1.1,6.59c1-.59,1.29-1.55,2-2.36a3.27,3.27,0,0,1,.78-.15,3.64,3.64,0,0,0-1.72-3.61V67a6.07,6.07,0,0,1,3.29,1.88c.52.45.3,1.76.78,2.51a3.82,3.82,0,0,1-.47,2.19c-1.24,0-3.57.53-4.38,0h-.32Zm3.92,30.72-.16.15v-.15c-.4-.2-.34-.17-.47-.63h.63l.16.16C131.33,104,131.36,103.93,131.24,104.1Zm.47-6.9c-1.72-.16-2-1.14-3.6-1.25v-.47c-1.83-.84-2.57-2.54-4.08-3.61l.16-.47c1.19-.46,6.18-1.47,7.52-1.1.52.15.72.5,1.41.63A11,11,0,0,1,131.71,97.2Zm1.57-12.85-.16.47a20.86,20.86,0,0,1-3.13-.63c-.8-.13-1.65.44-2.35,0h-.16c.38-.69,4.39-2.31,5.33-3C133.21,81.55,133.42,83.9,133.28,84.35Zm32.44-3.29-.47.15-.15,1.1-1.26.78-.15.79c-.19-.23-.94.21-1.1.47V85l-.47-.15c-.19.2-.1.61-.32.78-.85.71-1.85,1.14-2.66,1.88-.26.24-.32.75-.63.94s-.67.08-.94.32-.45.86-.78,1.09L156,90c-.21.16-.28.61-.47.78a2.05,2.05,0,0,0-1.26.32c-.25.21-.32.76-.63.94-.46.28-1,.15-1.41.47s-.24.64-.47.78l-.78.16c.21.2-.23.65-.47.78h-.63c-.24.14-.27.62-.47.79-.47.38-.88-.12-1.41.31-.82.66-2.34,1.65-3.6,2.66-.67.54-2.54,1-3,1.26h-.31c.16-1.11,1.34-4.55.62-5.64.17-.12.15-.1.47-.16a51.87,51.87,0,0,0-.62-10.35,25,25,0,0,1,.15-2.82,23.91,23.91,0,0,0-.62-5.33V72.75c-.45-1.48-.94-3.18-1.57-4.7-.24-.57-.57-.48-.63-1.41,2.74,0,6.83.63,8.62,1.72a.67.67,0,0,1,.63-.16c1.61.62,3.34,1.63,5,1.73v.47c.67-.15,1.41.5,2,.78l.47-.16v.48c.65.63,2.44.91,3.45,1.56s1.51,1.62,2.82,1.88c.37,1.69,3.43,2.21,4.08,3.61h.47A3.61,3.61,0,0,1,165.72,81.06Z"/><rect class="cls-2" width="200" height="200"/></svg>