<?xml version="1.0" encoding="utf-8"?>
<!-- Generator: Adobe Illustrator 22.0.1, SVG Export Plug-In . SVG Version: 6.00 Build 0)  -->
<svg version="1.1" id="Layer_1" xmlns="http://www.w3.org/2000/svg" xmlns:xlink="http://www.w3.org/1999/xlink" x="0px" y="0px"
	 viewBox="0 0 1620 1080" style="enable-background:new 0 0 1620 1080;" xml:space="preserve">
<style type="text/css">
	.st0{fill:#FFFFFF;}
</style>
<title>Artboard 1</title>
<path class="st0" d="M1105.4,762.3c80.4,166,236.1,282.8,417.9,313.7h-417.9V762.3 M1101.5,744.5L1101.5,744.5l-0.1,335.5h517.1
	C1388.1,1080,1189.8,942.2,1101.5,744.5z"/>
<path class="st0" d="M1103.4,753.6c83.2,178.2,252.4,300.8,447.6,324.4h-447.6V753.6 M1103,751.5v327h456.6
	C1360.4,1057.5,1187,933.3,1103,751.5z"/>
<path class="st0" d="M1110.4,783.2c18.4,34.6,40.2,67.1,65.3,97.2c77.7,93.5,182.9,160.2,300.6,190.5h-365.9V783.2 M1106.4,766.8
	V1075h405.8C1337.5,1041.7,1185.8,927.2,1106.4,766.8L1106.4,766.8z"/>
<path class="st0" d="M1111,785.7c75.6,140.6,206,243.7,360.3,284.7H1111V785.7 M1109.1,778.1v294.2h377.5
	C1324,1033.7,1186.2,926.3,1109.1,778.1L1109.1,778.1z"/>
<path class="st0" d="M1114,797.4c73,129.9,193.4,226.6,335.9,270H1114V797.4 M1112.6,791.9v276.9h347.1
	C1311.7,1026.5,1186.8,926.8,1112.6,791.9L1112.6,791.9z"/>
<path class="st0" d="M1118.5,813.9c69.1,115.9,176.6,204.1,303.8,249.1h-303.8V813.9 M1117.8,811.5v252.2h308.3
	C1296.3,1018.4,1188.1,930.1,1117.8,811.5L1117.8,811.5z"/>
<path class="st0" d="M1122.7,828.7c65.3,104.2,162.3,184.8,276.6,230.1h-276.6V828.7 M1119.7,818.4v243.3h295.3
	C1290.7,1015.8,1188.8,931.9,1119.7,818.4L1119.7,818.4z"/>
<path class="st0" d="M1127.4,844.7c61.3,92,147.5,164.6,248.5,209.3h-248.5V844.7 M1125.5,838.4v217.5H1385
	C1278.3,1010.4,1189.4,935.8,1125.5,838.4L1125.5,838.4z"/>
<path class="st0" d="M1128.5,848.2c60.5,89.2,144.3,160.1,242.4,204.8h-242.4V848.2 M1127.8,846v207.6h246.1
	C1274.1,1008.8,1188.8,936.9,1127.8,846L1127.8,846z"/>
<path class="st0" d="M1133.5,864.2c55.8,77.7,129.6,140.7,215.1,183.7h-215.1V864.2 M1130.1,853.5v197.8h233.3
	C1269.6,1007.1,1189.1,938.8,1130.1,853.5L1130.1,853.5z"/>
<path class="st0" d="M1135.5,870.2c54,73.5,124.1,133.6,205,175.7h-205V870.2 M1133.6,864.4v183.4h214.8
	C1263,1004.9,1189.4,942,1133.6,864.4z"/>
<path class="st0" d="M1139.6,882.6c50,65.1,112.8,119.2,184.5,159.2h-184.5V882.6 M1137,875v169.4h197.1
	C1256.8,1003,1189.6,945.2,1137,875L1137,875z"/>
<path class="st0" d="M1151.7,916.5c37.6,43.6,81.1,81.7,129.2,113.3h-129.2V916.5 M1144.8,897.5v139.2h160.2
	C1243.8,1000,1189.6,952.9,1144.8,897.5z"/>
<path class="st0" d="M1151.6,916.3c37.8,43.6,81.4,81.9,129.6,113.6h-129.6V916.3 M1151.1,915v115.3h131.7
	C1233.7,998.3,1189.4,959.4,1151.1,915L1151.1,915z"/>
<path class="st0" d="M1153.9,922.5c35.3,39.9,75.5,75.2,119.6,105.1h-119.6V922.5 M1153.4,921.2V1028h121.7
	C1230.1,997.8,1189.2,961.9,1153.4,921.2z"/>
<path class="st0" d="M1157.9,933c30.9,33.7,65.3,64.1,102.7,90.5h-102.7V933 M1156.5,929.3v95.6h108.6
	C1225.4,997.3,1189,965.2,1156.5,929.3L1156.5,929.3z"/>
<path class="st0" d="M1161.4,941.8c27.1,28.7,56.6,54.8,88.4,78.2h-88.4V941.8 M1160.7,940.2v80.5h91.1
	C1219,996.8,1188.5,969.8,1160.7,940.2L1160.7,940.2z"/>
<path class="st0" d="M1162.9,945.7c25.3,26.5,52.8,50.9,82.2,72.8h-82.2V945.7 M1162.3,944.1v75.1h84.9
	C1216.7,996.6,1188.3,971.5,1162.3,944.1z"/>
<path class="st0" d="M1172.2,968.3c14.6,14.3,30,28,45.9,40.9h-45.9V968.3 M1168.2,958.8v54.4h61.2
	C1207.9,996.3,1187.5,978.2,1168.2,958.8z"/>
<path class="st0" d="M1180.2,986.8c5.3,4.9,10.7,9.7,16.1,14.5h-16.1V986.8 M1173.2,970.8v37.4h42
	C1200.7,996.3,1186.7,983.8,1173.2,970.8z"/>
<path class="st0" d="M1181.7,990.4v9.3h10.4C1188.6,996.6,1185.2,993.5,1181.7,990.4z"/>
<path class="st0" d="M1526.7,338.3V745h91.4v334.5c-45.4,0-90.6-5.5-134.7-16.3c-42.7-10.5-84-25.9-123.1-46.1L1526.7,338.3
	 M1527.2,334.4l-167.5,683.1c80.1,41.2,168.8,62.7,258.9,62.5V744.5h-91.4L1527.2,334.4L1527.2,334.4z"/>
<path class="st0" d="M1518.4,407v346.3h91.4v317.9c-83.4-1.1-165.4-21-239.9-58.4L1518.4,407 M1523,369.4l-158.3,645.8
	c77.9,39.5,161.8,59.9,249.7,60.5v-327H1523L1523,369.4L1523,369.4z"/>
<path class="st0" d="M1516.9,419.5v335.3h91.4v314.8c-82.2-1.2-163.1-20.9-236.6-57.6L1516.9,419.5 M1517.6,414l-146.7,598.3
	c74,37,155.4,56.8,238.1,58V754.2h-91.4L1517.6,414L1517.6,414z"/>
<path class="st0" d="M1510.1,475.6v286h91.4v301.1c-77-2.1-152.7-20.7-222-54.4L1510.1,475.6 M1514.1,442.8l-139.2,567.7
	c71.8,35.5,150.5,54.7,230.6,56.3V757.6h-91.4V442.8L1514.1,442.8z"/>
<path class="st0" d="M1507.7,495.9V764h91.4v296.1c-75.1-2.5-149-20.6-216.7-53.2L1507.7,495.9 M1509.1,484.1l-128.4,523.5
	c68.6,33.3,143.5,51.6,219.8,53.9v-299h-91.4V484.1L1509.1,484.1z"/>
<path class="st0" d="M1501.8,544.1v225.8h91.4v284.2c-70.7-3.1-140.1-20.2-204.1-50.4L1501.8,544.1 M1506.4,506.5l-122.5,499.8
	c66.9,32.1,139.8,50,213.9,52.6V765.3h-91.4L1506.4,506.5L1506.4,506.5z"/>
<path class="st0" d="M1501.2,549.4v221.1h91.4v282.9c-70.2-3.2-139.1-20.2-202.7-50L1501.2,549.4 M1502.2,541.5l-113.3,462.3
	c64.2,30.3,133.8,47.5,204.7,50.5V769.5h-91.4V541.5L1502.2,541.5z"/>
<path class="st0" d="M1497.3,582.1v192.4h91.4v274.8c-67.2-3.6-133.1-19.9-194.1-48.1L1497.3,582.1 M1497.9,576.6l-104.2,424.9
	c61.5,28.5,127.9,45,195.6,48.5V773.8h-91.4L1497.9,576.6L1497.9,576.6z"/>
<path class="st0" d="M1493.1,616.9v161.8h91.4v266.2c-64-3.9-126.7-19.5-185-46L1493.1,616.9 M1495.6,595.8l-99.2,404.5
	c60,27.6,124.6,43.6,190.6,47.3V776.1h-91.4L1495.6,595.8L1495.6,595.8z"/>
<path class="st0" d="M1492.8,618.8v160.1h91.4v265.7c-63.8-3.9-126.3-19.5-184.5-45.9L1492.8,618.8 M1493.3,614.9l-94.2,384.1
	c58.5,26.6,121.4,42.3,185.6,46.1V778.4h-91.4V614.9L1493.3,614.9z"/>
<path class="st0" d="M1488.1,657.8v125.8h91.4v255.9c-60.2-4.3-119.2-19-174.3-43.5L1488.1,657.8 M1489.1,650l-85,346.6
	c55.8,24.9,115.4,39.8,176.4,44V782.6h-91.4L1489.1,650L1489.1,650z"/>
<path class="st0" d="M1484.5,687.9v99.3h91.4v248.4c-57.4-4.5-113.6-18.6-166.4-41.7L1484.5,687.9 M1486.4,672.2L1407.2,995
	c54,23.8,111.7,38.3,170.5,42.7V785.3h-91.4L1486.4,672.2L1486.4,672.2z"/>
<path class="st0" d="M1477.7,744.4V794h91.4v234.1c-52.2-4.9-103.3-17.8-151.6-38.3L1477.7,744.4 M1480.2,723.2l-65.8,268.2
	c49.9,21.5,103,34.8,157.1,39.6V791.5h-91.4L1480.2,723.2L1480.2,723.2z"/>
<path class="st0" d="M1562,801.1v219.3c-46.8-5.1-92.7-16.8-136.3-34.7l45.3-184.7H1562 M1474,774.2l-52.3,213.5
	c45.9,19.1,94.3,31.4,143.7,36.4V797.7H1474L1474,774.2L1474,774.2z"/>
<path class="st0" d="M1551.2,811.9v196.3c-38.6-5.2-76.5-14.9-112.8-29l41-167.3L1551.2,811.9 M1558.1,805H1474l-43.7,178.4
	c41,16.5,84,27.4,127.8,32.6L1558.1,805L1558.1,805z"/>
<path class="st0" d="M1550.3,812.8v194.4c-37.9-5.2-75.1-14.8-110.8-28.6l40.7-165.9H1550.3 M1550.8,812.3h-71L1439,978.9
	c36,14,73.6,23.6,111.9,28.8L1550.8,812.3L1550.8,812.3z"/>
<path class="st0" d="M1548.4,814.7V1005c-36.5-5.1-72.2-14.4-106.7-27.5l39.9-162.8L1548.4,814.7 M1548.9,814.2h-67.6l-40.1,163.5
	c34.7,13.3,70.8,22.6,107.7,27.8L1548.9,814.2L1548.9,814.2z"/>
<path class="st0" d="M1545.3,817.8v183.6c-34.1-5.1-67.6-13.7-99.9-25.9l38.7-157.8H1545.3 M1545.8,817.3h-62.1l-38.9,158.5
	c32.6,12.3,66.5,21.1,101,26.1L1545.8,817.3L1545.8,817.3z"/>
<path class="st0" d="M1539,824.1V994c-29.3-4.8-58.2-12.3-86.1-22.5l36.1-147.4H1539 M1541.6,821.5H1487l-37.2,151.6
	c29.7,10.9,60.5,18.9,91.8,23.8L1541.6,821.5L1541.6,821.5z"/>
<path class="st0" d="M1535.9,827.2v163.2c-27-4.6-53.5-11.6-79.4-20.8l34.9-142.4L1535.9,827.2 M1537.3,825.8h-47l-35.5,144.7
	c26.8,9.6,54.4,16.8,82.5,21.5L1537.3,825.8L1537.3,825.8z"/>
<path class="st0" d="M1529.6,833.6v149.2c-22.2-4.2-44.1-10-65.4-17.3l32.3-131.9L1529.6,833.6 M1530,833.1h-33.9l-32.5,132.7
	c21.7,7.4,43.9,13.3,66.4,17.5L1530,833.1L1530,833.1z"/>
<path class="st0" d="M1519.8,843.3v127.5c-14.8-3.2-29.6-7.2-44-11.8l28.4-115.7L1519.8,843.3 M1522.7,840.4h-20.9L1472.3,961
	c16.5,5.4,33.4,9.9,50.4,13.4V840.4L1522.7,840.4z"/>
<path class="st0" d="M1518.2,844.9v124c-13.6-3-27.3-6.6-40.6-10.9l27.7-113.1L1518.2,844.9 M1519.6,843.5h-15.4L1476,958.9
	c14.3,4.6,29,8.5,43.7,11.7L1519.6,843.5L1519.6,843.5z"/>
<path class="st0" d="M1512,851.1v110c-9-2.2-18.1-4.6-27-7.3l25.2-102.7L1512,851.1 M1516.6,846.6h-9.9l-27.1,110.3
	c12.1,3.8,24.5,7.1,36.9,9.9V846.6L1516.6,846.6z"/>
<path class="st0" d="M1511.8,851.3v109.6c-8.9-2.1-17.8-4.5-26.6-7.2l25.1-102.4H1511.8 M1512.3,850.8h-2.3L1484.7,954
	c9.1,2.8,18.3,5.3,27.6,7.5V850.8L1512.3,850.8z"/>
<path class="st0" d="M1502.1,926.2v22.1c-1.7-0.5-3.4-0.9-5.1-1.4L1502.1,926.2 M1504.6,905.1l-10.7,43.6c3.5,1,7.1,2,10.7,2.9
	V905.1L1504.6,905.1z"/>
<path class="st0" d="M1617.9,0.7v307.2c-14.5-142.4-141.8-246.1-284.2-231.6c-122.4,12.5-219.1,109.2-231.6,231.6V0.7H1617.9
	 M1618.6,0h-517.1v334.4l0,0c0-142.8,115.8-258.6,258.6-258.6s258.6,115.8,258.6,258.6L1618.6,0L1618.6,0z"/>
<path class="st0" d="M1612.4,6.2v248.3C1568.2,115.1,1419.3,38,1279.9,82.2c-82,26-146.3,90.3-172.3,172.3V6.2H1612.4 M1615.3,3.3
	h-510.5v269.5l5.5-17.4c43.9-137.9,191.4-214.1,329.3-170.1c80.9,25.8,144.4,89.2,170.1,170.1l5.5,17.4L1615.3,3.3L1615.3,3.3z"/>
<path class="st0" d="M1610.5,8.1v234.8c-50.6-138.3-203.8-209.5-342.1-158.9c-73.8,27-131.9,85.1-158.9,158.9V8.1H1610.5
	 M1613.3,5.2h-506.6v253.7l5.5-15c50.1-136.9,201.6-207.2,338.5-157.1c73,26.7,130.4,84.2,157.1,157.1l5.5,15V5.2z"/>
<path class="st0" d="M1608.6,10v222.6C1552.3,95.4,1395.4,29.7,1258.1,86c-66.5,27.3-119.3,80.1-146.6,146.6V10H1608.6 M1609.5,9.1
	h-499v228.4l1.8-4.4c56.1-136.8,212.4-202.2,349.2-146.1c66.3,27.2,118.9,79.8,146.1,146.1l1.8,4.4L1609.5,9.1L1609.5,9.1z"/>
<path class="st0" d="M1604.4,14.2v199c-17.5-35-42.2-65.8-72.5-90.6c-100.1-81.5-243.6-81.5-343.7,0c-30.3,24.7-55,55.6-72.5,90.6
	v-199L1604.4,14.2 M1606.3,12.3h-492.5v209.2c62.5-136,223.4-195.6,359.4-133.1c58.8,27,106.1,74.3,133.1,133.1
	C1606.3,221.6,1606.3,12.3,1606.3,12.3z"/>
<path class="st0" d="M1602.2,16.4v188.1c-17.3-32.1-40.8-60.4-69-83.5c-100.9-82.1-245.5-82.1-346.4,0c-28.2,23.1-51.7,51.4-69,83.5
	V16.4H1602.2 M1603.2,15.4h-486.4v192.9c17.4-33.3,41.4-62.8,70.6-86.5c100.5-81.8,244.7-81.8,345.2,0
	c29.1,23.8,53.1,53.2,70.6,86.5L1603.2,15.4L1603.2,15.4z"/>
<path class="st0" d="M1600.7,17.9v180.6c-17.1-30.1-39.7-56.8-66.5-78.7c-101.5-82.5-246.9-82.5-348.4,0
	c-26.8,21.9-49.4,48.6-66.5,78.7V17.9H1600.7 M1601.7,16.9h-483.3v185.2c17.3-31.3,40.3-59,68-81.6c101.1-82.3,246.1-82.3,347.2,0
	c27.7,22.6,50.7,50.3,68,81.6V17L1601.7,16.9z"/>
<path class="st0" d="M1589.2,29.4v131.1c-13.9-18.3-30-35-47.8-49.5c-105.7-86-257.2-86-362.8,0c-17.8,14.6-33.9,31.2-47.8,49.5
	V29.4H1589.2 M1595.9,22.7h-471.7v158.6c16.1-24.6,35.8-46.7,58.6-65.3c103.2-84,251.3-84,354.5,0c22.8,18.6,42.5,40.6,58.6,65.2
	C1595.9,181.3,1595.9,22.7,1595.9,22.7z"/>
<path class="st0" d="M1587.2,31.3v123.3c-13.2-16.6-28.1-31.8-44.6-45.3c-123.9-100.9-306.2-82.2-407.1,41.7c-1,1.2-1.9,2.4-2.9,3.6
	V31.3H1587.2 M1590.1,28.5h-460.1V163c14.2-19.1,30.8-36.3,49.2-51.4c105.3-85.7,256.4-85.7,361.8,0c18.4,15.1,34.9,32.3,49.2,51.4
	V28.5z"/>
<path class="st0" d="M1584.8,33.8v114c-102.7-124.2-286.5-141.6-410.7-38.9c-14.2,11.7-27.2,24.8-38.9,38.9v-114L1584.8,33.8
	 M1586.2,32.4h-452.4v119.4C1234.2,26.8,1417,7,1541.9,107.5c16.3,13.1,31.2,28,44.3,44.3L1586.2,32.4L1586.2,32.4z"/>
<path class="st0" d="M1584,34.5v111.1c-103.8-123.7-288.3-139.8-412-36c-13,10.9-25.1,23-36,36V34.5H1584 M1584.7,33.9h-449.4v113.6
	c102.8-124.1,286.7-141.4,410.8-38.5c14,11.6,26.9,24.5,38.5,38.5L1584.7,33.9L1584.7,33.9z"/>
<path class="st0" d="M1581.7,36.8v102.6C1474.5,17,1288.3,4.7,1165.9,111.9c-9.8,8.6-19,17.8-27.6,27.6V36.8H1581.7 M1583.2,35.4
	h-446.3v107.8C1242,20,1427.1,5.3,1550.3,110.4c11.8,10.1,22.8,21,32.8,32.8L1583.2,35.4L1583.2,35.4z"/>
<path class="st0" d="M1579.6,39v94.9c-48-52.6-113.3-86.3-184-94.9L1579.6,39 M1324.4,39c-70.8,8.5-136.1,42.2-184,94.9V39
	L1324.4,39 M1580.1,38.5h-193.4c74.3,6.7,143.4,41.2,193.4,96.6V38.5L1580.1,38.5z M1333.3,38.5h-193.4v96.6
	C1189.9,79.7,1259,45.2,1333.3,38.5L1333.3,38.5z"/>
<path class="st0" d="M1575.1,43.5v79.1c-36.9-37.6-83-64.9-133.8-79.1H1575.1 M1278.7,43.5c-50.8,14.2-96.9,41.4-133.8,79.1V43.5
	H1278.7 M1577,41.6h-150.9c57.7,13,110.2,42.8,150.9,85.7V41.6z M1294,41.6h-151v85.7C1183.7,84.4,1236.3,54.6,1294,41.6z"/>
<path class="st0" d="M1571.3,47.3v66c-6-5.8-12.2-11.2-18.5-16.3c-26.1-21.3-55.5-38-87-49.7L1571.3,47.3 M1254.3,47.3
	c-31.5,11.6-60.9,28.4-87,49.7c-6.3,5.1-12.5,10.6-18.5,16.3v-66L1254.3,47.3 M1573.2,45.4h-118.7c35.3,11.5,68.3,29.5,97.1,53
	c7.4,6,14.6,12.5,21.6,19.4L1573.2,45.4L1573.2,45.4z M1265.5,45.4h-118.7v72.4c6.9-6.8,14.1-13.3,21.6-19.4
	C1197.2,74.9,1230.1,57,1265.5,45.4L1265.5,45.4z"/>
<path class="st0" d="M1565.6,53v47.4c-3-2.7-6.1-5.3-9.2-7.8c-19.2-15.6-40.1-28.9-62.5-39.6H1565.6 M1226.1,53
	c-22.3,10.7-43.3,23.9-62.5,39.6c-3.1,2.5-6.2,5.1-9.2,7.8V53H1226.1 M1567,51.6h-79.5c24.4,11,47.3,25.2,68,42.1
	c3.9,3.2,7.7,6.5,11.5,9.9L1567,51.6L1567,51.6z M1232.6,51.6H1153v51.9c3.8-3.4,7.6-6.7,11.5-9.9
	C1185.3,76.8,1208.1,62.6,1232.6,51.6L1232.6,51.6z"/>
<path class="st0" d="M1564,54.6V97c-2.2-1.9-4.4-3.8-6.7-5.6c-17.5-14.3-36.6-26.6-56.8-36.8L1564,54.6 M1219.4,54.6
	c-20.2,10.2-39.2,22.5-56.8,36.8c-2.2,1.8-4.5,3.7-6.7,5.6V54.6L1219.4,54.6 M1565.4,53.1h-71c22.1,10.6,43,23.8,62,39.3
	c3,2.5,6.1,5,9,7.6V53.1L1565.4,53.1z M1225.6,53.1h-71v47c3-2.6,6-5.2,9-7.6C1182.6,77,1203.4,63.8,1225.6,53.1L1225.6,53.1z"/>
<path class="st0" d="M1562.1,56.5v36.3c-1.2-1-2.3-2-3.5-2.9c-15.6-12.7-32.4-23.9-50.1-33.4H1562.1 M1211.6,56.5
	c-17.7,9.5-34.5,20.7-50.1,33.4c-1.2,1-2.4,1.9-3.6,2.9V56.5H1211.6 M1563.5,55.1h-60.9c19.5,10,38,22.1,55,35.9
	c2,1.6,3.9,3.2,5.8,4.9L1563.5,55.1L1563.5,55.1z M1217.4,55.1h-60.9v40.8c2-1.7,3.9-3.3,5.9-4.9
	C1179.4,77.1,1197.8,65.1,1217.4,55.1z"/>
<path class="st0" d="M1559.5,59.1v28.2c-12.9-10.4-26.6-19.9-41-28.2H1559.5 M1201.5,59.1c-14.4,8.3-28.1,17.7-41,28.2V59.1H1201.5
	 M1560.4,58.1h-45.5c15.7,8.9,30.7,19.1,44.7,30.5l0.8,0.7L1560.4,58.1L1560.4,58.1z M1205.1,58.1h-45.5v31.2l0.8-0.7
	C1174.4,77.2,1189.3,67,1205.1,58.1L1205.1,58.1z"/>
<path class="st0" d="M1553.2,65.3v9.1c-4.2-3.1-8.5-6.2-12.9-9.1H1553.2 M1179.7,65.3c-4.4,2.9-8.7,6-12.9,9.1v-9.1H1179.7
	 M1558.9,59.7h-38.2c13.4,7.9,26.1,16.7,38.2,26.4V59.7z M1199.4,59.7h-38.2V86C1173.2,76.3,1186,67.5,1199.4,59.7L1199.4,59.7z"/>
<path class="st0" d="M1360,76.3c142.4-0.1,258,115.2,258.1,257.6h-516.2C1102.1,191.5,1217.6,76.2,1360,76.3 M1360,75.8
	c-142.8,0-258.6,115.8-258.6,258.6h517.1C1618.6,191.6,1502.8,75.8,1360,75.8z"/>
<path class="st0" d="M1360,81.3c33.5-0.1,66.7,6.6,97.6,19.7c60.3,25.4,108.5,73,134.6,133c13,30,20.1,62.2,20.7,94.9h-506
	c0.7-32.7,7.7-64.9,20.8-94.9c26.2-60,74.4-107.6,134.6-133C1293.3,88,1326.5,81.2,1360,81.3 M1360,78.9
	c-139.6,0-253.7,113-255.4,252.3h510.8C1613.7,191.9,1499.6,78.9,1360,78.9z"/>
<path class="st0" d="M1360,82.8c136.1,0.3,247.4,108.5,251.5,244.6h-503C1112.5,191.3,1223.9,83,1360,82.8 M1360,81.4
	c-137.4,0.3-249.6,110-252.9,247.4h505.9C1609.6,191.4,1497.4,81.6,1360,81.4z"/>
<path class="st0" d="M1360,85.4c133.7,0.3,243.4,105.8,248.8,239.4h-497.6C1116.6,191.2,1226.3,85.7,1360,85.4 M1360,84.9
	c-134.1,0.3-244.1,106.3-249.3,240.4h498.6C1604.1,191.2,1494.1,85.2,1360,84.9z"/>
<path class="st0" d="M1360,85.4c133.7,0.3,243.4,105.8,248.8,239.4h-497.6C1116.6,191.2,1226.3,85.7,1360,85.4 M1360,84.9
	c-134.1,0.3-244.1,106.3-249.3,240.4h498.6C1604.1,191.2,1494.1,85.2,1360,84.9z"/>
<path class="st0" d="M1360,85.4c133.7,0.3,243.4,105.8,248.8,239.4h-497.6C1116.6,191.2,1226.3,85.7,1360,85.4 M1360,84.9
	c-134.1,0.3-244.1,106.3-249.3,240.4h498.6C1604.1,191.2,1494.1,85.2,1360,84.9z"/>
<path class="st0" d="M1360,90.5c128.9,0.3,235.4,100.6,243.4,229.2h-486.9C1124.6,191.1,1231.1,90.8,1360,90.5 M1360,87.1
	c-132.1,0.3-240.7,104.1-247,236h494C1600.7,191.2,1492.1,87.4,1360,87.1z"/>
<path class="st0" d="M1360,92.4c127.1,0.3,232.5,98.6,241.4,225.4h-482.9C1127.6,191,1232.9,92.6,1360,92.4 M1360,90.5
	c-128.9,0.3-235.4,100.6-243.5,229.2h486.9C1595.4,191,1488.9,90.7,1360,90.5z"/>
<path class="st0" d="M1360,97.7c122.2,0.3,224.2,93.2,235.7,214.9h-471.4C1135.9,190.9,1237.8,97.9,1360,97.7 M1360,93.9
	c-125.7,0.3-230.1,97.1-239.8,222.4h479.7C1590.1,191,1485.7,94.1,1360,93.9z"/>
<path class="st0" d="M1360,100.2c119.8,0.3,220.2,90.7,232.9,209.8h-465.8C1139.8,190.9,1240.2,100.5,1360,100.2 M1360,99.7
	c-120.2,0.3-220.9,91.2-233.4,210.8h466.9C1580.9,190.9,1480.2,100,1360,99.7z"/>
<path class="st0" d="M1360,107.6c59.7-0.1,117,23.5,159.3,65.6c35.3,34.9,58.2,80.3,65.3,129.4h-449.1c7.1-49.1,30-94.5,65.3-129.4
	C1243,131.1,1300.3,107.5,1360,107.6 M1360,103.8c-116.4,0.3-214.5,87.1-228.9,202.6h457.8C1574.5,190.9,1476.4,104,1360,103.8z"/>
<path class="st0" d="M1360,109.1c59.3-0.1,116.2,23.4,158.2,65.2c34.6,34.2,57.2,78.7,64.6,126.8h-445.6
	c7.4-48.1,30-92.6,64.6-126.8C1243.8,132.4,1300.7,109,1360,109.1 M1360,107.2c-59.8-0.1-117.2,23.6-159.6,65.8
	C1165,208,1142,253.7,1135,303h450c-7-49.3-30-95-65.4-130.1C1477.2,130.8,1419.8,107.1,1360,107.2z"/>
<path class="st0" d="M1360,114.2c58-0.1,113.6,22.9,154.7,63.7c32.3,32.1,54,73.3,62.2,118.1h-433.6c8.2-44.8,29.9-86,62.2-118.1
	C1246.4,137,1302,114.1,1360,114.2 M1360,113.7c-58.1-0.1-113.8,22.9-155,63.9c-32.5,32.3-54.3,73.8-62.4,118.9h434.8
	c-8.1-45.1-29.9-86.6-62.4-118.9C1473.8,136.6,1418,113.6,1360,113.7L1360,113.7z"/>
<path class="st0" d="M1360,117.6c57-0.1,111.8,22.5,152.2,62.7c30.8,30.6,51.8,69.6,60.4,112.2h-425.3
	c8.6-42.5,29.6-81.6,60.4-112.2C1248.2,140.1,1303,117.6,1360,117.6 M1360,115.7c-57.5-0.1-112.8,22.7-153.5,63.3
	c-31.6,31.4-53,71.6-61.4,115.4h429.9c-8.4-43.8-29.8-84-61.4-115.4C1472.8,138.4,1417.5,115.6,1360,115.7z"/>
<path class="st0" d="M1360,121.2c56.1-0.1,110,22.1,149.7,61.7c29.2,29.1,49.6,65.9,58.5,106.1h-416.6c9-40.2,29.3-77.1,58.6-106.1
	C1250,143.3,1303.9,121.1,1360,121.2 M1360,120.2c-56.4-0.1-110.4,22.2-150.4,62c-29.3,29.2-49.8,66.2-58.8,106.6l-0.2,1.1h418.9
	l-0.2-1.1c-9.1-40.4-29.5-77.4-58.8-106.6C1470.5,142.4,1416.4,120.1,1360,120.2z"/>
<path class="st0" d="M1360,128.3c54.2-0.1,106.3,21.4,144.7,59.7c26,26,44.8,58.3,54.4,93.8h-398.2c9.6-35.5,28.4-67.8,54.4-93.8
	C1253.8,149.7,1305.8,128.3,1360,128.3 M1360,126.4c-54.7-0.1-107.2,21.6-146,60.2c-26.5,26.4-45.5,59.4-55.2,95.5l-0.4,1.5h403.2
	l-0.4-1.5c-9.7-36.1-28.7-69.1-55.2-95.5C1467.2,148,1414.7,126.4,1360,126.4z"/>
<path class="st0" d="M1360,130.9c53.6-0.1,105,21.1,142.9,58.9c24.9,24.9,43.1,55.7,52.9,89.5h-391.6c9.8-33.8,28-64.6,52.9-89.5
	C1255.1,152,1306.4,130.8,1360,130.9 M1360,130.4c-53.7-0.1-105.2,21.2-143.2,59.1c-25.2,25.1-43.5,56.2-53.2,90.3h392.8
	c-9.7-34.2-28-65.2-53.2-90.3C1465.2,151.6,1413.7,130.3,1360,130.4z"/>
<path class="st0" d="M1360,135.8c52.3-0.1,102.4,20.6,139.4,57.5c22.7,22.7,39.7,50.5,49.7,81h-378.2c10-30.5,27-58.3,49.7-81
	C1257.6,156.4,1307.7,135.7,1360,135.8 M1360,132c-53.3-0.1-104.4,21-142.1,58.6c-24.4,24.4-42.3,54.5-52.2,87.5h388.5
	c-9.8-33.1-27.8-63.1-52.2-87.5C1464.4,153,1413.3,131.9,1360,132L1360,132z"/>
<path class="st0" d="M1360,145.6c49.7,0,97.4,19.6,132.6,54.7c18.4,18.4,32.9,40.3,42.6,64.3h-350.4c9.8-24.1,24.3-46,42.6-64.4
	C1262.6,165.2,1310.3,145.5,1360,145.6 M1360,136.1c-52.2-0.1-102.3,20.6-139.2,57.4c-22.6,22.6-39.5,50.2-49.5,80.5h377.4
	c-9.9-30.4-26.9-57.9-49.5-80.5C1462.3,156.7,1412.2,136,1360,136.1z"/>
<path class="st0" d="M1360,146.1c49.6-0.1,97.1,19.6,132.2,54.5c18.1,18.1,32.5,39.7,42.2,63.5h-348.8c9.7-23.8,24.1-45.3,42.2-63.5
	C1262.9,165.6,1310.4,146,1360,146.1 M1360,145.6c-49.7,0-97.3,19.6-132.6,54.7c-18.3,18.4-32.8,40.2-42.6,64.3h350.2
	c-9.8-24.1-24.2-45.9-42.6-64.3C1457.3,165.2,1409.7,145.6,1360,145.6z"/>
<path class="st0" d="M1360,147.4c49.2,0,96.4,19.4,131.3,54.1c17.5,17.5,31.5,38.3,41.1,61.1h-344.8c9.6-22.9,23.6-43.6,41.1-61.1
	C1263.6,166.9,1310.8,147.4,1360,147.4 M1360,147c-49.3,0-96.6,19.5-131.6,54.3c-17.8,17.7-31.9,38.8-41.5,62h346.2
	c-9.6-23.2-23.7-44.2-41.5-61.9C1456.7,166.4,1409.3,146.9,1360,147L1360,147z"/>
<path class="st0" d="M1360,147.9c49.1,0,96.2,19.4,130.9,54c17.3,17.3,31.2,37.8,40.7,60.3h-343.3c9.6-22.5,23.4-43,40.7-60.3
	C1263.9,167.3,1310.9,147.9,1360,147.9 M1360,147c-49.3,0-96.6,19.5-131.6,54.3c-17.8,17.7-31.9,38.8-41.5,62h346.2
	c-9.6-23.2-23.7-44.2-41.5-61.9C1456.7,166.4,1409.3,146.9,1360,147L1360,147z"/>
<path class="st0" d="M1360,152.6c47.8,0,93.7,18.9,127.6,52.6c15.2,15.2,27.6,32.9,36.8,52.3h-328.8c9.2-19.4,21.6-37.1,36.8-52.3
	C1266.3,171.5,1312.2,152.6,1360,152.6 M1360,152.1c-48-0.1-94,18.9-128,52.8c-15.4,15.4-28,33.4-37.2,53.1h330.3
	c-9.2-19.7-21.8-37.7-37.2-53.1C1454,171.1,1408,152.1,1360,152.1z"/>
<path class="st0" d="M1360,157.8c46.5,0,91.1,18.4,124,51.2c12.8,12.8,23.6,27.4,32,43.4h-311.9c8.4-16,19.2-30.6,32-43.4
	C1269,176.2,1313.6,157.8,1360,157.8 M1360.1,156.9c-46.7,0-91.5,18.4-124.6,51.4c-13.2,13.2-24.3,28.4-32.9,45h315
	c-8.6-16.6-19.7-31.8-32.9-45C1451.5,175.3,1406.7,156.8,1360.1,156.9L1360.1,156.9z"/>
<path class="st0" d="M1360,159c46.2,0,90.4,18.2,123.2,50.8c12.2,12.2,22.6,26.2,30.8,41.4h-308c8.2-15.2,18.6-29.2,30.9-41.4
	C1269.6,177.2,1313.9,159,1360,159 M1360,158.5c-46.3,0-90.7,18.3-123.5,50.9c-12.5,12.4-23,26.7-31.3,42.2h309.6
	c-8.3-15.5-18.9-29.7-31.3-42.2C1450.7,176.8,1406.3,158.5,1360,158.5L1360,158.5z"/>
<path class="st0" d="M1360,168.4c54.7,0,105.8,27,136.6,72.2l0.7,1.1h-274.6l0.7-1.1C1254.2,195.5,1305.3,168.4,1360,168.4
	 M1360,167.5c-55,0-106.4,27.2-137.3,72.7l-1.7,2.6h278.2l-1.7-2.6C1466.4,194.7,1415,167.5,1360,167.5z"/>
<path class="st0" d="M1360,167.5c55,0,106.4,27.2,137.3,72.7l1.7,2.6h-278.1l1.7-2.6C1253.6,194.7,1305,167.5,1360,167.5
	 M1360,165.6c-55.6,0-107.6,27.5-138.9,73.5l-1.7,2.6l-2,3h285.3l-2-3l-1.7-2.6C1467.7,193.1,1415.6,165.5,1360,165.6z"/>
<path class="st0" d="M1360,170.1c53.5,0,103.6,26.1,134.2,70h-268.4c5.6-8,11.9-15.5,18.8-22.4C1275.3,187.1,1316.8,170,1360,170.1
	 M1360,169.1c-54.5,0-105.4,26.9-136,71.9h272C1465.4,196,1414.5,169.1,1360,169.1z"/>
<path class="st0" d="M1360,171.3c42.9,0,84.1,17,114.5,47.3c6.3,6.3,12.1,13.1,17.3,20.4h-263.6c5.2-7.3,11-14.1,17.3-20.4
	C1275.9,188.2,1317.1,171.2,1360,171.3 M1360,170.3c-53.2,0-103.1,25.9-133.7,69.5h267.3c-5.5-7.9-11.7-15.2-18.5-22
	C1444.6,187.4,1403.2,170.3,1360,170.3z"/>
<path class="st0" d="M1360,177.2c41.4,0,81,16.3,110.3,45.5c3.2,3.2,6.3,6.6,9.3,10.1h-239.3c3-3.6,6.1-7,9.3-10.1
	C1279,193.6,1318.7,177.2,1360,177.2 M1360,174.4c-42.1,0-82.5,16.6-112.3,46.3c-4.7,4.7-9.2,9.7-13.3,15h251.2
	c-4.1-5.3-8.5-10.3-13.3-15C1442.5,191,1402.1,174.4,1360,174.4z"/>
<path class="st0" d="M1360,178.5c41,0,80.4,16.2,109.4,45.2c2.5,2.5,5,5.1,7.4,7.9h-233.7c2.4-2.8,4.9-5.4,7.4-7.9
	C1279.7,194.8,1319,178.5,1360,178.5 M1360,177.1c-41.4,0-81.1,16.4-110.4,45.6c-3.3,3.2-6.4,6.7-9.5,10.4h239.8
	c-3.1-3.7-6.2-7.1-9.5-10.4C1441.1,193.5,1401.4,177.1,1360,177.1z"/>
<path class="st0" d="M1360,180.3c40.6,0,79.5,16,108.2,44.7c1.6,1.6,3.2,3.2,4.7,4.9h-225.8c1.6-1.7,3.2-3.4,4.7-4.9
	C1280.6,196.4,1319.5,180.3,1360,180.3 M1360,178.9c-40.9,0-80.2,16.2-109.2,45.1c-2.3,2.3-4.6,4.8-6.9,7.3h232.1
	c-2.2-2.6-4.6-5-6.9-7.3C1440.2,195.1,1400.9,178.9,1360,178.9z"/>
<path class="st0" d="M1360,181.4c40.3,0,78.9,15.9,107.4,44.3c1,1,2,2,3,3h-220.8c1-1,2-2.1,3-3
	C1281.2,197.3,1319.8,181.4,1360,181.4 M1360,180.9c-40.4,0-79.1,16-107.7,44.5c-1.2,1.2-2.5,2.5-3.7,3.8h222.9
	c-1.2-1.3-2.5-2.6-3.7-3.8C1439.1,196.9,1400.4,180.9,1360,180.9z"/>
<path class="st0" d="M1360,185.7c36.9,0,72.4,13.8,99.7,38.7h-199.4C1287.6,199.5,1323.1,185.7,1360,185.7 M1360,185.3
	c-37.4,0-73.5,14.1-100.9,39.6h201.8C1433.5,199.4,1397.4,185.2,1360,185.3L1360,185.3z"/>
<path class="st0" d="M1360,187.9c34.4,0,67.6,12.2,93.9,34.3h-187.8C1292.4,200.1,1325.6,187.9,1360,187.9 M1360,186.5
	c-36,0-70.8,13.2-97.7,37.2h195.5C1430.8,199.7,1396,186.5,1360,186.5z"/>
<path class="st0" d="M1360,189c33.1,0.1,65.1,11.4,90.9,32.1h-181.7C1294.9,200.4,1326.9,189.1,1360,189 M1360,188.5
	c-33.6,0-66.2,11.7-92.2,33.1h184.4C1426.2,200.3,1393.6,188.6,1360,188.5L1360,188.5z"/>
<path class="st0" d="M1360,193.8c27.1,0,53.5,7.9,76.2,22.6h-152.4C1306.5,201.6,1332.9,193.8,1360,193.8 M1360,193.3
	c-27.7,0-54.8,8.2-77.8,23.6h155.6C1414.8,201.5,1387.7,193.3,1360,193.3z"/>
<path class="st0" d="M1360,195c25.4,0,50.3,7,72,20.2h-144C1309.7,202,1334.6,195,1360,195 M1360,194.5c-26,0-51.6,7.3-73.6,21.1
	h147.3C1411.6,201.9,1386,194.5,1360,194.5L1360,194.5z"/>
<path class="st0" d="M1360,195c25.4,0,50.3,7,72,20.2h-144C1309.7,202,1334.6,195,1360,195 M1360,194.5c-26,0-51.6,7.3-73.6,21.1
	h147.3C1411.6,201.9,1386,194.5,1360,194.5L1360,194.5z"/>
<path class="st0" d="M1360,195c25.4,0,50.3,7,72,20.2h-144C1309.7,202,1334.6,195,1360,195 M1360,194.5c-26,0-51.6,7.3-73.6,21.1
	h147.3C1411.6,201.9,1386,194.5,1360,194.5L1360,194.5z"/>
<path class="st0" d="M1360,200.4c16.8,0,33.5,3.2,49.1,9.4h-98.3C1326.5,203.6,1343.2,200.4,1360,200.4 M1360,196.9
	c-22.5,0-44.7,5.6-64.5,16.3h129.1C1404.7,202.6,1382.5,197,1360,196.9L1360,196.9z"/>
<path class="st0" d="M1360,202.6c11.9,0,23.7,1.6,35.2,4.9h-70.3C1336.3,204.3,1348.1,202.7,1360,202.6 M1360,201.7
	c-14.1,0-28.1,2.3-41.5,6.7h83C1388.1,204,1374.1,201.7,1360,201.7L1360,201.7z"/>
<path class="st0" d="M1360,203.8c-8.7,0-17.4,0.9-26,2.7h52.1C1377.5,204.6,1368.8,203.8,1360,203.8L1360,203.8z"/>
<g>
	<polygon class="st0" points="1192.6,745.2 1192.6,334.4 1193.1,334.4 1193.1,743.9 1527,334.2 1527.4,334.5 	"/>
</g>
<path class="st0" d="M1526.2,336.3l-166.8,680.5c-114-58.9-204.6-154.7-257.2-271.8h90.8l0.1-0.2L1526.2,336.3 M1527.2,334.4
	l-334.4,410.1h-91.3c52.6,117.6,143.7,213.9,258.2,272.9L1527.2,334.4L1527.2,334.4z"/>
<path class="st0" d="M1510.2,368.5L1354.1,1005c-104.5-56.6-188.4-144.8-239.5-252.1h82.2l1.4-1.7L1510.2,368.5 M1519.4,350
	l-324.7,398.3h-87.2c52,112.8,139.8,205.4,249.7,263.4L1519.4,350L1519.4,350z"/>
<path class="st0" d="M1505.6,377.6l-153,624c-101.8-55.9-183.7-142-234.4-246.5h79.7l0.8-0.9L1505.6,377.6 M1510.8,367.3
	l-314.1,385.3h-82.6c51.3,107.6,135.4,196.1,240.2,252.9L1510.8,367.3L1510.8,367.3z"/>
<path class="st0" d="M1514.1,360.5l-158.7,647.4c-106.8-57.3-192.3-147.4-243.9-257h84.4l0.2-0.2L1514.1,360.5 M1515.5,357.8
	l-319.9,392.4h-85.1c51.7,110.4,137.8,201.2,245.4,258.6L1515.5,357.8L1515.5,357.8z"/>
<path class="st0" d="M1494.6,399.8L1349,993.4c-95.3-54-172.6-135-222-232.8h73.5l1.4-1.7L1494.6,399.8 M1503.8,381.4l-305.5,374.7
	h-78.7c50.5,103.3,131.6,188.6,232.3,244.2L1503.8,381.4L1503.8,381.4z"/>
<path class="st0" d="M1488.4,412.3L1347,988.8c-91.7-52.9-166.4-131.1-215.1-225.1h70l0.2-0.2L1488.4,412.3 M1489.7,409.6
	L1201.6,763h-70.8c48.9,94.8,124.1,173.6,216.6,226.8L1489.7,409.6L1489.7,409.6z"/>
<path class="st0" d="M1484.8,419.3l-138.9,566.8c-88.7-51.5-163.6-129.8-211.1-220.7h68l0.1-0.2L1484.8,419.3 M1485.9,417.4
	l-283.4,347.5H1134c47.7,91.6,122.8,170.2,212.2,221.9l139.6-569.4L1485.9,417.4z"/>
<path class="st0" d="M1475,439.2l-132.3,539.3c-83-49.5-153.7-123.3-199.8-208.3h62.2l0.6-0.7L1475,439.2 M1478.8,431.5
	l-274.7,336.9h-64.4c46.7,87.3,118.9,162.7,204.2,213.1L1478.8,431.5L1478.8,431.5z"/>
<path class="st0" d="M1449,491.3l-114.5,467.1c-69.1-44.8-127.1-104.8-169.5-175.3h46.2l2.3-2.8L1449,491.3 M1464.7,459.7
	l-257.3,315.6h-56c44.6,79,110.8,147.8,188,195.4L1464.7,459.7L1464.7,459.7z"/>
<path class="st0" d="M1449.7,489.8l-115,469.2c-69.4-45-127.7-105.3-170.4-176.2h46.7l0.1-0.2L1449.7,489.8 M1450.8,488l-240,294.3
	h-47.3c42.1,70.7,102.4,133.1,171.5,177.5L1450.8,488L1450.8,488z"/>
<path class="st0" d="M1432.8,523.8l-103.4,421.6c-59.9-40.9-110.9-93.4-150.1-154.4h35.6l0.6-0.7L1432.8,523.8 M1436.6,516.1
	L1214,789.2h-38.2c39.3,62.4,93.6,118.4,154.8,159.4L1436.6,516.1L1436.6,516.1z"/>
<path class="st0" d="M1423.5,542.5l-96.9,395.4c-53.5-37.4-102.5-87.6-138.8-142.2h29.3l1-1.2L1423.5,542.5 M1430.4,528.7
	l-214.9,263.6h-34c37.8,58.6,89.8,112,147.2,151.2L1430.4,528.7L1430.4,528.7z"/>
<path class="st0" d="M1419.7,550.1l-94.3,384.7c-52.5-37.4-98-83.9-134.1-137.3h26.7l0.4-0.5L1419.7,550.1 M1422.6,544.3
	l-205.2,251.8h-28.7c36.9,55,83.5,102.8,137.7,141L1422.6,544.3L1422.6,544.3z"/>
<path class="st0" d="M1418.5,552.5L1325,933.8c-50.6-35.9-97.7-84-132.6-135.7h25.9l0.1-0.2L1418.5,552.5 M1419.5,550.6l-201.4,247
	h-26.6c35.2,52.3,82.6,100.8,133.8,137L1419.5,550.6z"/>
<path class="st0" d="M1410.3,568.9l-87.8,358.1c-47.3-34.8-88.7-76.9-122.5-124.9h20.2l0.4-0.5L1410.3,568.9 M1413.2,563.1
	l-193.7,237.6h-22.2c34.6,49.6,77.2,93.1,126.1,128.7L1413.2,563.1L1413.2,563.1z"/>
<path class="st0" d="M1406,577.6l-84.8,345.9c-44.9-33.5-84.4-73.7-117.1-119.2h17.1l0.1-0.2L1406,577.6 M1407,575.7l-186,228.1
	h-17.8c32.9,46.1,72.8,86.7,118.2,120.5L1407,575.7L1407,575.7z"/>
<path class="st0" d="M1396.9,595.9l-78.4,319.9c-39.9-30.6-75.4-66.6-105.5-107h10.4l0.6-0.7L1396.9,595.9 M1400.8,588.2
	l-178.3,218.7h-13.2c31.2,42.5,68.3,80.3,110.4,112.1L1400.8,588.2L1400.8,588.2z"/>
<path class="st0" d="M1369.4,651l-59.1,241c-27.5-22.9-52.6-48.5-75-76.5L1369.4,651 M1387.4,614.8l-161.9,198.6h-3.2
	c27.1,35.1,58.5,66.8,93.3,94.3L1387.4,614.8L1387.4,614.8z"/>
<path class="st0" d="M1365.7,658.6l-56.4,230.1c-26.1-22-50.1-46.5-71.6-73.1L1365.7,658.6 M1369.5,650.9l-134.3,164.7
	c22.4,28,47.6,53.6,75.1,76.5L1369.5,650.9L1369.5,650.9z"/>
<path class="st0" d="M1356.4,677.1l-49.8,203.3c-22.8-19.8-43.9-41.5-63-64.8L1356.4,677.1 M1357.4,675.2l-114.5,140.4
	c19.4,23.7,40.8,45.7,63.9,65.7L1357.4,675.2L1357.4,675.2z"/>
<path class="st0" d="M1338.6,713l-37,151.1c-16.5-15.2-32.1-31.4-46.6-48.6L1338.6,713 M1344.5,701.1l-93.3,114.5
	c16,19.2,33.4,37.3,52,54L1344.5,701.1L1344.5,701.1z"/>
<path class="st0" d="M1327,736.2l-28.7,117c-12.6-12-24.6-24.6-35.9-37.8L1327,736.2 M1328.9,732.4l-67.7,83.1
	c11.8,13.8,24.4,27.1,37.7,39.6L1328.9,732.4L1328.9,732.4z"/>
<path class="st0" d="M1313.5,763.2l-18.9,77.2c-8.1-8.1-16-16.5-23.6-25.1L1313.5,763.2 M1316.8,756.7l-47.8,58.7
	c8.4,9.7,17.3,19.1,26.5,28.2L1316.8,756.7L1316.8,756.7z"/>
<path class="st0" d="M1292.8,804.9l-3.7,15c-1.5-1.7-3-3.3-4.5-4.9L1292.8,804.9 M1302,786.4l-23.4,28.7c4.2,4.7,8.5,9.4,13,14
	L1302,786.4L1302,786.4z"/>
<path class="st0" d="M1293.4,803.7l-9.3,11.3c1.7,1.9,3.4,3.7,5.1,5.5L1293.4,803.7L1293.4,803.7z"/>
<path class="st0" d="M1332.9,724.4l-32.9,134.4c-14.6-13.6-28.4-28.1-41.3-43.3L1332.9,724.4 M1336.7,716.7l-80.6,98.8
	c14,16.5,28.9,32.2,44.8,46.8L1336.7,716.7z"/>
<path class="st0" d="M1522.8,336.5l-327.8,402.1V336.5H1522.8 M1523.8,336h-329.3v404L1523.8,336z"/>
<path class="st0" d="M1517,339.2l-319.3,391.7V339.2H1517 M1523.8,336h-329.3v404L1523.8,336L1523.8,336z"/>
<path class="st0" d="M1510.8,342.2l-310.1,380.4V342.2H1510.8 M1511.8,341.7h-311.6v382.2L1511.8,341.7z"/>
<path class="st0" d="M1505.8,344.5L1203,715.9V344.5H1505.8 M1507.7,343.6h-305.7v375L1507.7,343.6z"/>
<path class="st0" d="M1502.2,346.2l-297.5,364.9V346.2H1502.2 M1505.2,344.8h-301.9v370.3L1505.2,344.8L1505.2,344.8z"/>
<path class="st0" d="M1500.2,347.2l-294.5,361.3V347.2H1500.2 M1501.2,346.7h-296v363.1L1501.2,346.7L1501.2,346.7z"/>
<path class="st0" d="M1496.6,348.9l-289.2,354.8V348.9H1496.6 M1498.6,347.9h-292.2v358.4L1498.6,347.9L1498.6,347.9z"/>
<path class="st0" d="M1490.3,351.9l-280,343.4V351.9H1490.3 M1494.3,350h-285.9v350.7L1494.3,350L1494.3,350z"/>
<path class="st0" d="M1484.7,354.5L1213,687.9V354.5H1484.7 M1485.7,354.1h-273.2v335.1L1485.7,354.1z"/>
<path class="st0" d="M1482.4,355.6l-268.4,329.2V355.6H1482.4 M1483.4,355.1h-269.8v331L1483.4,355.1L1483.4,355.1z"/>
<path class="st0" d="M1477.9,357.8l-261.6,320.9V357.8H1477.9 M1480.9,356.4h-266v326.3L1480.9,356.4L1480.9,356.4z"/>
<path class="st0" d="M1468.1,362.4l-247.3,303.3V362.4H1468.1 M1469.1,361.9h-248.7v305.1L1469.1,361.9z"/>
<path class="st0" d="M1457.7,367.4l-231.9,284.5V367.4H1457.7 M1465.7,363.6H1222v298.9L1465.7,363.6L1465.7,363.6z"/>
<path class="st0" d="M1454.3,369l-0.4,0.5L1228,646.6l-0.5,0.6V369H1454.3 M1456.3,368h-229.8v281.8l2.2-2.7l226-277.2L1456.3,368
	L1456.3,368z"/>
<path class="st0" d="M1450.7,370.7l-221.5,271.8V370.7H1450.7 M1453.7,369.3h-226v277.2L1453.7,369.3z"/>
<path class="st0" d="M1440.6,375.5L1234,629V375.5H1440.6 M1448.6,371.7h-218.4v267.9L1448.6,371.7L1448.6,371.7z"/>
<path class="st0" d="M1435.5,377.9l-199.2,244.3V377.9H1435.5 M1436.5,377.4h-200.7v246.1L1436.5,377.4z"/>
<path class="st0" d="M1433,379.1l-195.4,239.7V379.1H1433 M1434,378.6h-196.9v241.5L1434,378.6z"/>
<path class="st0" d="M1420,385.3l-0.2,0.2L1244,601.1l-0.2,0.3V385.3H1420 M1422,384.3h-179.2v219.7l1.9-2.4l175.8-215.6L1422,384.3
	L1422,384.3z"/>
<path class="st0" d="M1418.7,385.9l-174.3,213.8V385.9H1418.7 M1419.7,385.4h-175.8V601L1419.7,385.4L1419.7,385.4z"/>
<path class="st0" d="M1416.1,387.1l-170.5,209.1V387.1H1416.1 M1417.1,386.7h-172v210.9L1417.1,386.7L1417.1,386.7z"/>
<path class="st0" d="M1392.4,398.4l-135.6,166.3V398.4H1392.4 M1405.4,392.2h-154.7V582L1405.4,392.2L1405.4,392.2z"/>
<path class="st0" d="M1392.6,398.3l-1,1.2l-133.6,163.8l-1.3,1.6V398.3H1392.6 M1393.6,397.8h-137.4v168.5l2.2-2.7L1392,399.8
	L1393.6,397.8L1393.6,397.8z"/>
<path class="st0" d="M1387.7,400.6l-128.6,157.7V400.6H1387.7 M1391.1,399h-133.6v163.9L1391.1,399L1391.1,399z"/>
<path class="st0" d="M1384.6,402.1l-124.1,152.2V402.1H1384.6 M1385.6,401.6h-125.6v154L1385.6,401.6L1385.6,401.6z"/>
<path class="st0" d="M1373.2,407.5L1266,539V407.5H1373.2 M1374.2,407h-108.7v133.3L1374.2,407L1374.2,407z"/>
<path class="st0" d="M1366.6,410.6l-97.5,119.7V410.6H1366.6 M1371.6,408.3h-104.9v128.7L1371.6,408.3L1371.6,408.3z"/>
<path class="st0" d="M1353.8,416.7l-78.6,96.4v-96.4H1353.8 M1365.3,411.2h-95.6v117.3L1365.3,411.2L1365.3,411.2z"/>
<path class="st0" d="M1342.1,422.3l-61.3,75.2v-75.2H1342.1 M1351.1,418h-74.6v91.4L1351.1,418L1351.1,418z"/>
<path class="st0" d="M1333.7,426.2l-49,60.1v-60.1H1333.7 M1336.7,424.8h-53.4v65.5L1336.7,424.8z"/>
<path class="st0" d="M1326.4,429.7l-38.3,46.9v-46.9H1326.4 M1328.4,428.7h-41.2v50.5L1328.4,428.7z"/>
<path class="st0" d="M1323.2,431.3l-33.4,41v-41H1323.2 M1324.2,430.8h-34.9v42.8L1324.2,430.8z"/>
<path class="st0" d="M1312.6,436.3l-17.8,21.9v-21.9H1312.6 M1315.6,434.9h-22.2v27.3L1315.6,434.9z"/>
<path class="st0" d="M1303.2,440.7l-4,5v-5H1303.2 M1310.4,437.3h-14.6v17.9L1310.4,437.3z"/>
<polygon class="st0" points="1301.8,441.4 1299.9,441.4 1299.9,443.8 1301.8,441.4 "/>
<path class="st0" d="M798.6,0.5l154.8,334.1L552.5,167.4V0.5H798.6 M798.9,0H552v167.7l402.3,167.7L798.9,0z"/>
<path class="st0" d="M797.1,2.8l151.8,327.4L554.8,165.9V2.8H797.1 M798,1.3H553.3v165.5l398.3,166.1L798,1.3z"/>
<path class="st0" d="M795.9,4.6l149.3,322.1l-388.6-162V4.6H795.9 M796.5,3.6H555.7v161.7l391.4,163.2L796.5,3.6L796.5,3.6z"/>
<path class="st0" d="M793.9,7.8l145,312.8l-379.1-158V7.8H793.9 M794.8,6.4H558.4v157.1l383.4,159.8L794.8,6.4L794.8,6.4z"/>
<path class="st0" d="M791.5,11.6l139.8,301.7L563.6,160V11.6H791.5 M793.1,9h-232v152.7l375.3,156.5C936.4,318.2,793.1,9.1,793.1,9z
	"/>
<path class="st0" d="M790.1,13.8L927,309.2L565.8,158.6V13.8H790.1 M790.4,13.3H565.3v145.6l362.7,151.2L790.4,13.3z"/>
<path class="st0" d="M787,18.5L917.5,300l-347-144.6V18.5H787 M788.7,16H568v141.1l354.6,147.8L788.7,16z"/>
<path class="st0" d="M782.7,25.4L904,287L577.3,150.8V25.4H782.7 M784.3,22.8H574.8v129.8L909,291.9
	C909,291.9,784.3,22.8,784.3,22.8z"/>
<path class="st0" d="M781.8,26.7l119.4,257.6L578.7,149.9V26.7H781.8 M782.1,26.3H578.3v124l323.9,135L782.1,26.3L782.1,26.3z"/>
<path class="st0" d="M777,34.3l109.2,235.7l-299.9-125V34.3H777 M779.9,29.7H581.7v118.2l313.5,130.7L779.9,29.7L779.9,29.7z"/>
<path class="st0" d="M775.4,36.8l105.9,228.5l-292.5-122V36.8H775.4 M775.7,36.3H588.3v107.3l294,122.5L775.7,36.3z"/>
<path class="st0" d="M773.9,39.1l102.8,221.7L591.1,141.7V39.1H773.9 M774.2,38.6H590.6V142l287,119.7L774.2,38.6z"/>
<path class="st0" d="M772.2,41.8l99,213.6L593.8,139.9v-98L772.2,41.8 M772.8,40.9H592.9v99.6L873,257.3L772.8,40.9L772.8,40.9z"/>
<path class="st0" d="M770.4,44.6l95.2,205.5L596.6,138V44.6H770.4 M771.3,43.2H595.2v95.7l273.2,113.9L771.3,43.2L771.3,43.2z"/>
<path class="st0" d="M767.2,49.6l88.5,190.9l-254-105.9v-85L767.2,49.6 M768.1,48.2H600.2v87.4l258.3,107.6L768.1,48.2L768.1,48.2z"
	/>
<path class="st0" d="M765.3,52.6l84.5,182.3L604.6,132.7V52.6H765.3 M766.2,51.2h-163v82.5l249.4,104
	C852.6,237.6,766.2,51.2,766.2,51.2z"/>
<path class="st0" d="M762.4,57.1l78.5,169.3l-231.8-96.6V57.1H762.4 M764.3,54.1H606.1v77.5L846.7,232L764.3,54.1z"/>
<path class="st0" d="M760.5,60L835,220.7l-223-92.9V60H760.5 M762.4,57.1H609.1v72.6l231.7,96.6L762.4,57.1L762.4,57.1z"/>
<path class="st0" d="M754.5,69.5l61.6,133l-194.6-81.1V69.5H754.5 M758,64H616v61l211,88L758,64z"/>
<path class="st0" d="M753.2,71.4l59,127.4l-188.8-78.7V71.4H753.2 M753.5,71H623v49.5l190.3,79.3L753.5,71L753.5,71z"/>
<path class="st0" d="M751.5,74.1l55.4,119.6l-180.8-75.4V74.1H751.5 M751.8,73.7H625.7v45l182.2,76L751.8,73.7L751.8,73.7z"/>
<path class="st0" d="M749.2,77.8l50.5,109l-169.9-70.9V77.8H749.2 M750.1,76.4H628.4v40.5l174.2,72.6L750.1,76.4L750.1,76.4z"/>
<path class="st0" d="M744.5,85.1l40.6,87.7L637.1,111V85.1H744.5 M745.4,83.7H635.7V112L788,175.5L745.4,83.7L745.4,83.7z"/>
<path class="st0" d="M741.6,89.7L776,164l-134.3-56V89.7H741.6 M743.5,86.8H638.8v23.2l143.1,59.7L743.5,86.8z"/>
<path class="st0" d="M735.9,98.7l22.3,48.1L650.7,102v-3.3H735.9 M740.3,91.8h-96.5v14.8L771.9,160L740.3,91.8L740.3,91.8z"/>
<path class="st0" d="M733.3,102.7l16.9,36.4l-87.3-36.4L733.3,102.7 M736.2,98.1h-86v4.2l109,45.5L736.2,98.1z"/>
<path class="st0" d="M731.8,105l13.7,29.6L674.5,105H731.8 M732.1,104.5h-60l74.4,31L732.1,104.5L732.1,104.5z"/>
<path class="st0" d="M728.7,109.8l7.3,15.7l-37.6-15.7L728.7,109.8 M729.6,108.4h-38.3l47.5,19.8
	C738.8,128.2,729.6,108.4,729.6,108.4z"/>
<path class="st0" d="M726.3,113.6l2.1,4.5l-10.8-4.5H726.3 M727.9,111.1h-23.1l28.7,12L727.9,111.1z"/>
<polygon class="st0" points="725.7,114.6 722.1,114.6 726.6,116.4 725.7,114.6 "/>
<path class="st0" d="M1042.8,2.9v329.6h-86.6L803.5,2.9H1042.8 M1045.7,0H798.9l155.5,335.5h91.4V0z"/>
<path class="st0" d="M1041.8,3.9v327.6h-84.9L805,3.9H1041.8 M1042.3,3.5h-238L956.6,332h85.7V3.5z"/>
<path class="st0" d="M1036.3,9.5V326h-75.9L813.7,9.5H1036.3 M1038.8,6.9H809.7l149.1,321.6h80L1038.8,6.9L1038.8,6.9z"/>
<path class="st0" d="M1033.3,12.4V323h-71L818.4,12.4H1033.3 M1035.9,9.9H814.4l146.3,315.7h75.2L1035.9,9.9L1035.9,9.9z"/>
<path class="st0" d="M1032.3,13.4V322h-69.4l-143-308.6L1032.3,13.4 M1032.8,13H819.2l143.5,309.5h70.1V13L1032.8,13z"/>
<path class="st0" d="M1030.2,15.6v304.3h-65.9L823.2,15.6H1030.2 M1030.6,15.1H822.5L964,320.4h66.7L1030.6,15.1L1030.6,15.1z"/>
<path class="st0" d="M1025.4,20.4v294.8h-58L830.8,20.4H1025.4 M1026.8,19H828.5l137.9,297.5h60.4V19z"/>
<path class="st0" d="M1020.3,25.4V310h-49.7L838.7,25.4H1020.3 M1023.7,22H833.4l135.1,291.4h55.3V22L1023.7,22z"/>
<path class="st0" d="M1017.4,28.4v278.8h-44.9L843.2,28.4H1017.4 M1019.3,26.5h-179l131,282.5h48L1019.3,26.5L1019.3,26.5z"/>
<path class="st0" d="M1015.7,30v275.5h-42.2L845.8,30H1015.7 M1016.2,29.5H845.1L973.2,306h43L1016.2,29.5L1016.2,29.5z"/>
<path class="st0" d="M1013.8,31.9v271.6h-39.1L848.9,31.9H1013.8 M1014.3,31.5H848.1L974.5,304h39.8L1014.3,31.5L1014.3,31.5z"/>
<path class="st0" d="M1011.4,34.3v266.8h-35.1L852.6,34.3H1011.4 M1012.4,33.4H851.1l124.5,268.7h36.7
	C1012.4,302.1,1012.4,33.4,1012.4,33.4z"/>
<path class="st0" d="M1006.3,39.4v256.7h-26.8l-119-256.7L1006.3,39.4 M1008.9,36.8H856.6l121.3,261.8h31L1008.9,36.8L1008.9,36.8z"
	/>
<path class="st0" d="M1005,40.8v253.9h-24.6L862.7,40.8H1005 M1005.5,40.3H862l118.1,254.8h25.3L1005.5,40.3L1005.5,40.3z"/>
<path class="st0" d="M1003,42.7v250h-21.4l-115.9-250L1003,42.7 M1003.5,42.3H865l116.3,251h22.2L1003.5,42.3L1003.5,42.3z"/>
<path class="st0" d="M996.5,49.3v237h-10.7L876,49.3H996.5 M997,48.8H875.2l110.3,237.9H997L997,48.8L997,48.8z"/>
<path class="st0" d="M987.7,58v211.6L889.7,58H987.7 M994.6,51.1H878.9L987,284.4h7.7L994.6,51.1L994.6,51.1z"/>
<path class="st0" d="M985.7,60v200.4L892.9,60H985.7 M986.2,59.5h-94l94,202.9V59.5L986.2,59.5z"/>
<path class="st0" d="M983,62.7v185.4L897.1,62.7H983 M983.5,62.3h-87.1l87.1,188L983.5,62.3L983.5,62.3z"/>
<path class="st0" d="M977.9,67.9v156.9L905.2,67.9H977.9 M980.8,65h-80.2l80.2,173V65z"/>
<path class="st0" d="M972.8,72.9V202L913,72.9H972.8 M975.4,70.3H909l66.4,143.2L975.4,70.3L975.4,70.3z"/>
<path class="st0" d="M971.8,73.9v123.6L914.6,73.9H971.8 M972.3,73.4h-58.5l58.5,126.2V73.4z"/>
<path class="st0" d="M966.1,79.7v91.6l-42.5-91.6H966.1 M966.5,79.2h-43.7l43.7,94.2V79.2z"/>
<path class="st0" d="M964.3,81.4v82l-38-82H964.3 M964.8,80.9h-39.2l39.2,84.6L964.8,80.9L964.8,80.9z"/>
<path class="st0" d="M961.2,84.6v64.6l-29.9-64.6H961.2 M963.1,82.7h-34.8l34.8,75L963.1,82.7L963.1,82.7z"/>
<path class="st0" d="M957.7,88v45.4l-21-45.4H957.7 M960,85.8h-26.9l26.9,58V85.8z"/>
<path class="st0" d="M951.9,93.8V107l-6.1-13.2L951.9,93.8 M956.9,88.8H938l19,40.9L956.9,88.8L956.9,88.8z"/>
<path class="st0" d="M950.7,95.1v6.3l-2.9-6.3H950.7 M951.1,94.6H947l4.2,9L951.1,94.6L951.1,94.6z"/>
<polygon class="st0" points="950.2,95.6 948.5,95.6 950.2,99.2 950.2,95.6 "/>
<path class="st0" d="M553.6,170.1l395,164.7l-327,55.6v-56.5h-68V170.1 M552,167.7v167.7h68v56.8l0,0l334.4-56.8L552,167.7z"/>
<path class="st0" d="M555.9,173.6l384.3,160.2l-316.3,53.8v-56.1h-68L555.9,173.6 M555.5,172.9V332h68v56.2L942,334.1L555.5,172.9
	L555.5,172.9z"/>
<path class="st0" d="M566.1,189l337.7,140.7l-269.7,45.8v-54.2h-68L566.1,189 M559.9,179.6v148h68V383l298.2-50.7L559.9,179.6
	L559.9,179.6z"/>
<path class="st0" d="M568.6,192.7l326.3,136l-258.3,43.9v-53.8h-68L568.6,192.7 M567.2,190.6v129.7h68v54l264.8-45L567.2,190.6
	L567.2,190.6z"/>
<path class="st0" d="M571.3,196.7l314,130.9l-246,41.8v-53.3h-68L571.3,196.7 M569.9,194.6v123h68v53.5l252.5-42.9L569.9,194.6
	L569.9,194.6z"/>
<path class="st0" d="M574,200.8l301.7,125.7L642,366.2v-52.8h-68V200.8 M572.6,198.6v116.2h68v53l240.1-40.8L572.6,198.6
	L572.6,198.6z"/>
<path class="st0" d="M575.8,203.4l293.6,122.4l-225.6,38.4v-52.5h-68L575.8,203.4 M575.3,202.7v109.5h68v52.5L871.1,326L575.3,202.7
	L575.3,202.7z"/>
<path class="st0" d="M581.7,212.3l266.5,111.1l-198.5,33.8v-51.4h-68L581.7,212.3 M578.8,207.9v100.8h68v51.9l212-36L578.8,207.9
	L578.8,207.9z"/>
<path class="st0" d="M588.7,222.7l234.7,97.8l-166.7,28.3v-50.1h-68L588.7,222.7 M587.2,220.6v79.6h68v50.3l173.2-29.4L587.2,220.6
	L587.2,220.6z"/>
<path class="st0" d="M590.2,225.1l227.4,94.8L658.2,347v-49.8h-68L590.2,225.1 M589.8,224.4v73.3h68v49.9l161.6-27.5L589.8,224.4
	L589.8,224.4z"/>
<path class="st0" d="M593,229.2l214.9,89.6l-146.9,25v-49.3h-68V229.2 M592.3,228.2v66.9h68v49.4l150-25.5L592.3,228.2L592.3,228.2z
	"/>
<path class="st0" d="M596.3,234.2l199.8,83.3l-131.8,22.4v-48.7h-68L596.3,234.2 M594.9,232v60.6h68v48.9L801.2,318L594.9,232z"/>
<path class="st0" d="M601.1,241.4l177.7,74.1l-109.7,18.6v-47.8h-68L601.1,241.4 M600.6,240.7v46.2h68v47.9l111.9-19L600.6,240.7
	L600.6,240.7z"/>
<path class="st0" d="M605.2,247.6l158.9,66.2l-90.9,15.5v-47h-68L605.2,247.6 M603.3,244.8v39.4h68v47.4l99.6-16.9L603.3,244.8
	L603.3,244.8z"/>
<path class="st0" d="M609.3,253.8l58.4,24.4h-58.4V253.8 M677.3,282.1l72,30l-72,12.2V282.1 M606.8,250v30.7h68v46.7l83.7-14.2
	L606.8,250z"/>
<path class="st0" d="M616,263.8l18.3,7.6H616V263.8 M684,292.1l41.5,17.3l-41.5,7V292.1 M611.5,257v19h45.6L611.5,257z M679.5,285.4
	v36.5l62.2-10.6L679.5,285.4z"/>
<path class="st0" d="M688.7,299.2l20,8.3l-20,3.4V299.2 M616.2,264v7.2h17.4L616.2,264z M684.2,292.3v24l40.8-6.9L684.2,292.3
	L684.2,292.3z"/>
<path class="st0" d="M689.3,300.1l17.1,7.1l-17.1,2.9V300.1 M688.9,299.5v11.3l19.3-3.3L688.9,299.5L688.9,299.5z"/>
<polygon class="st0" points="692.3,304.6 692.3,306.6 695.8,306 692.3,304.6 "/>
<path class="st0" d="M953.9,336v350.6l-332.8-294L953.9,336 M954.3,335.4L620,392.3l0,0l334.3,295.4V335.4L954.3,335.4z"/>
<path class="st0" d="M950.3,340.2v338.5L629,394.9L950.3,340.2 M951.3,339.1l-324.4,55.1l324.4,286.6L951.3,339.1L951.3,339.1z"/>
<path class="st0" d="M945.6,345.8v322.6L639.4,397.9L945.6,345.8 M948.2,342.8l-314.5,53.4L948.2,674V342.8L948.2,342.8z"/>
<path class="st0" d="M943.7,348.1V664L643.8,399.1L943.7,348.1 M945.1,346.4l-304.5,51.8l304.5,269V346.4L945.1,346.4z"/>
<path class="st0" d="M941.5,350.7v308.4L648.7,400.5L941.5,350.7 M942.4,349.6l-295.8,50.3l295.8,261.3L942.4,349.6L942.4,349.6z"/>
<path class="st0" d="M934,359.6v283L665.4,405.2L934,359.6 M937.4,355.6l-279.6,47.5l279.7,247L937.4,355.6L937.4,355.6z"/>
<path class="st0" d="M933.7,360v281.8L666.1,405.5L933.7,360 M934.1,359.4l-269.1,45.7l269.1,237.7L934.1,359.4L934.1,359.4z"/>
<path class="st0" d="M930.2,364.1v270.1L673.8,407.7L930.2,364.1 M930.9,363.3l-258.5,44l258.5,228.4V363.3L930.9,363.3z"/>
<path class="st0" d="M927.5,367.2v260.9L679.8,409.4L927.5,367.2 M928.9,365.6l-252.3,42.9l252.3,222.9V365.6z"/>
<path class="st0" d="M923.1,372.5v245.9L689.6,412.2L923.1,372.5 M926,369l-243,41.3l243,214.6V369L926,369z"/>
<path class="st0" d="M919.7,376.6v234.2L697.4,414.4L919.7,376.6 M922.6,373.1l-231.8,39.4l231.8,204.7L922.6,373.1L922.6,373.1z"/>
<path class="st0" d="M912.3,385.3v209L713.8,419L912.3,385.3 M916.8,379.9l-213.1,36.2l213.1,188.3V379.9L916.8,379.9z"/>
<path class="st0" d="M912.9,384.6v211.1l-200.4-177L912.9,384.6 M913.3,384.1l-201.9,34.3l201.9,178.4V384.1L913.3,384.1z"/>
<path class="st0" d="M909.4,388.7V588L720.2,420.9L909.4,388.7 M909.9,388.1l-190.7,32.4l190.7,168.5V388.1z"/>
<path class="st0" d="M899.5,400.4v165.6L742.3,427.2L899.5,400.4 M906.4,392.2l-179.5,30.5l179.5,158.6V392.2z"/>
<path class="st0" d="M891.3,410.1v137.8L760.5,432.4L891.3,410.1 M897.6,402.7l-150.9,25.7l150.9,133.3L897.6,402.7L897.6,402.7z"/>
<path class="st0" d="M885.8,416.7v118.9l-112.9-99.7L885.8,416.7 M888.7,413.2L766.4,434l122.3,108.1V413.2z"/>
<path class="st0" d="M883.5,419.4v111.2l-105.6-93.3L883.5,419.4 M884.5,418.2l-108.7,18.5l108.7,96V418.2z"/>
<path class="st0" d="M880.5,422.9V524l-96-84.8L880.5,422.9 M881,422.4L783.5,439l97.5,86L881,422.4L881,422.4z"/>
<path class="st0" d="M878.2,425.6v93.2l-88.5-78.2L878.2,425.6 M878.7,425.1l-90,15.3l90,79.5V425.1L878.7,425.1z"/>
<path class="st0" d="M871,434.2v68.6l-65.1-57.5L871,434.2 M871.5,433.7L804.8,445l66.6,58.9L871.5,433.7L871.5,433.7z"/>
<path class="st0" d="M861.1,445.9v34.9L828,451.6L861.1,445.9 M868,437.8l-55.4,9.4l55.4,49V437.8L868,437.8z"/>
<path class="st0" d="M857.1,450.7v21.2l-20.1-17.8L857.1,450.7 M861.6,445.3l-34.8,5.9l34.8,30.8V445.3z"/>
<polygon class="st0" points="853.7,454.7 844.4,456.3 853.7,464.5 853.7,454.7 "/>
<path class="st0" d="M88.3,747.9v328.7H4.8V747.9H88.3 M91.7,744.5H1.4V1080h90.3L91.7,744.5L91.7,744.5z"/>
<path class="st0" d="M85.8,750.4v323.8H7.3V750.4H85.8 M86.3,749.9H6.8v324.7h79.5V749.9L86.3,749.9z"/>
<path class="st0" d="M82.4,753.8v316.8H10.8V753.8H82.4 M82.9,753.4H10.3v317.8h72.6C82.8,1071.2,82.8,753.4,82.9,753.4z"/>
<path class="st0" d="M77.5,758.7v307H15.6v-307H77.5 M79.4,756.8H13.7v310.8h65.6V756.8L79.4,756.8z"/>
<path class="st0" d="M70.7,765.5V1059H22.5V765.5H70.7 M73.6,762.6H19.5v299.3h54.1V762.6z"/>
<path class="st0" d="M66.2,770.1v284.4H27V770.1H66.2 M70.2,766.1H23v292.4h47.1L70.2,766.1L70.2,766.1z"/>
<path class="st0" d="M53.9,782.3v259.9H39.2V782.3H53.9 M62.8,773.4H30.3v277.7h32.5V773.4L62.8,773.4z"/>
<path class="st0" d="M50.7,785.5V1039h-8.3V785.5H50.7 M51.7,784.6H41.5V1040h10.2V784.6z"/>
<path class="st0" d="M46.6,789.6v245.2l0,0V789.6L46.6,789.6 M48.2,788h-3.3v248.5h3.3V788z"/>
<path class="st0" d="M394,392.3h-0.2l0.2,0.2V392.3z"/>
<path class="st0" d="M1.4,0"/>
<path class="st0" d="M492.6,2.6v330.4h-68v56.8h-28.1c-0.3-51.9-10.8-103.3-31.1-151.1c-19.8-46.9-48.6-89.5-84.6-125.5
	c-36-36.1-78.6-64.8-125.5-84.6c-28.9-12.2-59.1-21-90-26L492.6,2.6 M495.2,0H1.6C218.2,0.1,393.8,175.7,394,392.3h33.2v-56.8h68
	L495.2,0L495.2,0z"/>
<path class="st0" d="M490.1,5.1v325.3h-68v56.8H399c-0.5-45.5-8.9-90.6-24.8-133.2c-15.4-41.4-37.7-79.9-65.8-113.9
	c-27.9-33.9-61.2-62.9-98.5-86C173.2,31.4,133,14.8,91,5.1H490.1 M490.5,4.6H86.8c176.6,38.9,309.5,195.6,311.8,383.1h24v-56.8h68
	V4.6z"/>
<path class="st0" d="M484.9,10.3v315h-68v56.8h-12.8C399.7,213.8,287.4,63.5,128.3,10.3H484.9 M487.5,7.7h-376
	C278,55.6,398.1,210,401.6,384.6h17.9v-56.8h68L487.5,7.7L487.5,7.7z"/>
<path class="st0" d="M481.1,14.1v307.3h-68v56.8h-5.3c-1.5-40.3-9-80.1-22.4-118.1c-13.4-38.2-32.4-74.2-56.3-106.8
	c-23.9-32.7-52.4-61.6-84.7-86c-29-21.9-60.7-39.8-94.5-53.2H481.1 M483.5,11.5H136c155.4,55.4,264.5,203.5,269.3,369.2h10.3v-56.8
	h68L483.5,11.5L483.5,11.5z"/>
<path class="st0" d="M474.5,20.6v294.2h-67.4C382.4,188.3,298.6,78,181.1,20.6H474.5 M478.5,16.6H162.9
	c143,62.1,240.8,202.7,247.3,359h0.2v-56.8h68L478.5,16.6L478.5,16.6z"/>
<path class="st0" d="M463.4,31.7v272h-47.3c-6.3-28.9-15.6-57-27.7-83.9c-13.1-29-29.3-56.4-48.5-81.8
	c-19.2-25.5-41.1-48.8-65.4-69.4c-15.9-13.5-32.8-25.9-50.6-36.9L463.4,31.7 M472.3,22.8h-282c113.3,58.4,194,166.4,218.6,289.8
	h63.4L472.3,22.8L472.3,22.8z"/>
<path class="st0" d="M467.9,27.2v281h-55.4c-6.2-29.4-15.5-58.1-27.8-85.5c-12.4-27.5-27.6-53.6-45.5-77.9
	c-17.9-24.3-38.2-46.7-60.8-66.7c-21.8-19.3-45.5-36.4-70.8-50.8L467.9,27.2 M468.9,26.3H204.1c106,59.3,183.1,163.9,207.7,282.9
	h57.1L468.9,26.3L468.9,26.3z"/>
<path class="st0" d="M462.1,33.1v269.3h-44.8c-6.1-27.5-15-54.4-26.5-80.2c-11.7-26.1-25.9-51-42.4-74.4
	c-16.5-23.4-35.3-45.1-56.1-64.8c-19.6-18.6-40.9-35.3-63.6-49.9L462.1,33.1 M463.5,31.6H223.8c97,60.5,168,160.7,192.3,272.1h47.4
	L463.5,31.6L463.5,31.6z"/>
<path class="st0" d="M459,36.1v263.2h-39.4c-12.2-53.6-34.6-104.4-66-149.6c-30.8-44.7-69.8-83.3-114.9-113.7H459 M460,35.2H235.6
	c92.6,61.4,159,157.3,183.3,265.1H460L460,35.2L460,35.2z"/>
<path class="st0" d="M453.6,41.6v252.4H424c-12.2-51.4-33.8-100.1-63.5-143.7c-28.4-42-63.8-78.7-104.6-108.6H453.6 M456.5,38.6
	H246.8c87.7,61.5,150.7,154.3,174.9,258.2h34.9L456.5,38.6L456.5,38.6z"/>
<path class="st0" d="M451.3,43.9v247.7h-25.5c-12-49.5-32.5-96.6-60.7-139C337.5,110.8,302.9,74.1,263,43.9H451.3 M452.7,42.5h-194
	c83.3,61.8,142,150.3,166,250.5h28V42.5z"/>
<path class="st0" d="M443.7,51.5V284h-12c-11.9-46.5-31.3-90.7-57.4-131c-24.6-38.2-54.9-72.4-89.7-101.6H443.7 M447.7,47.5H273.4
	c76.8,60.9,131.3,145.5,155.2,240.6h19.1L447.7,47.5L447.7,47.5z"/>
<path class="st0" d="M440.9,54.3v226.9h-7c-11.7-44.6-30.3-87.1-54.9-126c-23.8-37.7-53-71.7-86.7-100.9H440.9 M443.4,51.7H285.3
	c71.7,60.2,123.4,142,146.6,232.1h11.5L443.4,51.7L443.4,51.7z"/>
<path class="st0" d="M436.8,58.3v218c-11.4-41.7-28.7-81.5-51.3-118.3C362.8,121.1,335,87.5,303,58.3H436.8 M437.3,57.9H301.8
	c64.9,58.7,112.4,135.9,134.9,219.7h0.6V57.9z"/>
<path class="st0" d="M435.2,60v205c-11.7-38.6-28.4-75.6-49.8-109.8c-21.7-35.1-48.1-67.1-78.3-95.2H435.2 M435.7,59.5H305.9
	c61,56.2,106.7,129.8,129.8,208.7V59.5L435.7,59.5z"/>
<path class="st0" d="M426.6,68.6v147c-23.3-54.7-56.6-104.6-98.2-147L426.6,68.6 M430,65.2H320.2C368.4,112.7,405.9,170,430,233.2
	V65.2z"/>
<path class="st0" d="M420.6,74.6v113.8c-20.6-41.5-46.9-79.8-78.3-113.8H420.6 M424.6,70.6h-91.5c38,39.6,69,85.4,91.5,135.5
	L424.6,70.6L424.6,70.6z"/>
<path class="st0" d="M418.2,76.9v101.6c-19.1-36.7-42.8-70.9-70.6-101.6H418.2 M419.2,75.9h-73.7c29.2,32.1,53.9,67.9,73.7,106.5
	V75.9L419.2,75.9z"/>
<path class="st0" d="M408.1,87.1v53.2c-11.6-18.6-24.4-36.4-38.3-53.2H408.1 M412.6,82.5h-52.6c19.8,23,37.4,47.9,52.6,74.2
	L412.6,82.5L412.6,82.5z"/>
<path class="st0" d="M398,97.1v10.1c-2.4-3.4-4.9-6.8-7.4-10.1L398,97.1 M404.9,90.2h-28.4c10.1,12.6,19.6,25.7,28.5,39.3
	L404.9,90.2L404.9,90.2z"/>
<path class="st0" d="M1.9,0.5c52.3,0,104.1,10.4,152.2,30.8c46.5,19.7,88.8,48.2,124.5,84c35.8,35.7,64.3,78,84,124.5
	c20.4,48.1,30.9,99.8,30.9,152H92.2V335H1.9V0.5 M1.6,0H1.4v335.5h90.3v56.8H394C393.8,175.7,218.2,0.1,1.6,0z"/>
<path class="st0" d="M6,4.6c101.3,0.9,198.3,41.7,269.7,113.6c71.8,71.4,112.6,168.2,113.6,269.5h-293v-56.8H6V4.6 M4.1,2.7v330.1
	h90.3v56.8h296.9c-0.5-102.4-41.5-200.5-114.2-272.7C204.8,44.2,106.6,3.1,4.1,2.7z"/>
<path class="st0" d="M8.5,7.2C108.3,8.8,203.6,49.3,274,120c70.7,70.4,111.1,165.5,112.8,265.2h-288v-56.8H8.5V7.2 M7.6,6.2v323.1
	h90.3v56.8h289.9c-1.4-100.3-42-196.1-113.1-266.8C203.8,48.2,108,7.6,7.6,6.2L7.6,6.2z"/>
<path class="st0" d="M15.5,14.4C111,17.7,201.6,57.3,269,124.9c67.6,67.4,107.1,157.9,110.6,253.3H105.8v-56.8H15.5V14.4 M12.6,11.4
	v313h90.3v56.8h279.8C380,284,340,191.5,271.1,122.9C202.4,53.9,109.9,14,12.6,11.4L12.6,11.4z"/>
<path class="st0" d="M23.1,22.3c90.7,5.2,176.4,43.6,240.6,108c64.3,64.1,102.8,149.7,108,240.4H113.4v-56.8H23.1V22.3 M17.6,16.5
	v302.8h90.3v56.8h269.6c-3.9-94.1-43.2-183.3-109.9-249.7C201,59.6,111.7,20.4,17.6,16.5L17.6,16.5z"/>
<path class="st0" d="M27.5,27c88,6.2,170.7,44,233,106.4c62.3,62.3,100.1,144.9,106.4,232.8H117.8v-56.8H27.5V27 M24.1,23.4v289.4
	h90.3v56.8h256.1c-5.5-90-43.8-174.9-107.6-238.6C199.2,67.1,114.2,28.8,24.1,23.4L24.1,23.4z"/>
<path class="st0" d="M28.8,28.4c87.1,6.5,169,44.1,230.8,105.9c61.8,61.7,99.3,143.5,105.9,230.6H119.1v-56.8H28.8V28.4 M27.4,26.9
	v282.6h90.3v56.8H367c-6.2-88-44-170.7-106.4-233C198.2,70.9,115.4,33.1,27.4,26.9z"/>
<path class="st0" d="M30.2,29.9c86.3,6.8,167.3,44.2,228.5,105.4c61.1,61.1,98.5,142,105.4,228.2H120.5v-56.8H30.2V29.9 M29.7,29.4
	v277.8H120V364h244.5c-6.8-86.5-44.2-167.7-105.5-229C197.6,73.6,116.3,36.1,29.7,29.4z"/>
<path class="st0" d="M36,36.2c82.6,8,159.8,44.5,218.5,103.2c58.6,58.6,95.1,135.8,103.2,218.3H126.3v-56.8H36V36.2 M32.6,32.5
	v271.8h90.3v56.8h238.6c-7.3-84.7-44.3-164.1-104.5-224.1C196.8,76.8,117.4,39.8,32.6,32.5L32.6,32.5z"/>
<path class="st0" d="M43.9,45c38.4,4.7,75.8,15.7,110.5,32.6c35.1,17,67,39.8,94.6,67.4c27.5,27.5,50.3,59.5,67.3,94.5
	c16.9,34.7,28,72.1,32.7,110.4H134.1V293H43.9V45 M43.4,44.5v249.1h90.3v56.8h215.8c-9.5-77.8-44.7-150.3-100.2-205.7
	C193.8,89.2,121.3,53.9,43.4,44.5z"/>
<path class="st0" d="M46.8,48.3c75.7,10.1,146.1,44.8,200.2,98.7c53.9,54.1,88.6,124.3,98.7,200H137v-56.9H46.8V48.3 M46.1,47.5
	v243.3h90.3v56.8h210c-10-76.1-44.8-146.8-99-201.1C193,92.3,122.2,57.5,46.1,47.5L46.1,47.5z"/>
<path class="st0" d="M55,57.8c70.4,11.4,135.5,44.7,186,95c50.3,50.5,83.5,115.5,95,185.8H145.3v-56.8H55V57.8 M49.5,51.5v235.9
	h90.3v56.8h202.7C331.9,270.3,297.7,201.9,245,149C192.1,96.2,123.5,62,49.5,51.5L49.5,51.5z"/>
<path class="st0" d="M56.4,59.4c69.6,11.7,133.8,44.7,183.8,94.4c49.7,49.9,82.7,114.1,94.4,183.6H146.6v-56.8H56.4V59.4 M54.9,57.7
	V282h90.3v56.8h191c-11.4-70.4-44.7-135.5-95-186C190.6,102.4,125.5,69.1,54.9,57.7z"/>
<path class="st0" d="M59.1,62.7c67.8,12.1,130.2,44.6,179,93.1c48.5,48.8,80.9,111.1,93,178.8H149.4v-56.8H59.1V62.7 M57.2,60.5
	v219.1h90.3v56.8h185.9c-11.9-68.9-44.7-132.5-94-182C189.9,105.1,126.2,72.3,57.2,60.5L57.2,60.5z"/>
<path class="st0" d="M64.4,69.1c64.3,12.8,123.5,44.2,170,90.5c46.2,46.5,77.6,105.5,90.4,169.8H154.7v-56.8H64.4V69.1 M61.5,65.5
	v209.9h90.3v56.8h176.6C316,266.1,284,205.2,236.5,157.4C188.7,109.9,127.8,77.9,61.5,65.5L61.5,65.5z"/>
<path class="st0" d="M75.8,83.2c56.5,13.8,109.7,43.5,150.5,84.3s70.5,93.9,84.3,150.3H166.1v-56.8H75.8V83.2 M70.3,76.3v190.2h90.3
	v56.8h157c-13.4-60.4-43.7-115.8-87.3-159.7C186.3,120,130.9,89.7,70.3,76.3z"/>
<path class="st0" d="M79.7,88.2c54,14.1,104.9,43.1,143.9,82.1s68,89.8,82.1,143.7H170v-56.8H79.7V88.2 M75.2,82.4v179.4h90.3v56.8
	h146.1c-13.7-56.8-43.6-110.4-84.7-151.5S132.1,96.1,75.2,82.4z"/>
<path class="st0" d="M82.6,91.9c26.1,7.1,51.1,17.6,74.5,31.1c23.6,13.5,45.3,30.1,64.6,49.3c19.2,19.2,35.7,40.9,49.2,64.5
	c13.5,23.4,24,48.4,31.1,74.4H172.8v-56.8H82.6V91.9 M81.9,91.1V255h90.3v56.9h130.7c-14.2-52.5-42.6-101.8-80.8-140
	S134.5,105.3,81.9,91.1L81.9,91.1z"/>
<path class="st0" d="M84.9,95c50.5,14.4,98.5,42.4,135.1,79s64.6,84.4,79,134.9H175.1V252H84.9V95 M84.2,94.1v158.6h90.3v56.8h125.3
	c-14.4-50.9-42.5-99.1-79.4-136S135.2,108.4,84.2,94.1L84.2,94.1z"/>
<path class="st0" d="M87,97.8c49.2,14.5,95.8,42,131.5,77.7s63.1,82.2,77.6,131.3H177.2v-56.8H87V97.8 M85.4,95.6v155.9h90.3v56.8
	h122.6c-14.4-50.2-42.2-97.6-78.6-134S135.6,110.1,85.4,95.6L85.4,95.6z"/>
<path class="st0" d="M92.6,105.4c45.6,14.7,88.8,40.9,121.9,74s59.3,76.2,74,121.7H182.9v-56.8H92.6V105.4 M90.1,101.9v144.9h90.3
	v56.8H292c-14.6-47.2-41.4-91.7-75.7-126S137.3,116.6,90.1,101.9L90.1,101.9z"/>
<path class="st0" d="M101.7,118.1c39.8,14.8,77.3,38.6,106.4,67.7s52.9,66.5,67.6,106.2h-83.8v-56.8h-90.3V118.1 M94.8,108.4v133.8
	H185V299h100.5c-14.8-44.1-40.4-85.9-72.5-118S139,123.2,94.8,108.4L94.8,108.4z"/>
<path class="st0" d="M107.8,127.1c35.8,14.6,69.7,36.8,96,63.1s48.4,60,63,95.8h-68.7v-56.8h-90.3V127.1 M103.2,120.4v113.3h90.3
	v56.8h80c-14.8-38.7-38.1-75.2-66.5-103.5S142,135.2,103.2,120.4L103.2,120.4z"/>
<path class="st0" d="M116.9,140.9c30.3,14.1,58.1,33.3,80.5,55.7s41.5,50,55.6,80.3h-45.8V220h-90.3V140.9 M114.3,136.9v85.6h90.3
	v56.8h52.3c-14.2-31.6-34.3-61.2-57.7-84.6S146,151.2,114.3,136.9L114.3,136.9z"/>
<path class="st0" d="M120.8,147.2c27.3,13.3,52.2,30.9,73.8,52.2c5.3,5.3,10.4,10.9,15.2,16.7h-89L120.8,147.2 M211.1,217.6
	c13.9,17,25.9,35.6,35.6,55.3h-35.6L211.1,217.6 M119.9,145.7V217h90.3v56.8h38c-13.4-27.8-31.3-53.2-53-75.2
	C173.1,176.9,147.7,159,119.9,145.7L119.9,145.7z"/>
<path class="st0" d="M128.6,160.1c22.1,12.1,42.4,27.2,60.4,44.8c1.1,1.1,2.2,2.2,3.3,3.3h-63.6V160.1 M218.9,241.1
	c5.3,7.7,10.3,15.8,14.8,24h-14.8V241.1 M124.7,153.4v58.8h76.7c-3.1-3.5-6.3-6.9-9.5-10.1C172,182.5,149.4,166.1,124.7,153.4z
	 M215,228.8v40.3h25.4C233.1,254.9,224.6,241.5,215,228.8z"/>
<path class="st0" d="M136,172.8c13.5,8.2,26.2,17.6,38,28h-38V172.8 M129.1,160.8v47h62.1c-0.8-0.9-1.7-1.7-2.5-2.5
	C171,187.8,150.9,172.8,129.1,160.8L129.1,160.8z M219.4,242.5v22.1H233C228.8,257,224.2,249.6,219.4,242.5L219.4,242.5z"/>
<path class="st0" d="M140.2,180.5c7.7,5,15.1,10.4,22.3,16.2h-22.3V180.5 M138.3,177v21.5h29.4C158.5,190.7,148.6,183.5,138.3,177z"
	/>
<path class="st0" d="M619,393.3v293.5H427.5L94.2,393.3H619 M620,392.3H91.7l335.5,295.4H620L620,392.3L620,392.3z"/>
<path class="st0" d="M614.2,398.1v283.9H429.3L106.9,398.1H614.2 M616.1,396.2H101.9l326.7,287.7h187.5V396.2L616.1,396.2z"/>
<path class="st0" d="M613.4,399v282.1H429.7L109.3,399H613.4 M614,398.3H107.5l321.9,283.4H614L614,398.3L614,398.3z"/>
<path class="st0" d="M608.4,403.9v272.1H431.6L122.5,403.9H608.4 M609.8,402.5H118.7l312.3,275h178.8V402.5L609.8,402.5z"/>
<path class="st0" d="M605.3,407v266H432.7L130.6,407H605.3 M606.7,405.6H126.9l305.3,268.8h174.5L606.7,405.6L606.7,405.6z"/>
<path class="st0" d="M601.1,411.2v257.5H434.3L141.8,411.2H601.1 M603.6,408.7H135.1l298.3,262.6h170.3V408.7z"/>
<path class="st0" d="M598,414.3v251.4H435.5L150,414.3H598 M600.6,411.8H143.2l291.3,256.5h166L600.6,411.8L600.6,411.8z"/>
<path class="st0" d="M592.2,420.1v239.8H437.7L165.3,420.1H592.2 M594.8,417.5H158.5l278.2,244.9h158.1L594.8,417.5L594.8,417.5z"/>
<path class="st0" d="M588.5,423.8v232.4H439L175,423.8L588.5,423.8 M589,423.3H173.8l265.1,233.4H589V423.3L589,423.3z"/>
<path class="st0" d="M583.4,428.9v222.2H441L188.6,428.9H583.4 M584.4,427.9H186.1l254.6,224.1h143.8L584.4,427.9L584.4,427.9z"/>
<path class="st0" d="M581.1,431.2v217.6H441.9L194.7,431.2H581.1 M582.1,430.2h-390l249.3,219.5h140.6L582.1,430.2L582.1,430.2z"/>
<path class="st0" d="M576.8,435.5v209H443.5l-237.4-209H576.8 M579.8,432.5H198.3l244.1,214.9h137.4V432.5z"/>
<path class="st0" d="M573.4,439v202.1H444.8L215.2,439H573.4 M576.3,436.1H207.5l236.2,208h132.6V436.1L576.3,436.1z"/>
<path class="st0" d="M564.4,447.9v184.2H448.1L238.9,447.9H564.4 M569,443.3H226.9l219.6,193.3H569L569,443.3L569,443.3z"/>
<path class="st0" d="M553.2,459.2v161.7H452.4L268.8,459.2H553.2 M562,450.3H245.2L449,629.7h113L562,450.3L562,450.3z"/>
<path class="st0" d="M547.9,464.4v151.3h-93.6L282.6,464.4H547.9 M550.5,461.8H275.8l177.6,156.4h97.1V461.8z"/>
<path class="st0" d="M546.9,465.4v149.3h-92.2L285.2,465.4H546.9 M547.4,464.9H284l170.6,150.2h92.8L547.4,464.9L547.4,464.9z"/>
<path class="st0" d="M543.9,468.5v143.1h-87.9L293.4,468.5H543.9 M544.3,468H292.1l163.6,144h88.6V468L544.3,468z"/>
<path class="st0" d="M537.1,475.2v129.7h-78.7L311.2,475.2H537.1 M538.6,473.8H307.4l150.5,132.5h80.6L538.6,473.8L538.6,473.8z"/>
<path class="st0" d="M534.4,477.9v124.3h-75L318.3,477.9H534.4 M535.9,476.4H314.6l144.4,127.1h76.9V476.4L535.9,476.4z"/>
<path class="st0" d="M529.8,482.5v115h-68.6l-130.6-115H529.8 M531.2,481.1H326.8l133.9,117.9h70.6V481.1L531.2,481.1z"/>
<path class="st0" d="M522.5,489.8v100.4H464L349.9,489.8H522.5 M525.5,486.8H342.1l120.8,106.3h62.6L525.5,486.8L525.5,486.8z"/>
<path class="st0" d="M519.1,493.2v93.5h-53.8l-106.2-93.5H519.1 M522,490.3H351.3l112.9,99.4H522L522,490.3L522,490.3z"/>
<path class="st0" d="M513,499.3v81.4h-45.4l-92.5-81.4L513,499.3 M517,495.3H364.5l101.5,89.4H517V495.3L517,495.3z"/>
<path class="st0" d="M508,504.3v71.4h-38.5l-81.1-71.4L508,504.3 M512,500.3H377.8l90.2,79.4h44V500.3L512,500.3z"/>
<path class="st0" d="M501.7,510.6v58.9h-29.9L405,510.6H501.7 M504.7,507.6H397.2l73.5,64.7h34V507.6z"/>
<path class="st0" d="M498.8,513.5v53h-25.9l-60.2-53H498.8 M499.3,513h-87.8l61.3,54h26.5V513L499.3,513z"/>
<path class="st0" d="M489.8,522.5v34.9h-13.5l-39.7-34.9H489.8 M491.2,521.1h-58.3l42.9,37.8h15.4V521.1L491.2,521.1z"/>
<path class="st0" d="M486.3,526v28h-8.7l-31.8-28H486.3 M487.7,524.6h-45.7l35,30.8h10.6L487.7,524.6L487.7,524.6z"/>
<path class="st0" d="M477.4,534.9v7.1l-8-7.1L477.4,534.9 M482,530.4h-24.6l21.9,19.3h2.7L482,530.4L482,530.4z"/>
<polygon class="st0" points="477.3,535 469.6,535 477.3,541.8 477.3,535 "/>
<path class="st0" d="M93.2,394.2l333.5,293.7V745h68v334.5h-67.2L93.2,394.2 M91.7,392.3L427.2,1080h68V744.5h-68v-56.8
	C427.2,687.7,91.7,392.3,91.7,392.3z"/>
<path class="st0" d="M112.9,420.2l307.4,270.6v60.6h68v321.7h-56.8L112.9,420.2 M102.4,406.3l326.9,670.2h62.4V748h-68v-58.8
	L102.4,406.3L102.4,406.3z"/>
<path class="st0" d="M117.5,426.2l301.3,265.3v61.4h68v318.8h-54.4L117.5,426.2 M113.1,420.4l318.4,652.7h56.7V751.5h-68v-60.6
	L113.1,420.4z"/>
<path class="st0" d="M129.3,441.6L415,693.2v63.5h68v311.1h-48.2L129.3,441.6 M120.3,429.8l312.7,641h53v-317h-68v-61.9
	C418,691.9,120.2,429.8,120.3,429.8z"/>
<path class="st0" d="M158.1,479.4l247.6,218V766h68v292.5h-33.1L158.1,479.4 M144.1,461l293.7,602.1h40.5V761.5h-68v-66.1L144.1,461
	L144.1,461z"/>
<path class="st0" d="M162.8,485.5l241.4,212.6v69.5h68V1057h-30.6L162.8,485.5 M160.7,482.8l280.4,574.8h31.7V766.9h-68v-69.1
	L160.7,482.8L160.7,482.8z"/>
<path class="st0" d="M193.8,526.2l200.4,176.4v75h68V1047h-14.3L193.8,526.2 M179.8,507.8L445,1051.5h21.7V773h-68v-72.4
	L179.8,507.8L179.8,507.8z"/>
<path class="st0" d="M199.6,533.8l192.7,169.6v76h68v265.6H449L199.6,533.8 M195.2,528.1l252.9,518.4h13.5V778h-68v-75.2
	L195.2,528.1z"/>
<path class="st0" d="M222.9,564.5l161.8,142.4V787h68v248.4L222.9,564.5 M210.7,548.4l240.6,493.1h5.4V783h-68v-77.9L210.7,548.4
	L210.7,548.4z"/>
<path class="st0" d="M244.9,593.2l132.8,116.9v84h68v210.6L244.9,593.2 M237,582.8l211.2,432.9V791.5h-68v-82.6L237,582.8z"/>
<path class="st0" d="M261.5,615l110.8,97.5v87h68v182L261.5,615 M247.5,596.6l197.3,404.5V794.9h-68v-84.5L247.5,596.6L247.5,596.6z
	"/>
<path class="st0" d="M287.2,648.8l76.7,67.5V806L287.2,648.8 M431.9,807.8v137.6l-67.1-137.5L431.9,807.8 M265.9,620.8l172.9,354.5
	V800.9h-68v-87.7L265.9,620.8L265.9,620.8z"/>
<path class="st0" d="M287.2,648.8l76.7,67.5v89.7L287.2,648.8 M431.9,807.8v137.5l-67.1-137.5L431.9,807.8 M284.3,645l148.5,304.4
	V806.9h-68v-91L284.3,645z"/>
<path class="st0" d="M302.9,669.3l55.9,49.2V784L302.9,669.3 M426.8,812.9v110.5l-53.9-110.5H426.8 M295,659l66.4,136v-77.6L295,659
	z M429.4,810.3h-60.5l60.5,124.1V810.3z"/>
<path class="st0" d="M317.7,688.7l36.4,32v42.5L317.7,688.7 M422,817.7v85l-41.4-85H422 M314.8,684.9l40.2,82.5v-47L314.8,684.9
	L314.8,684.9z M423,816.7h-43.9l43.9,90L423,816.7L423,816.7z"/>
<path class="st0" d="M326,699.7l25.3,22.3v29.6L326,699.7 M419.3,820.4v70.6l-34.4-70.6H419.3 M323.1,695.8l29.2,59.9v-34.1
	L323.1,695.8L323.1,695.8z M420.3,819.4h-36.9l36.9,75.6V819.4z"/>
<path class="st0" d="M343.7,722.8l1.9,1.7v2.3L343.7,722.8 M413.6,826.1v40.1l-19.5-40.1H413.6 M331.4,706.7l18.2,37.3v-21.3
	L331.4,706.7z M417.6,822.1h-29.9l29.9,61.3V822.1z"/>
<polygon class="st0" points="412.6,827.1 395.7,827.1 412.6,861.7 412.6,827.1 "/>
<path class="st0" d="M92.2,394.4l334.2,685.2H92.2V394.4 M91.7,392.3V1080h335.5L91.7,392.3z"/>
<path class="st0" d="M97.2,416.2l321.1,658.2H97.2V416.2 M93.8,401.5v676.4h330C423.8,1077.9,93.8,401.5,93.8,401.5z"/>
<path class="st0" d="M101.6,435l309.8,635.1H101.6V435 M98.6,422.3V1073h317.4L98.6,422.3L98.6,422.3z"/>
<path class="st0" d="M103.9,445.1l303.8,622.7H103.9V445.1 M103,441v627.8h306.2L103,441z"/>
<path class="st0" d="M108.5,464.9l291.9,598.3H108.5V464.9 M105.9,453.9v611.9h298.5L105.9,453.9z"/>
<path class="st0" d="M112.8,483.6l280.7,575.3H112.8V483.6 M109.4,468.9v593.5h289.5L109.4,468.9z"/>
<path class="st0" d="M119.2,511.3l264,541.2h-264L119.2,511.3 M115.8,496.5v559.4h272.9L115.8,496.5L115.8,496.5z"/>
<path class="st0" d="M120.7,517.8L380.8,1051H120.7V517.8 M120,514.9v536.8h261.9L120,514.9z"/>
<path class="st0" d="M123.6,530.6l252.4,517.5H123.6V530.6 M123,527.7v521h254.2L123,527.7L123,527.7z"/>
<path class="st0" d="M135.6,582.4l221.3,453.7H135.6V582.4 M129.4,555.4v486.9h237.6L129.4,555.4L129.4,555.4z"/>
<path class="st0" d="M133.5,573.2l226.9,465H133.5V573.2 M132.1,567.1v472.6h230.5L132.1,567.1L132.1,567.1z"/>
<path class="st0" d="M137.7,591.4L353.6,1034H137.7V591.4 M134.8,578.7V1037h223.5L134.8,578.7z"/>
<path class="st0" d="M144.2,619.8l198.9,407.7H144.2V619.8 M141.3,607.1v423.3h206.5L141.3,607.1L141.3,607.1z"/>
<path class="st0" d="M150.4,646.6l182.8,374.7H150.4V646.6 M149,640.4v382.3h186.5L149,640.4z"/>
<path class="st0" d="M158,679.2l163.2,334.5H158V679.2 M152.5,655.4v363.8h177.4L152.5,655.4L152.5,655.4z"/>
<path class="st0" d="M166.3,715.5l141.4,289.8H166.3V715.5 M159.4,685.6v326.6h159.3L159.4,685.6z"/>
<path class="st0" d="M170.8,735l129.7,265.8H170.8V735 M170.2,732.1v269.4h131.4L170.2,732.1L170.2,732.1z"/>
<path class="st0" d="M175.1,753.7l118.5,242.9H175.1V753.7 M173.2,745.5v253h123.4L173.2,745.5z"/>
<path class="st0" d="M179.3,771.5L287,992.4H179.3V771.5 M176.3,758.8v236.5h115.4L176.3,758.8z"/>
<path class="st0" d="M185.3,797.7l92,188.7h-92V797.7 M181.3,780.5v209.9h102.4L181.3,780.5L181.3,780.5z"/>
<path class="st0" d="M186.5,803l88.9,182.2h-88.9L186.5,803 M185.6,798.9v187.2h91.4L185.6,798.9L185.6,798.9z"/>
<path class="st0" d="M194.2,836.3l68.9,141.2h-68.9V836.3 M193.3,832.2v146.2h71.3L193.3,832.2z"/>
<path class="st0" d="M203.6,877.1l44.4,90.9h-44.4V877.1 M196.7,847.2V975h62.3L196.7,847.2L196.7,847.2z"/>
<path class="st0" d="M207.1,892.1l35.4,72.5h-35.4V892.1 M200.2,862.2v109.3h53.3L200.2,862.2z"/>
<path class="st0" d="M210.5,906.6l26.7,54.7h-26.7V906.6 M207.5,893.9v70.3h34.3L207.5,893.9L207.5,893.9z"/>
<path class="st0" d="M216.3,931.7l11.6,23.7h-11.6V931.7 M214.8,925.6v31.3h15.3L214.8,925.6L214.8,925.6z"/>
<polygon class="st0" points="218.7,942.2 218.7,953 223.9,953 218.7,942.2 "/>
<path class="st0" d="M953.9,688.6V745h91.4v334.5h-90.5c0-88.3-34.9-172.9-96.9-235.7c-11.5-11.6-23.8-22.4-36.8-32.3
	C858.2,763.4,903.1,721.8,953.9,688.6 M954.3,687.7c-51.3,33.5-96.6,75.4-134,123.9c84.3,63.5,133.9,162.9,134,268.4h91.4V744.5
	h-91.4V687.7L954.3,687.7z"/>
<path class="st0" d="M947.7,700.2v51h91.4v322.1H961c-1.5-87.7-36.9-171.5-98.7-233.8c-10.2-10.4-21.1-20.1-32.5-29.1
	C863.4,768,903.1,730.8,947.7,700.2 M951.7,692.7C903.1,725,860.1,765,824.2,811.1c12.5,9.6,24.3,20,35.3,31.2
	c62,62.5,97,146.9,97.6,235h86V747.2h-91.4L951.7,692.7L951.7,692.7z"/>
<path class="st0" d="M945.5,704.3v49.1h91.4v317.9H963c-2.1-87.5-37.6-171-99.2-233.2c-9.8-9.9-20.1-19.2-31-27.9
	C865.1,769.6,903.1,733.9,945.5,704.3 M947,701.6c-43.9,30.3-83.1,66.9-116.2,108.7c11.2,8.9,21.9,18.5,32,28.7
	c61.7,62.3,97.1,145.9,98.8,233.6h76.7V751.9H947V701.6L947,701.6z"/>
<path class="st0" d="M939.5,716v43.4h91.4v305.8h-62c-3.6-87-39.5-169.5-100.8-231.4c-8.5-8.6-17.5-16.8-26.9-24.6
	C869.9,774.1,902.9,742.7,939.5,716 M943.5,708.2c-40.5,28.7-76.8,62.8-107.9,101.5c10.4,8.4,20.3,17.3,29.6,26.8
	c61.5,62.1,97.1,145.2,99.7,232.6h69.8V755.4h-91.3L943.5,708.2L943.5,708.2z"/>
<path class="st0" d="M935.4,724.1v39.3h91.4v297.7h-54.1C968.2,974.5,932,892.6,871,830.9c-7.6-7.7-15.7-15.2-24-22.2
	C873.1,777.1,902.8,748.7,935.4,724.1 M937.4,720.3c-34.5,25.6-65.7,55.4-93,88.6c8.8,7.4,17.3,15.2,25.4,23.3
	c61.1,61.8,97.2,144,101.3,230.8h57.8V761.5h-91.4L937.4,720.3L937.4,720.3z"/>
<path class="st0" d="M932.4,730.3v36.2h91.4V1058h-48.1c-5.3-86.3-41.7-167.8-102.5-229.3c-7-7-14.3-13.9-21.9-20.5
	C875.4,779.5,902.6,753.3,932.4,730.3 M934.2,726.5c-31.5,24-60.2,51.5-85.6,82c8,6.8,15.9,14.1,23.2,21.6
	c60.9,61.6,97.2,143.4,102,229.8h51.8V764.6h-91.4V726.5L934.2,726.5z"/>
<path class="st0" d="M930.2,734.7v34h91.4v287.2h-43.9c-5.8-86.1-42.3-167.3-102.9-228.7c-6.5-6.6-13.4-13-20.5-19.2
	C877.1,781.1,902.5,756.5,930.2,734.7 M931.2,732.7c-28.6,22.4-54.8,47.7-78.2,75.4c7.3,6.3,14.4,13,21.1,19.8
	c60.7,61.4,97.2,142.7,102.7,228.9h45.8V767.7h-91.4L931.2,732.7L931.2,732.7z"/>
<path class="st0" d="M923.9,747.9v27.1h91.4v274.6h-31.8c-7.2-85.5-44.1-165.7-104.3-226.8c-5.2-5.3-10.6-10.4-16.1-15.4
	C881.7,785.9,902.1,766,923.9,747.9 M928.1,739.1c-25.7,20.6-49.4,43.6-70.8,68.7c6.5,5.8,12.9,11.8,19,17.9
	c60.5,61.3,97.2,142.1,103.4,228h39.8v-283h-91.4V739.1z"/>
<path class="st0" d="M920.2,756v22.7h91.4v267.1H987c-8-85.1-45.1-164.8-105.1-225.7c-4.4-4.4-8.9-8.8-13.5-13
	C884.4,788.9,901.7,771.8,920.2,756 M923.1,749.7c-21.1,17.6-40.8,36.9-58.8,57.7c5.3,4.8,10.6,9.8,15.5,14.9
	c60.2,61,97.2,141.1,104.5,226.5h30.2v-273h-91.4L923.1,749.7L923.1,749.7z"/>
<path class="st0" d="M914.7,768v16.2h91.4v256.2h-14.2c-9.1-84.5-46.5-163.4-106.1-224c-3.2-3.2-6.5-6.5-9.8-9.6
	C888.2,793.2,901.1,780.2,914.7,768 M915.4,766.5c-14.2,12.7-27.7,26.1-40.4,40.3c3.5,3.3,6.9,6.6,10.3,10
	c59.7,60.6,97.1,139.6,106,224.2h15.5V783.5h-91.4L915.4,766.5L915.4,766.5z"/>
<path class="st0" d="M910.2,778.4v10.3h91.4v247.1H996c-10-84-47.6-162.4-107-222.7c-2.2-2.2-4.4-4.4-6.7-6.6
	C891.2,796.8,900.5,787.4,910.2,778.4 M912.7,772.5c-11.8,10.8-23.2,22.3-33.9,34.1c2.9,2.7,5.7,5.5,8.4,8.3
	c59.5,60.5,97,139.1,106.5,223.4h10.4V786.2h-91.4L912.7,772.5L912.7,772.5z"/>
<path class="st0" d="M993.4,796.9v182.3c-17.5-64.8-51.5-124-98.5-171.8l-1.1-1.1c3-3.1,6-6.3,9.1-9.4H993.4 M906.5,786.8
	c-6.6,6.4-12.9,12.9-19.1,19.6c1.4,1.4,2.8,2.8,4.2,4.2c56.9,57.8,94.1,132.1,106.3,212.4V792.3h-91.4V786.8z"/>
<path class="st0" d="M990.5,799.8v159.8c-7.8-23.8-17.8-46.9-29.9-68.8c-17-30.9-38.2-59.3-62.8-84.5c2.1-2.2,4.1-4.3,6.3-6.4
	L990.5,799.8 M903.5,794.2c-4,4-7.9,8-11.8,12.1l2.1,2.1c49.6,50.6,84.5,113.7,101,182.6V795.4h-91.4L903.5,794.2L903.5,794.2z"/>
<path class="st0" d="M988.4,801.8V947c-18.9-52.6-48.9-100.7-87.8-140.8c1.4-1.4,2.8-2.9,4.2-4.3L988.4,801.8 M989.8,800.4h-85.6
	c-1.9,1.9-3.8,3.8-5.6,5.8c41.2,42.3,72.4,93.2,91.2,149.2L989.8,800.4L989.8,800.4z"/>
<path class="st0" d="M985,805.3v123.2c-18.8-45.3-45.8-86.7-79.5-122.3l0.9-0.9H985 M986.4,803.9h-80.7c-0.8,0.8-1.5,1.5-2.2,2.3
	c35.8,37.4,63.9,81.4,82.9,129.6L986.4,803.9L986.4,803.9z"/>
<path class="st0" d="M980.9,809.4v100c-17.2-36.5-39.8-70.2-67-100H980.9 M981.4,808.9h-68.5c27.9,30.5,51,65.1,68.5,102.6V808.9z"
	/>
<path class="st0" d="M973.1,817.2v60.4c-12.2-21.3-26.2-41.5-42-60.4H973.1 M974,816.2h-45c17.1,20.1,32.1,41.9,45,64.9V816.2z"/>
<path class="st0" d="M970.8,819.5V869c-10.4-17.3-22-33.9-34.8-49.5H970.8 M971.7,818.5H934c14,16.9,26.6,35,37.7,53.9L971.7,818.5
	L971.7,818.5z"/>
<path class="st0" d="M960.3,830v4c-1-1.3-1.9-2.6-2.9-4H960.3 M966.7,823.6h-22.3c7.9,10,15.3,20.5,22.3,31.3V823.6L966.7,823.6z"/>
<path class="st0" d="M620,745.5c71.8-0.1,141.7,23.2,199.1,66.3c-59.6,77.6-97,170-108.2,267.3H553V745.5H620 M620,744.5h-68V1080
	h159.7c11-97.7,48.6-190.6,108.7-268.4C762.7,768,692.3,744.5,620,744.5L620,744.5z"/>
<path class="st0" d="M620,747.1c70.9-0.2,139.9,22.6,196.7,65c-58.9,77.2-96,168.8-107.3,265.3H554.6V747.1H620 M620,746.7h-65.8
	v331.2h155.6c11.3-96.7,48.5-188.5,107.6-265.9C760.4,769.4,691.1,746.5,620,746.7L620,746.7z"/>
<path class="st0" d="M620,751.3c68.5-0.1,135.3,21.5,190.8,61.7c-57.1,76.1-93.4,165.8-105.2,260.2H558.8V751.3H620 M620,749.1
	h-63.4v326.2h151c11.6-95.5,48.2-186.2,106.3-262.8C757.7,771.2,689.8,749,620,749.1z"/>
<path class="st0" d="M620,753.6c67.2-0.1,132.8,20.8,187.5,59.9c-56.1,75.5-91.9,164.1-103.9,257.4H561.1V753.6H620 M620,752.2
	h-60.3v320.1h145.2c11.8-94,47.9-183.3,104.7-259.1C754.4,773.4,688,752,620,752.2L620,752.2z"/>
<path class="st0" d="M620,755.4c66.3-0.1,130.9,20.3,185.1,58.5c-55.4,75-90.8,162.8-103,255.2H562.9V755.4H620 M620,754.9h-57.6
	v314.7h140.1c12.1-92.7,47.7-180.7,103.2-255.8C751.4,775.4,686.5,754.8,620,754.9L620,754.9z"/>
<path class="st0" d="M620,758c64.8-0.1,128.1,19.6,181.4,56.5c-54.2,74.3-89.2,160.9-101.6,252H565.5V758H620 M620,757h-55.5v310.4
	h136.1c12.3-91.6,47.4-178.6,102.1-253.1C749.1,776.9,685.3,756.9,620,757L620,757z"/>
<path class="st0" d="M620,763.3c61.9-0.1,122.4,18.2,173.9,52.5c-52,72.8-85.9,156.9-98.7,245.5H570.8v-298L620,763.3 M620,761.8
	h-50.7v300.8h127.1c12.7-89.2,46.9-174.1,99.5-247.2C744,780.4,682.7,761.7,620,761.8L620,761.8z"/>
<path class="st0" d="M620,767.4c59.7-0.1,118.1,17.1,168.1,49.5c-50.3,71.5-83.3,153.8-96.5,240.3H574.8V767.4H620 M620,764.8h-47.7
	v294.9h121.6c12.9-87.8,46.5-171.2,97.9-243.5C740.8,782.6,681.1,764.7,620,764.8z"/>
<path class="st0" d="M620,776.2c54.9-0.1,108.7,14.9,155.7,43.3c-46.7,68.8-77.9,146.9-91.5,228.9H583.6V776.2H620 M620,768.4h-44.1
	v287.7h114.9c13.2-86,46-167.7,95.9-238.9C737,785.3,679.1,768.3,620,768.4z"/>
<path class="st0" d="M620,775.6c55.2,0,109.3,15.1,156.4,43.7c-46.9,69-78.2,147.3-91.8,229.6H583.1V775.6H620 M620,775h-37.6v274.6
	h102.8c13.5-82.6,45-161.3,92.2-230.5C730,790.2,675.5,774.9,620,775L620,775z"/>
<path class="st0" d="M620,780.3c52.6,0,104.3,14,149.8,40.5c-45,67.4-75.3,143.6-89.1,223.4h-92.9V780.3H620 M620,778.4h-34.1v267.7
	h96.4c13.7-80.9,44.5-157.9,90.2-225.9C726.3,792.8,673.7,778.4,620,778.4z"/>
<path class="st0" d="M620,782.3c51.5,0,102.2,13.5,146.9,39.1c-44.1,66.8-74.1,141.9-87.9,220.7h-89.1V782.3H620 M620,781.9h-30.7
	v260.8h90c13.8-79.1,43.9-154.4,88.2-221.3C722.7,795.4,671.8,781.8,620,781.9z"/>
<path class="st0" d="M620,788.3c48.4,0,95.9,12.1,138.4,35.2c-41.7,64.7-70.4,137-84.4,212.7h-78.2v-248L620,788.3 M620,785.7h-26.8
	v253.1h82.9c14-77.1,43.2-150.6,86-216.2C718.6,798.4,669.7,785.7,620,785.7L620,785.7z"/>
<path class="st0" d="M620,791.1c46.9,0,93,11.5,134.4,33.5c-40.6,63.7-68.7,134.6-82.8,208.9h-73.1V791.1H620 M620,789.2h-23.3
	v246.1h76.5c14-75.3,42.5-147.1,83.9-211.5C715,801.1,667.9,789.2,620,789.2z"/>
<path class="st0" d="M620,797c43.7,0,86.9,10.3,126,29.9c-38.3,61.6-65.1,129.6-79.2,200.7h-62.3V797H620 M620,796.5h-16V1028h63.2
	c14.1-71.4,41-139.6,79.5-201.4C707.4,806.8,664,796.5,620,796.5L620,796.5z"/>
<path class="st0" d="M620,802.6c40.8,0,81.1,9.1,118,26.6c-36.1,59.4-61.7,124.6-75.8,192.7h-52.1V802.6H620 M620,799.2h-13.3v226.1
	h58.2c14.1-69.9,40.5-136.8,77.9-197.6C704.6,809,662.6,799.2,620,799.2z"/>
<path class="st0" d="M620,802.4c40.9,0.1,81.3,9.2,118.3,26.7c-36.2,59.5-61.9,124.8-76,193.1h-52.5V802.4H620 M620,801.9h-10.6
	v220.7h53.3c14.1-68.5,39.9-134,76.3-193.8C701.8,811.1,661.2,801.9,620,801.9L620,801.9z"/>
<path class="st0" d="M620,807.6c38.2,0.1,75.9,8.2,110.8,23.8c-34.1,57.5-58.7,120.2-72.7,185.5h-43V807.6H620 M620,806.2h-6.3
	v212.1h45.6c14-66.2,38.9-129.6,73.6-187.6C697.4,814.6,658.9,806.2,620,806.2z"/>
<path class="st0" d="M620,809.3c37.3,0.1,74.2,7.8,108.3,22.8c-33.5,56.8-57.7,118.6-71.6,183h-39.8V809.3H620 M620,808.9h-3.6
	v206.8h40.7C671,951,695.3,889,729,832C694.7,816.8,657.5,809,620,808.9L620,808.9z"/>
<path class="st0" d="M621.2,813.7c34.6,0.2,68.9,7.2,100.8,20.5c-31.8,55-55.1,114.6-68.9,176.6h-31.9V813.7 M620,812.3h-0.2v199.9
	h34.5c13.8-62.8,37.4-123.1,69.8-178.7C691.2,819.6,655.8,812.3,620,812.3L620,812.3z"/>
<path class="st0" d="M625,817.6c31.3,0.7,62.3,7,91.4,18.5c-30.4,53.4-52.7,111-66.4,170.9h-25V817.6 M624.4,817v190.7h26.2
	c13.7-60.2,36.2-118.1,66.8-171.8C687.8,823.9,656.3,817.6,624.4,817L624.4,817z"/>
<path class="st0" d="M627.7,820.4c29,1,57.7,6.7,84.9,17.1c-29.3,52.2-51.1,108.4-64.7,166.8h-20.2V820.4 M626.3,818.9v186.8H649
	c13.6-59.2,35.7-116.1,65.6-168.9C686.4,825.8,656.5,819.7,626.3,818.9L626.3,818.9z"/>
<path class="st0" d="M630.8,823.5c26.4,1.2,52.5,6.5,77.4,15.6c-28.2,50.9-49.3,105.4-62.7,162.1h-14.7V823.5 M628.2,820.9v182.9
	h19.3c13.5-58.1,35.2-114,64.4-166C685.1,827.6,656.9,821.9,628.2,820.9z"/>
<path class="st0" d="M631.8,824.6c25.6,1.3,50.9,6.4,75,15.1c-27.8,50.5-48.7,104.5-62.1,160.5h-12.9L631.8,824.6 M631.3,824.1
	v176.6h13.7c13.4-56.3,34.3-110.6,62.4-161.3C683,830.5,657.3,825.4,631.3,824.1L631.3,824.1z"/>
<path class="st0" d="M636.4,829.5c21.7,1.5,43.1,5.8,63.7,12.7c-26.1,48.4-46,99.9-59.1,153.4h-4.6L636.4,829.5 M635.9,829v167.1
	h5.5c13.1-53.7,33.1-105.5,59.4-154.1C679.8,834.9,658,830.5,635.9,829L635.9,829z"/>
<path class="st0" d="M641.7,835.2c17.2,1.6,34.3,5,50.8,10.1c-21.3,40.5-38.4,83.2-50.8,127.3V835.2 M638.2,831.5v162.3h1.3
	c12.9-52.4,32.4-102.9,57.8-150.5C678.2,837,658.4,833.1,638.2,831.5L638.2,831.5z"/>
<path class="st0" d="M643.9,837.7c15.4,1.6,30.5,4.6,45.3,9c-18.4,35.3-33.6,72.3-45.3,110.3V837.7 M642.5,836.1v130.6
	c12.2-41.8,28.6-82.3,48.8-120.9C675.4,841,659,837.7,642.5,836.1L642.5,836.1z"/>
<path class="st0" d="M645.9,839.9c13.7,1.6,27.2,4.2,40.4,8c-15.9,30.9-29.4,63.1-40.4,96.1V839.9 M645,838.9v111
	c11.3-35.3,25.6-69.7,42.7-102.6C673.7,843.3,659.4,840.5,645,838.9L645,838.9z"/>
<path class="st0" d="M650.4,845c9.9,1.3,19.7,3.3,29.4,5.8c-11,21.8-20.8,44.2-29.4,67V845 M647.5,841.7v92.9
	c10.2-29.4,22.4-58,36.5-85.7C672,845.6,659.8,843.2,647.5,841.7L647.5,841.7z"/>
<path class="st0" d="M657.2,852.9c4.3,0.7,8.5,1.5,12.7,2.5c-4.4,9-8.6,18.2-12.7,27.5V852.9 M651.7,846.5v64.2
	c7.8-20.3,16.7-40.3,26.2-59.1C669.3,849.5,660.5,847.8,651.7,846.5z"/>
<path class="st0" d="M658,853.8c3.6,0.6,7.2,1.3,10.8,2.1c-3.7,7.6-7.3,15.5-10.8,23.4V853.8 M657.3,853v29.5
	c4-9.2,8.2-18.2,12.5-27C665.7,854.6,661.5,853.7,657.3,853L657.3,853z"/>
<path class="st0" d="M658.7,854.6v21.5c3-6.7,6-13.2,9.2-19.7C664.8,855.7,661.7,855.2,658.7,854.6L658.7,854.6z"/>
<path class="st0" d="M821,816.4c12,9.3,23.4,19.4,34.1,30.2c60.6,61.3,95,143.8,95.8,230H715.5C726.9,982,763.3,892.2,821,816.4
	 M820.4,811.6c-60.1,77.8-97.7,170.7-108.7,268.4h242.6C954.2,974.5,904.6,875.1,820.4,811.6L820.4,811.6z"/>
<path class="st0" d="M821.3,818.5c11.5,9,22.5,18.7,32.8,29.1c60.1,60.6,94.2,142.2,95.3,227.5H717.2
	C728.8,981.9,764.7,893.4,821.3,818.5 M821.2,817.5c-57.1,75.3-93.3,164.4-104.7,258.2h233.6c-0.9-85.7-35.2-167.7-95.5-228.6
	C844.1,836.5,833,826.7,821.2,817.5L821.2,817.5z"/>
<path class="st0" d="M821.8,822c76.9,60.7,122.8,152.6,125.1,250.6H720C731.8,981.7,766.9,895.4,821.8,822 M821.7,821.3
	C766.4,895,731.2,981.7,719.5,1073h227.8c-1.6-84.1-35.5-164.3-94.7-224C842.9,839.2,832.6,829.9,821.7,821.3L821.7,821.3z"/>
<path class="st0" d="M822.1,824.2c10.2,8.2,20,16.9,29.1,26.2c58.3,58.9,91.9,137.8,94.1,220.6H721.8
	C733.7,981.6,768.2,896.6,822.1,824.2 M822,823.5c-54.2,72.7-88.9,158.1-100.7,248h224.5c-2-83.1-35.7-162.3-94.2-221.4
	C842.2,840.7,832.4,831.8,822,823.5L822,823.5z"/>
<path class="st0" d="M823.2,833.3c8.2,6.8,16,14,23.5,21.6c55.6,56.2,88.3,130.9,92,209.9H729.1
	C741.4,981.2,773.7,901.8,823.2,833.3 M822.8,829.6c-51.3,70.1-84.5,151.7-96.7,237.7h215.3c-3.1-80.5-36.2-156.9-92.9-214.2
	C840.4,844.8,831.8,837,822.8,829.6L822.8,829.6z"/>
<path class="st0" d="M823.7,837.2c7.3,6.2,14.4,12.8,21.1,19.5c54.4,55,86.8,128,91.1,205.2H732.2
	C744.7,980.9,776,903.9,823.7,837.2 M823.2,833.5c-49.4,68.4-81.7,147.6-94,231.1h209.3c-3.7-78.8-36.5-153.5-92-209.6
	C839.2,847.5,831.4,840.3,823.2,833.5L823.2,833.5z"/>
<path class="st0" d="M824.1,840.7c6.6,5.7,13,11.6,19,17.7c53.4,54,85.4,125.5,90.3,201.3H734.9C747.5,980.8,778,905.9,824.1,840.7
	 M823.9,838.6c-47.1,66.1-78.1,142.3-90.6,222.5h201.7c-4.5-76.7-36.8-149.1-90.8-203.7C837.7,850.9,830.9,844.6,823.9,838.6
	L823.9,838.6z"/>
<path class="st0" d="M824.6,844.7c5.7,5,11.3,10.3,16.6,15.6c52.2,52.9,83.9,122.6,89.3,196.7H738.1
	C750.8,980.7,780.3,908.1,824.6,844.7 M824.5,843.7c-44.8,63.9-74.6,137-87.2,214h193.9c-5.3-74.5-37.1-144.7-89.6-197.8
	C836.2,854.3,830.4,848.9,824.5,843.7L824.5,843.7z"/>
<path class="st0" d="M825,847.8c5.1,4.5,10,9.2,14.7,14c51.3,52,82.6,120.3,88.5,193.1H740.6C753.3,980.6,782.2,909.9,825,847.8
	 M824.9,847.2c-43.2,62.3-72.2,133.4-84.9,208.2h188.8c-5.8-73.1-37.3-141.7-88.8-193.9C835.2,856.6,830.1,851.8,824.9,847.2
	L824.9,847.2z"/>
<path class="st0" d="M825.3,850.5c4.5,4,8.9,8.3,13.1,12.6c50.5,51.2,81.6,118.5,87.9,190.1H742.7
	C755.4,980.5,783.6,911.4,825.3,850.5 M825.2,849.8c-42,61.2-70.4,130.7-83.1,203.9h184.8c-6.2-72-37.4-139.5-88.1-190.9
	C834.4,858.3,829.9,853.9,825.2,849.8L825.2,849.8z"/>
<path class="st0" d="M826.2,858.3c2.9,2.8,5.8,5.5,8.5,8.3c48.3,49,78.6,112.9,85.9,181.3H748.8C761.6,980.2,788,915.7,826.2,858.3
	 M826,856.2c-39.2,58.3-66.1,124.1-78.8,193.2h175.1c-7-69.3-37.5-134.1-86.5-183.7C832.6,862.5,829.3,859.3,826,856.2L826,856.2z"
	/>
<path class="st0" d="M827.5,869.7c0.7,0.7,1.4,1.4,2.1,2.1c45.1,45.9,74.2,105.1,82.9,168.9H757.7
	C770.3,979.9,794,921.9,827.5,869.7 M827,865.1c-35.4,54.3-60.2,114.9-72.9,178.5h161.6c-8.1-65.6-37.7-126.8-84.1-173.9
	C830.1,868.2,828.6,866.6,827,865.1L827,865.1z"/>
<path class="st0" d="M827.8,872.9l0.3,0.3c44.2,45,73,103,82,165.4H760.2C772.7,979.8,795.6,923.7,827.8,872.9 M827.5,869.9
	c-33.4,52.1-57,110-69.6,170.6h154.4c-8.7-63.7-37.7-122.8-82.8-168.7L827.5,869.9L827.5,869.9z"/>
<path class="st0" d="M828.1,875.5C871,919.7,899,976.1,908.2,1037H762.2C774.6,979.7,797,925.1,828.1,875.5 M828,874
	c-31.8,50.3-54.5,105.8-67,164h148.3C900.3,976.1,871.8,918.7,828,874z"/>
<path class="st0" d="M828.5,878.8c41,43.1,68,97.5,77.4,156.2H764.7C777,979.7,798.6,926.9,828.5,878.8 M828.4,877.7
	c-30.3,48.6-52.1,102.1-64.5,158h142.8C897.3,976.2,870,921.1,828.4,877.7L828.4,877.7z"/>
<path class="st0" d="M828.8,882.2c39.1,41.8,65,94.2,74.6,150.7h-136C779.6,979.7,800.3,928.8,828.8,882.2 M828.8,881.4
	c-28.8,46.9-49.8,98.2-62,151.9H904C894.5,976.4,868.3,923.5,828.8,881.4L828.8,881.4z"/>
<path class="st0" d="M829.8,891.8c33.9,38.4,56.9,85.1,66.7,135.3H774.6C786.3,979.6,804.9,934,829.8,891.8 M829.7,891
	c-25.2,42.5-44,88.5-55.7,136.6h123C887.2,976.8,864,929.7,829.7,891L829.7,891z"/>
<path class="st0" d="M830.4,898.8c30.2,35.8,51.1,78.4,61,124.2H779.9C791.1,979.5,808.1,937.8,830.4,898.8 M830.1,895.6
	c-23.5,40.4-41.2,84-52.6,129.3h116.3C883.9,977.1,862,932.6,830.1,895.6L830.1,895.6z"/>
<path class="st0" d="M831.2,907.8c25.8,32.2,44.2,69.8,53.8,110h-98.5C797,979.5,812,942.6,831.2,907.8 M831.1,907
	c-19.5,35.1-34.7,72.5-45.2,111.3h99.7C876,977.7,857.3,939.6,831.1,907L831.1,907z"/>
<path class="st0" d="M831.5,911.3c24.2,30.9,41.6,66.6,51.1,104.7h-93.5C799.2,979.6,813.4,944.5,831.5,911.3 M831.4,910.5
	c-18.4,33.6-32.8,69.1-43,106h94.8C873.7,977.8,856,941.7,831.4,910.5L831.4,910.5z"/>
<path class="st0" d="M832,918c21.2,28.2,36.8,60.2,45.9,94.3h-84C803.3,979.7,816.1,948.1,832,918 M831.8,915.4
	c-16.7,31.3-30.1,64.2-39.8,98.3h87.8C870.5,978.1,854.2,944.6,831.8,915.4L831.8,915.4z"/>
<path class="st0" d="M832.6,925.9c17.8,25,31.2,52.8,39.8,82.2h-72.9C808.1,979.8,819.2,952.3,832.6,925.9 M832.2,920.4
	c-15.2,28.9-27.4,59.3-36.6,90.6h80.7C867.3,978.3,852.4,947.6,832.2,920.4L832.2,920.4z"/>
<path class="st0" d="M832.9,930.1c16.1,23.3,28.4,48.9,36.6,75.9h-67.1C810.5,979.9,820.7,954.5,832.9,930.1 M832.7,927.4
	c-13.1,25.7-23.9,52.5-32.3,80.1h70.9C863,978.8,849.9,951.7,832.7,927.4z"/>
<path class="st0" d="M833.2,933.5c14.7,21.8,26.1,45.6,34,70.7h-62.4C812.4,980,821.9,956.3,833.2,933.5 M833.1,932.6
	c-11.5,23.2-21.2,47.3-29,72.1h63.7C859.9,979.1,848.2,954.8,833.1,932.6L833.1,932.6z"/>
<path class="st0" d="M834.4,953.9c7.5,13,13.9,26.5,19.1,40.6h-35.2C823,980.8,828.4,967.1,834.4,953.9 M834.1,948.4
	c-7.3,15.9-13.8,32.1-19.4,48.6h42.4C851.1,980.1,843.4,963.8,834.1,948.4L834.1,948.4z"/>
<path class="st0" d="M835.2,971.8c2.4,4.9,4.7,9.8,6.8,14.8h-12.6C831.2,981.7,833.2,976.7,835.2,971.8 M834.5,955.8
	c-5.5,12.3-10.5,25-14.9,37.7h32.6C847.3,980.5,841.4,967.9,834.5,955.8z"/>
<path class="st0" d="M835.5,981.2l0.8,1.7h-1.4C835.1,982.3,835.3,981.7,835.5,981.2 M835.4,977.6c-0.9,2.2-1.7,4.5-2.6,6.7h5.7
	C837.5,982,836.4,979.8,835.4,977.6z"/>
<path class="st0" d="M624.5,402.4l322.4,284.8c-48.4,32.4-91.4,72.3-127.4,118.2c-56.6-41.6-124.8-64.4-195-65.3L624.5,402.4
	 M620,392.3v352.2c72.3-0.1,142.7,23.5,200.4,67.1c37.4-48.5,82.7-90.4,134-123.9L620,392.3z"/>
<path class="st0" d="M626.9,407.6l316.2,279.3c-47,31.8-88.8,70.6-124,115.2c-56-40.6-123.1-63.1-192.2-64.4L626.9,407.6 M625,403.4
	v336.1c70,0.9,138,23.6,194.5,65.1c35.8-45.6,78.5-85.3,126.7-117.6L625,403.4z"/>
<path class="st0" d="M627.8,409.6l313.8,277.2c-46.4,31.6-87.8,70-122.7,114c-55.7-40.2-122.4-62.6-191.1-64L627.8,409.6
	 M627.3,408.6v328.7c69,1.3,135.8,23.8,191.7,64.2c35-44.3,76.6-82.9,123.4-114.6L627.3,408.6L627.3,408.6z"/>
<path class="st0" d="M635.6,427l293.3,259.1c-41.7,29.5-79.2,64.5-111.5,104.1c-53.7-37-116.7-58.1-181.8-61L635.6,427 M633.1,421.3
	v310.3c66.3,2.4,130.5,23.9,184.8,62c33.1-41,71.9-77.2,115.1-107.4L633.1,421.3L633.1,421.3z"/>
<path class="st0" d="M636.4,428.8L927.6,686c-41.2,29.3-78.4,63.9-110.3,103.1c-53.5-36.6-116.1-57.7-180.8-60.7V428.8 M635.8,427.3
	v301.8c65,2.9,128,24,181.6,60.9c32.2-39.5,69.6-74.5,111.3-103.9L635.8,427.3z"/>
<path class="st0" d="M640,436.7l281.9,249c-39.2,28.3-74.6,61.4-105.3,98.6c-52.5-35.2-113.5-55.7-176.6-59.2V436.7 M639,434.6V726
	c63.5,3.4,125,24,177.7,59.6c31.1-37.7,66.9-71.3,106.7-99.8L639,434.6L639,434.6z"/>
<path class="st0" d="M647.8,454l261.7,231.2c-34.7,26-66.4,55.8-94.4,88.8c-50.2-32.3-107.7-51.6-167.2-56.2V454 M642.3,441.8v281
	c62,3.9,122,24,173.8,58.4c30-36,64.2-68.1,102.1-95.7L642.3,441.8L642.3,441.8z"/>
<path class="st0" d="M648.2,454.9l260.7,230.3c-34.5,25.8-66,55.5-93.9,88.4c-50.1-32.1-107.4-51.4-166.8-56.1L648.2,454.9
	 M647.8,453.8v264c59.6,4.6,117.1,23.9,167.3,56.3c28.1-33.1,59.8-63,94.6-89L647.8,453.8L647.8,453.8z"/>
<path class="st0" d="M657.1,474.6l237.8,210.1c-29.6,23.1-57,48.9-81.7,77.3c-47.5-29-100.8-47-156.1-52.6L657.1,474.6 M653.1,465.8
	v247.1c57.1,5.2,112.3,23.8,160.9,54.2c26.1-30.3,55.3-57.9,87.1-82.2L653.1,465.8L653.1,465.8z"/>
<path class="st0" d="M660.3,481.7l229.5,202.8c-27.9,22-53.8,46.6-77.3,73.2c-46.5-27.9-98.4-45.4-152.3-51.3V481.7 M658.9,478.6
	v229.1c54.5,5.8,107.1,23.5,154,51.9c24-27.4,50.5-52.5,79.2-75L658.9,478.6L658.9,478.6z"/>
<path class="st0" d="M670,503.3l204.8,180.9c-22.9,18.8-44.3,39.2-64.2,61.2c-43.4-24.8-91.1-40.9-140.6-47.5V503.3 M663.1,488
	v215.9c52.6,6.2,103.3,23.3,148.9,50.3c22.4-25.3,47-48.6,73.5-69.8L663.1,488z"/>
<path class="st0" d="M670.6,504.6l203.3,179.5c-22.6,18.6-43.7,38.8-63.4,60.5c-43.2-24.6-90.7-40.6-139.9-47.3V504.6 M669.6,502.5
	v195.6c49.6,6.6,97.5,22.8,141,47.7c20-22.1,41.6-42.7,64.6-61.6L669.6,502.5L669.6,502.5z"/>
<path class="st0" d="M672.2,508.2l199.1,175.9c-21.7,18-42.2,37.5-61.2,58.4c-42.6-24.1-89.4-39.9-137.9-46.7L672.2,508.2
	 M671.8,507.2v189c48.7,6.7,95.7,22.6,138.5,46.9c19.2-21.1,39.8-40.8,61.8-59L671.8,507.2L671.8,507.2z"/>
<path class="st0" d="M674.4,512.9L868.1,684c-20.7,17.3-40.1,35.9-58.3,55.8c-41.9-23.4-87.8-38.9-135.4-45.8V512.9 M673.9,511.9
	v182.5c47.8,6.8,93.8,22.4,135.9,46c18.4-20.1,38.1-38.9,59-56.4L673.9,511.9L673.9,511.9z"/>
<path class="st0" d="M681,527.6l176.9,156.3c-17.4,14.9-33.9,30.8-49.5,47.6c-39.7-21.5-82.8-36.1-127.4-43.2V527.6 M680.1,525.5
	v163.5c45,7.1,88.5,21.8,128.5,43.6c16-17.2,32.9-33.5,50.8-48.7L680.1,525.5z"/>
<path class="st0" d="M683.5,533.2l170.6,150.7c-16.2,14-31.6,28.9-46.2,44.5c-38.9-20.8-80.9-35-124.4-42.2V533.2 M682.5,531v155.9
	c43.9,7.2,86.3,21.6,125.5,42.6c15-16.1,30.9-31.3,47.5-45.6L682.5,531L682.5,531z"/>
<path class="st0" d="M691,549.8l151.8,134.1c-12.6,11.2-24.8,23.1-36.5,35.2c-36.3-18.7-75.2-31.9-115.3-39.3V549.8 M689.1,545.6
	v135.8c41,7.3,80.7,20.8,117.6,40c12.4-13,25.4-25.6,38.9-37.5L689.1,545.6L689.1,545.6z"/>
<path class="st0" d="M695.5,559.8L836,683.9c-10.5,9.5-20.8,19.5-30.6,29.6c-34.7-17.5-71.7-30.1-109.9-37.5V559.8 M692.6,553.3
	v125.2c39.5,7.3,77.7,20.4,113.4,38.7c11-11.5,22.5-22.6,34.4-33.3L692.6,553.3z"/>
<path class="st0" d="M701.9,574l124.5,110c-7.6,7-15.1,14.3-22.3,21.7c-32.4-15.9-66.8-27.6-102.2-34.9L701.9,574 M697.9,565.2V674
	c37.1,7.3,73.1,19.6,107,36.5c8.8-9.1,18-18,27.4-26.6L697.9,565.2L697.9,565.2z"/>
<path class="st0" d="M707.1,585.5l111.6,98.5c-5.3,5-10.6,10.1-15.7,15.3c-30.6-14.6-62.8-25.7-95.9-32.8V585.5 M702.6,575.5v94.8
	c35.1,7.3,69.2,18.9,101.4,34.6c7-7.1,14.2-14.1,21.5-20.9L702.6,575.5L702.6,575.5z"/>
<path class="st0" d="M712.1,596.6l99.2,87.7c-3.1,3-6.3,6.1-9.4,9.2c-28.8-13.5-58.9-23.8-89.9-30.8V596.6 M711.4,595.1v68
	c31.3,7,61.7,17.5,90.7,31.1c3.3-3.3,6.7-6.7,10.2-10L711.4,595.1L711.4,595.1z"/>
<path class="st0" d="M723.1,621l58.5,51.7c-19.1-7.5-38.6-13.8-58.5-18.8V621 M717.6,608.8v49.4c28.6,6.8,56.5,16.4,83.2,28.6
	c0.8-0.8,1.6-1.6,2.4-2.4L717.6,608.8L717.6,608.8z"/>
<path class="st0" d="M728.7,633.4l27.3,24.1c-9.1-3-18.2-5.6-27.3-7.9L728.7,633.4 M724.2,623.3V653c17.7,4.4,35.2,9.9,52.3,16.5
	L724.2,623.3z"/>
<path class="st0" d="M732.8,642.5l6.3,5.6c-2.2-0.6-4.3-1.2-6.3-1.7V642.5 M731.8,640.4v6.7c3.7,1,7.4,2,11,3.1L731.8,640.4z"/>
<path class="st0" d="M733,642.9v3.2c1.8,0.5,3.5,1,5.3,1.5L733,642.9z"/>
</svg>
