<svg id="Layer_1" data-name="Layer 1" xmlns="http://www.w3.org/2000/svg" viewBox="0 0 200 200"><defs><style>.cls-1{fill:none;}.cls-2{fill:#f51713;}</style></defs><title>_fun</title><rect class="cls-1" width="200" height="200"/><path class="cls-2" d="M66.75,24.77l.52,1.54c1,1.26,3.07,1.42,4.8,1.72a6,6,0,0,0,1.55-2.58,2.38,2.38,0,0,0-.69-.17l.17-.85L70.36,22a11.46,11.46,0,0,0-3.09-.34l-.86.86c0,.67-.37,1.48-.34,1.71ZM51.32,55.3c-.44.27-1,.17-1.38.51l-.17.69c-.18.26-.66.29-.85.52l-.35,1.2c-.22.34-.75.4-1,.68s-.22.85-.51,1.2-1,.67-1.37,1l.17.34-1,.86a41.57,41.57,0,0,0-2.75,4.12c-.17.39.12.84.18,1l-.52.17A7.27,7.27,0,0,0,41,69c-.26.78.31,1.17,0,1.72v.34l1.2.34a15.06,15.06,0,0,1,1.88-3.08l.35-1c.3-.32.91-.35,1.2-.69s.1-.66.34-.86l.69-.17c.42-.32.62-1,1-1.37s.82-.23,1-.52-.2-.62,0-.85,1.08-.36,1.38-.69c.57-.64.76-1.63,1.37-2.23.92-.9,2.85-1.29,3.77-2.06.24-.19.25-.86.52-1,.43-.26,2.42-.39,2.91-.68.3-.18.56-.84.86-1,.61-.38,1.08-.75,1.54-1h.52v-.34c.48-.26,1.14.09,1.54-.18.65-.43.9-.95,1.89-1.2-.07-.35,0-.33-.17-.51.58-.47,1.12-.56,1.54-1.2h.69c.29-1.42,2.61-1.91,3.77-2.57.18-.11.2-.59.34-.69l1.2-.17c1.37-.69,3.29-1.59,4.64-2.4.65-.4,1.28-.06,2-.35l.69-.68,3.95-1.37a6,6,0,0,1,2.4.51c.73.16,1-.3,1.71-.34a5,5,0,0,0-.51-2.23,9.51,9.51,0,0,1-2.06-.52,5.27,5.27,0,0,0-2.57.35,2.28,2.28,0,0,1-1-.18s-2.33.42-2.58.52c-.1,0-.51.46-.68.51-.51.16-1-.12-1.37.17s-.13.71-.52.86-2,.39-2.74.69c-1,.38-4.46,1.51-4.29,2.23l-1.89.17c-.8.4-1.72,1.34-2.57,1.72-.62.27-1.21,0-1.72.34-.33.24-.47,1-.85,1.2-.1.05-.75-.18-1.2,0s-.66.7-1,.86l-1,.17-.86.86c-.67.41-1.66.35-2.23.85-.17.15-.14.56-.34.69-.69.43-1.51.46-2.23.86C52.61,53.25,52.19,54.75,51.32,55.3ZM39.82,98.35c-.11-.29,0-.16-.17-.34v.34Zm-15.09,22.3.86.69.17,1.2h.34l.35,1.2.68.51c.5.75.56,1.44,1,2.23l2.4,2.75c.83.53.89-.38,1.72.86a2.27,2.27,0,0,0,.68-.18,22.33,22.33,0,0,0-.85-5.14,6.34,6.34,0,0,1-.69-1.72h-.69c.79-1.34-.76-4.92-1.37-6.52a10.63,10.63,0,0,1-.17-3.94c-.25-.41-1.07-2-.86-2.74.07-.23.52-.4.35-1-.08-.29-.61-1.29-.69-1.55-.26-.86.46-2.31.51-2.91.22-2.58-.15-5.93,1.55-7.55-.1-.72.12-.5-.52-.52.37-.83,2.35-2.31,1.38-3.77L30.73,92l-2.91.17c-.58.31-.34.74-1.37.86-.22,1.31-1.56,1.48-2.06,2.4l-.17,1.2L23.7,97A8.65,8.65,0,0,0,23,98.7l.17.51c-.2.53-.72,1-.86,1.37v1.55a13.58,13.58,0,0,0-.52,3.6,4.43,4.43,0,0,1,.18,1.54c-.25,1.21.43,3.57.68,5,.1.57-.26.5-.34.85.78,1,.7,2.43,1.2,3.78.16.42.71,1.16.86,1.54C24.73,119.28,24.35,119.89,24.73,120.65ZM19.58,85.83h.35a5.72,5.72,0,0,0,.17-2.23l1.2-.86c-.06-.44-.45-.86-.34-1.2l.85-.68L21.64,80a20.82,20.82,0,0,1,1.2-4.12c.11-.14.6-.15.69-.34.32-.67,0-2.14.34-2.74.08-.13.61-.35.69-.52v-.86C25,70.43,25.74,69,26.1,68v-.85c1-2,2.68-4,3.78-5.84.61-1,1-2.62,1.88-3.43h.52c.44-.42.52-1.36,1-1.71s.74,0,1-.35a33.68,33.68,0,0,1,2-2.74l1.2-.69-.17-.68a6.33,6.33,0,0,1,1.2-.86v-.51h.52c.72-1.59,6.81-7,8.57-7.55v-.52c4.24-.1,4.21-2.61,6.87-3.26a8.53,8.53,0,0,0-.35-1.88c-1.95,0-3.51-.14-5.14,0l-1-.17-.86.85L45.66,38c-1.11.54-2.06,1.92-3.09,2.57-.76.48-1.57.48-2.23,1-.16.13-.16.55-.34.68a21.41,21.41,0,0,1-3.26,2.06v.86c-2.2.12-4.5,3.69-5.83,5-.4.39-1.2.44-1.55.86-.57.69-.74,1.62-1.37,2.23a42.59,42.59,0,0,0-8.41,13c-.35.85-.26,2.51-.51,2.91-.1.16-.7.3-.69.86,0,.34.53.52.35,1l-.52.34A20.9,20.9,0,0,0,17.7,74a18.51,18.51,0,0,0,0,5.83l.17,2.4h.34c.18.43-.16,1.51.17,2.23S19.64,84.89,19.58,85.83Zm128.48,20.76c.12-.54-.3-.5-.35-.69s.37-1.05.18-1.54h-.35c-.17-.48.56-2.88.52-3.26-.07-.7-.72-1.58-.86-2.4-.35-.07-.33,0-.51-.18s.08-.44-.18-.85c-.64-1-2-1.39-2.57-2.58a7.44,7.44,0,0,1-1.89-.34l-.17.34h.17a1.74,1.74,0,0,1-1.37,1c-.12.14-.22.39-.34.52a10,10,0,0,0,.69,2.57l.51.34c.14.48-.46,1.4-.51,1.72l.17,1.71a10.46,10.46,0,0,0-.52,2.75c.2,1.35-1.21,4.2-.51,4.63-.3.45,0,.24-.52.17-.47,3.43-2.42,7.34-4.11,10.12-.45.73-.09,1.48-.52,2.06-.2.27-.84.36-1,.69v.68c-.21.36-1.25,1.47-1.54,1.89.06.08.33.44.17.68-.77,1.21-1.59.67-1.54,2.58a2.47,2.47,0,0,1-.69-.35,13.05,13.05,0,0,0-1,2.23c.14.18.06,0,.17.35,1,0,1.91.49,2.92.34s1.4-1,2.06-1.2l.51.17a11.35,11.35,0,0,0,2.57-1.54c.11-.16,0-.69,0-.69.32-.38,1.16-.53,1.55-.86.19-.29.09-.52.17-.68l.34-.52h.52c.2-1,1-1.44,1.37-2.23.86-1.66,2.94-6.27,2.92-7.89H145c-.08-.89.61-1.74.86-2.57l-.34-.34a14.2,14.2,0,0,1,.51-1.37v-.18c.31-.81,1.51-2.66.86-3.94C147.12,107.5,147.91,107.19,148.06,106.59ZM134.68,45.18c.3.25,1,.21,1.2.51s-.26.72.17,1h.86A22.17,22.17,0,0,1,139,48.27l1,.17c.61.37,1.06,1.18,1.54,1.54l1,.35c.32.23.12.5.34.85.47.74,1.53,1.16,2.06,1.89-.19.39.91,1.68,1.2,2.23,1.38,2.61,2.91,4.79,4.12,7.2v.69A7.92,7.92,0,0,0,152,65.76c-.48.34.81,3.18,1,3.61-.21.54.45,3.71.86,4.63.5,1.1,1.43,2.61,1.89,3.77.16.43-.19,2,.17,2.74h.34c.22.59-.74,5.83-.86,6.52-.24,1.49.85,3.08,1,4.63a2.7,2.7,0,0,0,2.06-.17,1.64,1.64,0,0,0,1-.68c.51-.72.87-2.57.51-3.09.19-.13.16-.11.52-.17,0-.26.17-1.89.17-1.89.16-.43.87-1,1-1.54.26-.87-.41-.91-.34-1.55s.24-.91-.17-1.37c.27-.16,0,0,.51,0-.38-3.66-.66-6.33-1.89-9.26v-2.4c-1.16-2.15-1.72-5.23-3.08-6.69a11.38,11.38,0,0,1-.52-2.4c-.35-.07-.33-.05-.51-.18s-.06-.21.17-.51c-.19-.13-.16-.11-.52-.17-.27-3.22-2.73-5-4.28-7.38L151,51c-.28-.47-1.2-.74-1.54-1.2-.84-1.12-1.7-2.92-2.92-3.6h-.68c-.32-.18-.4-.86-.69-1h-.68a5.41,5.41,0,0,1-1.55-1.54,8.65,8.65,0,0,1-2.23-.35c-.62-.36-1.17-1.12-1.88-1.37-1.46-.5-3.11-.13-4.29-.86-.78.17-.61.41-1,.86A4.41,4.41,0,0,0,134.68,45.18ZM99.17,25.11l1.72-.17s.24.47.34.51c.33.15,1.36-.06,2.23.18.27.07.8.47,1,.51.53-.44,2.39-.46,3.43-.17,2.77.76,6.75,1,8.75,1.54l.68-.17c2.33.65,4.38,1.68,6.52,2.23.59.15,1-.24,1.37-.17.2,0,.7.46.86.51l2.92.18c.21.05.89.48,1,.51.53.1,1.15-.35,1.54-.17.86,0,1,0,1.37-.52l.18-.17c-.93-.55-.7-1.31-1.38-2.06s-2-.92-3.08-1.54A54.59,54.59,0,0,0,123,22.71c-1.13-.49-1.72-.08-2.75-.34-1.19-.31-2.91-.93-4.12-1.38-1.64-.6-3.21.08-4.8-.17-.88-.13-2.93-.36-4.29-.51-.73.6-1.23-.12-2.57.17-2,.43-5.91.65-7.2,1.72l-.35.17c.11.29,0,.16.17.34A3.39,3.39,0,0,0,99.17,25.11Zm41,48.71-.35.35c.36,1,1.48,1.59,2.06,2.4a2.09,2.09,0,0,1,.17,1.54c.36.42.64.2.86.86,2.15.12,2.31.38,3.26-1.2.28-.46.68-.66.69-1,.25-.42.07-.27.68-.34,0-.27-.34-1-.34-1.2s.32-.59.17-1c-.66-1.92-2.72-3.2-3.77-4.8-1.43,0-3.14-.89-4.8-.35-.74.24-.77.88-1.72,1a3.13,3.13,0,0,1,0,1.37C137.93,72.18,139,74.11,140.17,73.82ZM88.54,53.76c1.66-.06,5.11-2.21,6-2.06.76.82,4.58.81,6.35,1.2.47.1,1.18-.21,1.37-.17,1.87.38,3.47,1.82,5.49,2.4h1.54c1.4.54,3.2.64,4.81,1.2.52.18,1.15.69,1.71.86s2.75,0,3.26.34c.17.1.24.59.51.69s.63-.29,1.21,0c1.12.55,3,3.48,3.6,4.63v.68c.1.15.58.16.68.35l.17,1.2.69.34c.17.23-.07.54.17.69s1,0,1.2.17a3.45,3.45,0,0,0,1-.86c.48-.63,0-1.38.35-2.4l.34-.17c.1-.58-.31-.29-.52-.52a.75.75,0,0,0,.18-.68v-.18l-.35-.17c-.16-.68.62-.62.35-1.37A9.91,9.91,0,0,0,126.1,56c-.6-.51-.94-1.57-1.54-2.06-.29-.23-4.85-1.93-5.32-2.06H118c-4.38-1.53-9.19-2.14-14.06-3.6-.79-.24-2.85.18-3.61,0-1.28.82-3.73,0-5.31.51a20.56,20.56,0,0,0-6.86,3.78l.17,1ZM48.06,126a4,4,0,0,0-.52-2.75l.52-.17c-.05-1.84-.73-2.17-1.2-3.26l-.17-1.37a50.14,50.14,0,0,1-3.26-7.72l.17-1.2-.34-.34v-.34h.34c0-.1,0-2.49,0-2.58v-.17c0-.07-.7,0-.52-.34.76-.39,1-4.52.86-5.66h.52C43.72,97.48,46.24,93,47,90.63c.18-.53-.27-.89-.17-1.2l.51-.34c.3-.58,0-1.23,0-1.71.45-.76.48-2.12,1-2.92l.52-.17c.62-.91.66-1.93,1.2-2.92.16-.3.72-.64.85-1a8.1,8.1,0,0,1,.35-1.88c.11-.21.55-.18.68-.35.29-.35.69-2.11,1-2.57s1.14-.78,1.55-1.2c.57-.6.73-1.71,1.37-2.23h.51l-.17-.52a22.36,22.36,0,0,1,1.37-2.22c.3-.48,1-.47,1.38-.86V68a17.3,17.3,0,0,1,2.4-2.06v-.68h.68v-.52c2.93-1.54,5.41-3.86,8.24-5.48a1.76,1.76,0,0,0-.35-.86c-1.88,0-2,.44-3.08,1-.81.44-1.93.26-2.75.68a25.41,25.41,0,0,0-3.43,2.58l-2.06.51c-1,.55-1,1.39-1.54,2.06-.24.29-.81.36-1,.68l-.17.86c-.32.39-1,.36-1.37.69L54.4,68c-.39.3-.86.35-1.2.69V69c-.38.28-.74,0-1,.35l-.17.68-.68.17c-1.29,1.37-1.47,4.06-2.4,5.83-.45.84-1.58,1.15-2.06,1.89l-.17,1-.52.17a8.6,8.6,0,0,0-.68,2.58c-.09.39.2.9.17,1-.41,1.44-2.1,2.67-2.75,3.78-1.62,2.75-.83,7.29-2.74,10.12l.68.68L40,97.5a4.18,4.18,0,0,0,.34.85l-.17.17h-.69a35.75,35.75,0,0,1-.68,3.61c-.25,1.07.44,1.93.17,2.74l-.52.52.35,2.23c-.86,3.85,1.72,9.61,2.91,12.52.43.11.09,0,.52,0,.07.28-.22.57,0,1s.78.41,1,.68l.17.69c.47.61,1.54,1.2,1.88,1.89v.85c.25.45,1,.72,1.38,1.2A1.91,1.91,0,0,0,48.06,126Zm80.62-7c1.81-2,2.8-4.72,3.6-7.72,1.64-6.16,4.26-14.4,2.4-20.59l.17-1.2a17.35,17.35,0,0,0-.51-3.26c-.19-.46-.84-1.29-1-1.71v-1c-.1-.2-.57-.36-.69-.51l-.34-1.2-.86-.86c-.52-.93-.8-2.36-1.54-3.09l-.69-.17c-.48-.36-.48-1.06-.86-1.55-.8-1-3.41-2.08-3.26-3.43l-.85-.34c-.7-.93-1.06-1.8-1.72-2.74-.45-.65-1.41-.94-1.89-1.55-.36-.46-.56-1.19-1-1.54-1.49-1.14-2.51-1.27-4.28-2.23l-.86-.86c-.47-.22-1,.08-1.37-.17s-.85-1.06-1.55-1.37a23.47,23.47,0,0,0-3.26-1c-1.06-.28-2.33.54-3.26.34a24.09,24.09,0,0,0-9.77.17c-.49.1-1.47-.36-2.23-.17-1.31.34-2.84.7-4.12,1l-2.23.17c-.86.28-1.52,1.12-2.4,1.37-.3.09-1.12-.28-1.54-.17l-.52.52c-.43.14-.86-.22-1.54,0-1.08.34-2.51,1-3.6,1.37-.76.24-1.24,0-1.89.34-.81.37-1.21,1.09-2.06,1-.46.3-1.12,1-1.54,1.2-.86.5-1.72.41-2.4,1s-2.43,2.42-3.43,2.75c.06.35,0,.33.17.51-.29.49-.42.21-.86.52s-.66,1-1,1.54l-.51.17v.86c-.1.14-.59.17-.69.34-.23.38-.09.58-.34.86s-.16.11-.52.17c-.16,1.61-1.55,1.85-2.23,2.92-.35.55-.3,1.2-.68,1.71a31,31,0,0,1-2.75,2.75,1.34,1.34,0,0,1-.34,1h-.86a5.69,5.69,0,0,1-.34,1.37H54.4l-1,1.37.17.69c-.2.33-.78.37-1,.85.21.51-.11,1.12,0,1.55l.68.68c.6,1.23-.47,2.26-.85,2.92v1.2c-.33,1.25-.43,2.63-1.2,3.43.7.37.12,5.12.51,6.69.89,3.56,1.26,6.55,2.57,9.78.29.71.06,1.24.35,1.88C59.2,128,68.1,133.71,78.76,138.15c3.86,1.61,8.87,3.89,14.41,2.4.48-.13,1,.44,1.37.34.61-.17,2-.81,2.57-1,.43-.15,1.24.22,1.38.17l.34-.51,1.54.17c.42-.15,1.32-.73,1.72-.86,1.39-.45,2.94.16,4.12-.51.68-.39,1.68-1,2.4-1.37.88-.43,1.69.07,2.57-.35l.51-.68,1-.17c.2-.1.36-.57.52-.69.54-.41,1.32-.31,1.88-.69.24-.15.31-.71.52-.85h.69c.17-.09,1.45-1.15,1.71-1.38,2-1.69,3.62-3.69,5.49-5.49.71-.68.86-1.8,2.06-1.54-.14-.45-.21-.41-.35-.86.9-.47,1.1-1.34,1.89-1.88v-1C127.84,121.23,129,119.83,128.68,118.94ZM43.6,157h-.86a1.44,1.44,0,0,0-.51-1c-.22,0-.09-.12-.35.17-.76-.38-1.07-1.25-1.71-1.72s-1.21-.45-1.72-.86-.39-.81-.68-1.2c-.18-.22-.45-.16-.69-.34l-2.4-2.57-1.2-.86c-.25-.4-.09-.83-.34-1.2-.43-.63-1.81-1.3-2.23-1.89s-.19-1.4-.69-1.88-1-.39-1.37-.86c-.77-1.11-1.2-2.1-1.89-3.26-.45-.75-1.38-1.34-1.89-2.06-.33-.47-.44-1.16-.85-1.54-.62-.57-1.68-.58-2.23-1.2a11.07,11.07,0,0,1-2.41.34c-.28.54-.65.77-.85,1.37-.63,1.08,1.79,6.39,2.57,7.38.12.15.56.17.69.34.35.47.46,1.11.85,1.54l.52.18c3.39,4.27,6.51,8.45,11.49,11.15a26.7,26.7,0,0,0,2.92,1.37c.59.21,1.16-.25,1.54-.17.63.13,1.22.86,1.89.51a13,13,0,0,0,3.43-.34V158A2.17,2.17,0,0,1,43.6,157Zm127.79-35.34c-.46-.91-2.23-.86-2.75-.51-.56.12-3.19,3.18-3.09,3.6a15.2,15.2,0,0,1-1,3.09L164,128l.17.51c-.25.67-.72,1.64-1,2.57l-.17,1.38-.51.17c-.56.47-.7,1.36-1.2,1.89l-.52.17-.17,1.2c-.14.22-.69.31-.86.51-.45.54-.6,1.71-1,2.23-.77,1-2,2.1-1.88,3.43-.55,0-.24.3-.52-.17a3.56,3.56,0,0,0-.34,1.37c-.26.33-1,.3-1.2.69-.81,1.29-2.73,3.89-3.95,4.63a2.27,2.27,0,0,0,.35,1c.71,1.09,1.36-.19,2-.52l1-.17.35-.68h.68c.93-.71,1.47-2.54,2.75-2.4.07-.19,0-.93.17-1.2s.7-.15.86-.35.36-1.41.68-1.71c.78-.73,1.67-.92,1.89-2.23,1.57-.19,2.21-2.89,3.09-3.95.21-.26,1.36-1.08,1.54-1.37l.17-1a27.19,27.19,0,0,0,2.57-4.46c.18-.51,0-1,0-1.2s.47-.53.52-.69c.13-.39-.21-1.29-.17-1.37.13-.26.7-.3.85-.51a9.45,9.45,0,0,0,.69-3.26h.52C171.29,122.12,171.5,121.84,171.39,121.68Zm10.8-35.51c-.08-.08-.65-.27-.68-.34l.17-.68a3.38,3.38,0,0,0-1.55-2.41,6.87,6.87,0,0,1,0-1.2h-.68c-1.33-1.51-2.72-1.79-5.15-1.88a5.22,5.22,0,0,1-1.37,1c.06,1.16,2,5.4,3.09,5.83-.18.14-.05.06-.35.17.14.72.16.31.52.69-.53.43,1.18,3.61,1.37,4.11l-.17,1.2c.3,1.59.6,3.59.86,4.46.57,2-.34,2.86.68,4.12.31.16.89-.17,1.2-.52s-.38-.23-.17-.85c.34-1,1.32-1.57,1.55-2.75.07-.38-.37-.8-.18-1.37l.35-.17-.17-.86c.16-.4.47-.24.51-1,0-.6-.21-3.34-.17-3.43s.62-.39.68-.86C182.65,88.59,181.44,87.21,182.19,86.17ZM163.67,37.8a4.89,4.89,0,0,1-.69,1.72c.26,1.3,1.06,1.38,1.54,2.23l.18,1.2c.4.87,1.35,2.19,1.71,3.09l-.17.68c.07.2.59.84.69,1v.69l1.2.68a5.9,5.9,0,0,1,.34,1.38,10.84,10.84,0,0,0,2.4-.69,16.51,16.51,0,0,0,.69-3.26C170.73,42.72,167.82,38.55,163.67,37.8ZM152.52,134c.35.07.33,0,.51.17h.35l-.52-.51c.16-.33.4-.28.86-.52a7.37,7.37,0,0,1,2.23-3.26c.21-.37.07-.37,0-.85a2.42,2.42,0,0,1,.86-.18c.13-.53.33-.66.17-1,.18-.13.16-.11.51-.18.26-2.27,3-3.37,2.75-5.83h.68l-.17-1.2.86-.51c0-.18-.12-5.6,0-5.83-.25-1.25-1.26-.93-1.89-1.72a2.1,2.1,0,0,0-.86.34c-2.66.28-3.76,7.27-4.63,9.44-.37.93-1.14,1.24-1.2,2.74h-.51c-.11,1.62-1.29,2.46-2.06,3.43.36.68-.94,1.13-1.2,1.72l.17.68c-.24.28-1.21.63-1.54,1v.17c0,.06-3,3.19-3.78,4-.08-.05-3.26,2.06-3.26,2.06-.22.78-4,3.44-5,3.6.15.4.06.28.34.51v.35c-2.26-.58-4.36,2.26-6.86,3.08v.52a3.78,3.78,0,0,0-1.2.17l.34,1.72c2.43.68,4.87-.39,6.86-1.2h1.55c.2-.1.66-.79.86-.86.55-.22.15.59.68.34l.52-.86a1.32,1.32,0,0,0,1.37-.17,47,47,0,0,1,5.32-3.77c1.32-.83,2.16-2.46,3.6-3.26v-.52h.51C150.45,136.32,152.65,135.7,152.52,134Zm-27.28,32.08c-.11.29,0,.16-.17.34-1,.52-2.54-.41-3.08,1-.46-.3-.24,0-.18-.52a14.71,14.71,0,0,0-3.25.69c-.67.13-1.6-.25-2.58,0a9.69,9.69,0,0,1-1.2.34,38.59,38.59,0,0,0-6.86-.34,16.23,16.23,0,0,0-5,.51l-1.55.18c-.56.29-.35.89-.68,1.2.52,1.33,2,.55,2.91,1.37.35.29.42,1,.86,1.2a16.07,16.07,0,0,0,5.32,1c.68,0,1.72.46,2.06.34a4.37,4.37,0,0,1,1.2-.68c.79-.16,1.5.42,2.4,0l.17-.52,1.89-.17c.45-.21,1-1,1.37-1.2,1-.49,1.9,0,2.4-.17a13.32,13.32,0,0,0,3.6-2.4c.25-.31,0-.79.34-1s.73-.17,1-.52l.18-.17-.52-.51ZM102.77,163c3.2-1,6.7-1,9.78-2.75.35-.19.93.22,1,.18.37-.17.4-.86.69-1,.56-.34,1.19,0,1.71-.35s.8-.83,1.37-1h1.21c.61-.27.67-.86,1.54-1-.15-.41-.07-.29-.34-.52v-.17a2.06,2.06,0,0,1,.51.34,2.22,2.22,0,0,0,1-.68c.13-.19.11-.16.17-.52a1.5,1.5,0,0,0,.86-.17c.67-.25,1-.84,1.37-1.37.43-.14.36-.91.17-1v-.34c.37.15.25.14.52.34.3-.65.45-.84,0-1.37-.85-.43-3.3.36-4,.85h-.17c-.34.1.34.18.34.18v.17c-1.75-.11-3.92,1.18-5.49,1.88l-.51-.17c-1.71.51-3.64.84-5.15,1.2a13.69,13.69,0,0,1-2.23,0c-2.22.4-5,1.14-7.54,1.38-.36,0-.65-.3-.86-.35l-6.52-.51a17,17,0,0,1-10.12-1c-1.07-.41-3,.12-3.94-.34-1.38-.65-3.1-1.63-4.46-2.23l-1.2-.18c-.16-.13-.15-.57-.35-.68-1.23-.71-2.9-.64-4.28-1.2a19.22,19.22,0,0,1-1.89-1.38h-.69c-.85-.44-1.84-1.32-2.74-1.71H62c-1.16-.71-2.18-1.95-3.26-2.74a17.59,17.59,0,0,1-1.71-1c-.16-.33-.07-.13,0-.52-1.5-.79-2-2.37-3.26-3.26a12.61,12.61,0,0,0-7-2.57,6.38,6.38,0,0,0,1.2,5.15l1,.85c2.81,4.59,6.37,7.15,11.14,9.78.39.21.84.83,1.21,1,1.08.61,2.2.73,3.25,1.37a18.47,18.47,0,0,0,1.55,1.2c1.13.5,2.28.44,3.43.86,1.69.62,3.42,1.92,5,2.57,1.39.59,3.8.27,5.15.86,4.5,2,10.28,2,15.09,1.37,1.24-.16,3.49.55,5,.69l1.54-.34A2,2,0,0,0,102.77,163ZM81.51,176.23c-.33-.16-.13-.07-.52,0a2.38,2.38,0,0,1-.17-.69c-2.13,0-3.22-1.15-4.63-1.89-.77-.4-1.48-.26-2.23-.68l-.69-.69c-.59-.23-1.36-.07-1.54-.17-.65-.37-1-.94-1.55-1.2h-.85c-.44-.17-1.3-.7-1.72-.86-.65-.25-1.57.11-2.06-.17-1.29.14-1.23.85-2,1.37a2.76,2.76,0,0,1,0,1.37c.62.62.85,1.88,1.54,2.41,1.79,1.36,9,4.39,11.15,4.11.79-.1,1.37.39,1.89.52A6.3,6.3,0,0,0,82,178.28,2.35,2.35,0,0,0,81.51,176.23Zm37.22-35.68c-.46,0-2.4-.34-2.4-.34v.34c-.73.39-1.15.18-2.06.51-.48.18-1,.85-1.38,1l-1.54.17c-1.63.75-4.09,1.4-5.83,2.06-1.15.44-2.17-.22-3.09,0-1.57.38-2.8.37-4.11.69l-1.21-.17a8.54,8.54,0,0,1-3.94-.17c-1.82-.54-3.3.67-5,0l-.52-.52H85.79c-.56-.21-1.57-.83-2.05-1h-1l-.35-.51-.85.17c-.81-.2-1.27-.46-2.06-.69h-1c-2.1-.74-4.26-1.39-6.35-2.06-.76-.24-1.43.14-1.89,0l-.51-.51-1.54-.17A32.24,32.24,0,0,0,65,138c-.92-.3-1.85.24-2.4,0h-.35c0,.57.09.92-.34,1.2,1,2.9,5.21,5.91,8.06,7l1.55.34.68.69c.44.08.35-.31.52-.34,0,0,2.49.57,2.74.68a13.44,13.44,0,0,0,2.4,1c.26,0,.83-.24,1.38,0l.34.51,1.2-.17c2.77.86,6.75,2.17,9.26,1.89l6.86.69.52-.52,1.71.17a35.24,35.24,0,0,0,4.46-.34h2.06c1-.47,2.63-.44,4-1l.51-.51,3.09-.35c1.1-.47,2.16-1.34,3.6-1.54.11-.83.26-.61.69-1,0-.22.11-.09-.18-.34.14-.12.39-.23.52-.35C118.79,144.57,118.6,142.58,118.73,140.55Z"/></svg>