<svg id="Layer_1" data-name="Layer 1" xmlns="http://www.w3.org/2000/svg" viewBox="0 0 1620 1080"><defs><style>.cls-1{fill:#020000;}.cls-2{fill:none;stroke:#020000;stroke-width:0.47px;}</style></defs><title>Artboard 1</title><path class="cls-1" d="M1105.41,762.33A570.43,570.43,0,0,0,1523.27,1076H1105.41V762.33m-3.9-17.8h-.07V1080h517.14c-230.49,0-428.8-137.79-517.07-335.47Z"/><path class="cls-1" d="M1103.45,753.64A569.15,569.15,0,0,0,1551.09,1078H1103.45V753.64m-.47-2.15v327h456.56a568.63,568.63,0,0,1-456.56-327Z"/><path class="cls-1" d="M1110.42,783.23a572.24,572.24,0,0,0,65.27,97.23A579,579,0,0,0,1476.34,1071H1110.42V783.23m-4-16.45V1075h405.85c-174.8-33.31-326.5-147.81-405.85-308.21Z"/><path class="cls-1" d="M1111,785.71a577.22,577.22,0,0,0,360.31,284.7H1111V785.71m-1.89-7.64V1072.3h377.51a575.14,575.14,0,0,1-377.51-294.23Z"/><path class="cls-1" d="M1114,797.38a578.92,578.92,0,0,0,335.89,270H1114v-270m-1.42-5.47v276.93h347.11A577.37,577.37,0,0,1,1112.6,791.91Z"/><path class="cls-1" d="M1118.46,813.89A578.44,578.44,0,0,0,1422.27,1063H1118.46V813.89m-.66-2.41v252.16h308.35c-129.89-45.29-238-133.58-308.35-252.16Z"/><path class="cls-1" d="M1122.66,828.71a577.41,577.41,0,0,0,276.61,230.07H1122.66V828.71m-2.93-10.29v243.29h295.35c-124.41-45.93-226.24-129.79-295.35-243.29Z"/><path class="cls-1" d="M1127.39,844.66A582.1,582.1,0,0,0,1375.88,1054H1127.39V844.66m-1.89-6.28v217.55H1385c-106.67-45.56-195.64-120.13-259.45-217.55Z"/><path class="cls-1" d="M1128.48,848.19A587,587,0,0,0,1370.85,1053H1128.48V848.19m-.67-2.16v207.59h246.11A585.36,585.36,0,0,1,1127.81,846Z"/><path class="cls-1" d="M1133.53,864.25a593.47,593.47,0,0,0,215.07,183.66H1133.53V864.25m-3.41-10.74v197.8h233.26a588.69,588.69,0,0,1-233.26-197.8Z"/><path class="cls-1" d="M1135.48,870.25a595.71,595.71,0,0,0,205,175.71h-205V870.25m-1.89-5.82v183.42h214.76a593.57,593.57,0,0,1-214.76-183.42Z"/><path class="cls-1" d="M1139.61,882.62a604.14,604.14,0,0,0,184.5,159.21h-184.5V882.62m-2.56-7.6v169.36h197.08A599.36,599.36,0,0,1,1137.05,875Z"/><path class="cls-1" d="M1151.66,916.51a618.25,618.25,0,0,0,129.24,113.27H1151.66V916.51m-6.91-19v139.22h160.16a610.61,610.61,0,0,1-160.16-139.22Z"/><path class="cls-1" d="M1151.58,916.29a627.56,627.56,0,0,0,129.6,113.57h-129.6V916.29m-.47-1.27v115.31h131.66A623.12,623.12,0,0,1,1151.11,915Z"/><path class="cls-1" d="M1153.89,922.46a633.93,633.93,0,0,0,119.64,105.09H1153.89V922.46m-.47-1.26V1028h121.67A630.43,630.43,0,0,1,1153.42,921.2Z"/><path class="cls-1" d="M1157.92,933a642.7,642.7,0,0,0,102.68,90.54H1157.92V933m-1.42-3.68v95.64h108.6a638,638,0,0,1-108.6-95.64Z"/><path class="cls-1" d="M1161.39,941.85a653.65,653.65,0,0,0,88.42,78.19h-88.42V941.85m-.66-1.67v80.53h91.11a648.74,648.74,0,0,1-91.11-80.53Z"/><path class="cls-1" d="M1162.93,945.72a657.92,657.92,0,0,0,82.2,72.78h-82.2V945.72m-.66-1.66v75.1h84.87a654,654,0,0,1-84.87-75.1Z"/><path class="cls-1" d="M1172.21,968.33c14.6,14.27,30,28,45.89,40.89h-45.89V968.33m-4-9.55v54.42h61.21a663.83,663.83,0,0,1-61.21-54.42Z"/><path class="cls-1" d="M1180.15,986.83q7.93,7.33,16.14,14.46h-16.14V986.83m-6.91-16.06v37.42h42c-14.51-11.88-28.55-24.41-42-37.42Z"/><path class="cls-1" d="M1181.71,990.39v9.33h10.41q-5.25-4.61-10.41-9.33Z"/><path class="cls-1" d="M1526.71,338.28V745h91.39v334.53a567.91,567.91,0,0,1-134.74-16.27,562.43,562.43,0,0,1-123.11-46.06l166.45-678.92m.48-3.92-167.48,683.09A563.47,563.47,0,0,0,1618.58,1080V744.53h-91.39V334.36Z"/><path class="cls-1" d="M1518.41,407V753.3h91.39v317.86a550.76,550.76,0,0,1-239.9-58.38L1518.41,407m4.54-37.6-158.33,645.79c77.87,39.54,161.85,59.9,249.72,60.54v-327H1523V369.42Z"/><path class="cls-1" d="M1516.9,419.53V754.81h91.39v314.81A549.08,549.08,0,0,1,1371.65,1012L1516.9,419.53m.66-5.48-146.68,598.27a549.64,549.64,0,0,0,238.07,58V754.15h-91.39V414.05Z"/><path class="cls-1" d="M1510.12,475.63v286h91.39v301.09a542.21,542.21,0,0,1-222-54.39l130.59-532.66m4-32.89-139.19,567.71a546,546,0,0,0,230.58,56.31V757.62H1514.1V442.74Z"/><path class="cls-1" d="M1507.67,495.92V764h91.4v296.11a539.79,539.79,0,0,1-216.69-53.21l125.29-511m1.42-11.75-128.36,523.55a540.9,540.9,0,0,0,219.75,53.89v-299h-91.39V484.17Z"/><path class="cls-1" d="M1501.85,544.07V769.86h91.39V1054.1a533.69,533.69,0,0,1-204.09-50.38l112.69-459.65m4.55-37.59-122.53,499.76a538.34,538.34,0,0,0,213.92,52.59V765.32H1506.4V506.48Z"/><path class="cls-1" d="M1501.21,549.37V770.5h91.39v282.92a533.13,533.13,0,0,1-202.7-50.05l111.3-454m1-7.83-113.35,462.35a533.76,533.76,0,0,0,204.74,50.52V769.55h-91.39v-228Z"/><path class="cls-1" d="M1497.26,582.09V774.45h91.4v274.82a529.21,529.21,0,0,1-194.14-48.11l102.74-419.07m.67-5.48-104.18,424.92A529.74,529.74,0,0,0,1589.32,1050V773.79h-91.39V576.61Z"/><path class="cls-1" d="M1493.06,616.87V778.65h91.39v266.16a524.84,524.84,0,0,1-185-46l93.63-381.91m2.56-21.14-99.18,404.5a527.69,527.69,0,0,0,190.57,47.3V776.1h-91.39V595.73Z"/><path class="cls-1" d="M1492.83,618.77V778.88h91.39v265.69a524.79,524.79,0,0,1-184.52-45.92l93.13-379.88m.48-3.92-94.17,384.07a525.12,525.12,0,0,0,185.56,46.15V778.41h-91.39V614.85Z"/><path class="cls-1" d="M1488.12,657.75V783.59h91.4v255.94A519.93,519.93,0,0,1,1405.21,996l82.91-338.21m1-7.83-85,346.59a521,521,0,0,0,176.36,44V782.64h-91.39V649.92Z"/><path class="cls-1" d="M1484.48,687.89v99.34h91.39v248.38a516.51,516.51,0,0,1-166.4-41.74l75-306m1.9-15.66L1407.25,995a518.5,518.5,0,0,0,170.52,42.69V785.34h-91.39V672.23Z"/><path class="cls-1" d="M1477.66,744.37v49.68h91.39v234.11a509.22,509.22,0,0,1-151.58-38.28l60.19-245.51m2.56-21.14-65.75,268.15A512.11,512.11,0,0,0,1571.6,1031V791.5h-91.38V723.23Z"/><path class="cls-1" d="M1562,801.07V1020.4a502.75,502.75,0,0,1-136.33-34.68L1471,801.07H1562m-88-26.84L1421.7,987.75a506.23,506.23,0,0,0,143.74,36.44V797.66h-91.39V774.23Z"/><path class="cls-1" d="M1551.22,811.88v196.31a492.61,492.61,0,0,1-112.77-29l41-167.29h71.75m6.91-6.9h-84.08l-43.74,178.4A499.32,499.32,0,0,0,1558.13,1016V805Z"/><path class="cls-1" d="M1550.34,812.76v194.42a492.06,492.06,0,0,1-110.85-28.56l40.67-165.86h70.18m.47-.47h-71l-40.85,166.62a491.79,491.79,0,0,0,111.87,28.81V812.29Z"/><path class="cls-1" d="M1548.42,814.69V1005a490.48,490.48,0,0,1-106.65-27.53l39.9-162.75h66.75m.47-.47H1481.3l-40.09,163.51a490.63,490.63,0,0,0,107.68,27.78V814.22Z"/><path class="cls-1" d="M1545.34,817.77v183.64a487.4,487.4,0,0,1-99.93-25.89l38.68-157.75h61.25m.47-.48h-62.09l-38.87,158.53a488.24,488.24,0,0,0,101,26.14V817.29Z"/><path d="M1539,824.08V994a481.12,481.12,0,0,1-86.13-22.48L1489,824.08h50m2.55-2.55H1487l-37.18,151.64A483.55,483.55,0,0,0,1541.57,997V821.53Z"/><path d="M1535.92,827.19V990.36a479.32,479.32,0,0,1-79.36-20.78l34.92-142.39h44.44m1.42-1.42h-47l-35.48,144.72A480.37,480.37,0,0,0,1537.34,992V825.77Z"/><path class="cls-1" d="M1529.55,833.56V982.74a471.41,471.41,0,0,1-65.42-17.27l32.34-131.91h33.08m.47-.48H1496.1l-32.54,132.7A473.4,473.4,0,0,0,1530,983.31V833.08Z"/><path class="cls-1" d="M1519.77,843.33V970.8c-14.82-3.2-29.6-7.15-44-11.77l28.37-115.7h15.63m2.94-2.93h-20.87L1472.27,961a467.06,467.06,0,0,0,50.44,13.43v-134Z"/><path class="cls-1" d="M1518.21,844.9v124c-13.63-3-27.26-6.64-40.57-10.86l27.73-113.09h12.84m1.42-1.42h-15.37L1476,958.94c14.3,4.58,29,8.5,43.68,11.67V843.48Z"/><path class="cls-1" d="M1512,851.1v110c-9-2.15-18.08-4.59-27-7.28l25.18-102.69H1512m4.55-4.54h-9.88l-27.05,110.31c12.12,3.8,24.51,7.12,36.93,9.91V846.56Z"/><path class="cls-1" d="M1511.84,851.27V960.86c-8.86-2.11-17.79-4.52-26.58-7.18l25.11-102.41h1.47m.47-.48H1510L1484.69,954c9.09,2.76,18.34,5.26,27.62,7.46V850.79Z"/><path class="cls-1" d="M1502.06,926.24V948.3c-1.67-.45-3.37-.91-5.07-1.39l5.07-20.67m2.55-21.15-10.69,43.61q5.32,1.51,10.69,2.91V905.09Z"/><path d="M1617.92.67V307.9a259.25,259.25,0,0,0-515.82,0V.67h515.82m.66-.67H1101.44V334.36h0c0-142.8,115.76-258.57,258.57-258.57s258.57,115.77,258.57,258.57V0Z"/><path class="cls-1" d="M1612.42,6.16V254.51a264.81,264.81,0,0,0-504.82,0V6.16h504.82m2.84-2.84h-510.5V272.8l5.54-17.43a262.08,262.08,0,0,1,499.42,0l5.54,17.43V3.32Z"/><path class="cls-1" d="M1610.49,8.09V242.93a266.73,266.73,0,0,0-501,0V8.09h501m2.84-2.84H1106.69V258.93l5.5-15a263.89,263.89,0,0,1,495.64,0l5.5,15V5.25Z"/><path class="cls-1" d="M1608.57,10V232.65a268.65,268.65,0,0,0-497.12,0V10h497.12m.94-.95h-499V237.44l1.82-4.43a267.69,267.69,0,0,1,495.36,0l1.82,4.43V9.07Z"/><path class="cls-1" d="M1604.36,14.22v199a276.08,276.08,0,0,0-72.48-90.56,272.28,272.28,0,0,0-343.74,0,276,276,0,0,0-72.48,90.56v-199h488.7m1.9-1.89h-492.5V221.55a271,271,0,0,1,492.5,0V12.33Z"/><path class="cls-1" d="M1602.23,16.35V204.48a279.22,279.22,0,0,0-69-83.46,274.4,274.4,0,0,0-346.43,0,279.34,279.34,0,0,0-69,83.46V16.35h484.44m1-.94H1116.84V208.29a277.22,277.22,0,0,1,70.55-86.54,273.49,273.49,0,0,1,345.24,0,277.22,277.22,0,0,1,70.55,86.54V15.41Z"/><path class="cls-1" d="M1600.69,17.89V198.52a281.72,281.72,0,0,0-66.49-78.7,276,276,0,0,0-348.38,0,281.6,281.6,0,0,0-66.49,78.7V17.89h481.36m1-.94H1118.38v185.2a280.13,280.13,0,0,1,68-81.59,275,275,0,0,1,347.18,0,280,280,0,0,1,68,81.59V17Z"/><path class="cls-1" d="M1589.24,29.35V160.48a293.24,293.24,0,0,0-47.82-49.54,287.4,287.4,0,0,0-362.82,0,293.63,293.63,0,0,0-47.82,49.54V29.35h458.46m6.62-6.63h-471.7V181.34a285.69,285.69,0,0,1,58.61-65.26,280.78,280.78,0,0,1,354.48,0,286.48,286.48,0,0,1,58.61,65.25V22.72Z"/><path class="cls-1" d="M1587.25,31.34V154.68a296.76,296.76,0,0,0-44.57-45.29,289.34,289.34,0,0,0-409.91,45.28V31.34h454.48m2.83-2.84H1129.93V163a292.38,292.38,0,0,1,49.2-51.41,286.56,286.56,0,0,1,361.76,0A292.31,292.31,0,0,1,1590.08,163V28.5Z"/><path class="cls-1" d="M1584.81,33.77v114a291.7,291.7,0,0,0-449.61,0v-114h449.61m1.42-1.42H1133.79V151.78a290.28,290.28,0,0,1,452.44,0V32.35Z"/><path class="cls-1" d="M1584,34.55V145.66a292.44,292.44,0,0,0-448,0V34.55h448m.67-.66H1135.32V147.47a291.78,291.78,0,0,1,449.38,0V33.89Z"/><path class="cls-1" d="M1581.74,36.85V139.47a294.7,294.7,0,0,0-443.46,0V36.85h443.46m1.42-1.42h-446.3V143.26a293.29,293.29,0,0,1,446.3,0V35.43Z"/><path class="cls-1" d="M1579.61,39v94.9a297.46,297.46,0,0,0-184-94.9h184m-255.23,0a296.14,296.14,0,0,0-184,94.89V39h184m255.7-.47H1386.72a295.86,295.86,0,0,1,193.36,96.59V38.51Zm-246.78,0H1139.94v96.58A296,296,0,0,1,1333.3,38.51Z"/><path class="cls-1" d="M1575.11,43.48v79.09A300.62,300.62,0,0,0,1441.3,43.48h133.81m-296.39,0a300.44,300.44,0,0,0-133.8,79.07V43.48h133.8M1577,41.59H1426.07A298.44,298.44,0,0,1,1577,127.25V41.59Zm-283,0H1143v85.65A298.63,298.63,0,0,1,1294,41.59Z"/><path class="cls-1" d="M1571.26,47.33v66c-6-5.75-12.19-11.24-18.48-16.35a303.92,303.92,0,0,0-87-49.66h105.51m-317,0a303.92,303.92,0,0,0-87,49.66c-6.31,5.13-12.51,10.61-18.47,16.34v-66h105.5m318.88-1.89H1454.53a301.5,301.5,0,0,1,97.06,53c7.39,6,14.63,12.52,21.56,19.38V45.44Zm-307.66,0H1146.88v72.37c6.9-6.82,14.14-13.32,21.56-19.36a301.46,301.46,0,0,1,97-53Z"/><path class="cls-1" d="M1565.57,53v47.36c-3-2.66-6.09-5.28-9.2-7.81A311.65,311.65,0,0,0,1493.91,53h71.66m-339.46,0a311.93,311.93,0,0,0-62.46,39.55c-3.07,2.5-6.16,5.12-9.19,7.8V53h71.65M1567,51.6h-79.51a308.72,308.72,0,0,1,68,42.08q5.83,4.74,11.52,9.87V51.6Zm-334.45,0H1153v51.93q5.67-5.1,11.51-9.86a309.06,309.06,0,0,1,68-42.07Z"/><path class="cls-1" d="M1564,54.56V97c-2.19-1.89-4.43-3.77-6.69-5.61a314.05,314.05,0,0,0-56.79-36.82H1564m-344.56,0a313.83,313.83,0,0,0-56.79,36.82c-2.24,1.82-4.48,3.7-6.69,5.6V54.56h63.48m346-1.42h-71a311.79,311.79,0,0,1,62,39.34c3,2.48,6.06,5,9,7.63v-47Zm-339.87,0h-71v47c3-2.63,6-5.18,9-7.62a311.43,311.43,0,0,1,62-39.34Z"/><path class="cls-1" d="M1562.1,56.48V92.82c-1.16-1-2.35-2-3.54-2.93a316.65,316.65,0,0,0-50.14-33.41h53.68m-350.51,0a317.56,317.56,0,0,0-50.12,33.4q-1.79,1.45-3.55,2.94V56.48h53.67m351.93-1.42h-60.86a314.6,314.6,0,0,1,55,35.93c2,1.6,3.92,3.24,5.85,4.9V55.06Zm-346.16,0H1156.5V95.88c2-1.67,3.92-3.31,5.86-4.9a314.61,314.61,0,0,1,55-35.92Z"/><path class="cls-1" d="M1559.5,59.09v28.2a321,321,0,0,0-41-28.2h41m-358,0a319.82,319.82,0,0,0-41,28.2V59.09h41m358.89-1H1514.9a320.58,320.58,0,0,1,44.72,30.46l.82.68V58.14Zm-355.32,0h-45.54V89.28l.84-.69a319.18,319.18,0,0,1,44.7-30.45Z"/><path class="cls-1" d="M1553.23,65.35v9.14q-6.35-4.72-12.9-9.14h12.9m-373.54,0q-6.56,4.41-12.9,9.14V65.35h12.9m379.21-5.67h-38.24a321.46,321.46,0,0,1,38.24,26.37V59.68Zm-359.54,0h-38.24V86a321.75,321.75,0,0,1,38.24-26.36Z"/><path class="cls-1" d="M1360,76.26a257.88,257.88,0,0,1,258.1,257.63h-516.2A257.91,257.91,0,0,1,1360,76.26m0-.47c-142.81,0-258.57,115.77-258.57,258.57h517.14c0-142.8-115.77-258.57-258.57-258.57Z"/><path class="cls-1" d="M1360,81.28a250.4,250.4,0,0,1,97.64,19.65,255.09,255.09,0,0,1,134.62,133A250.46,250.46,0,0,1,1613,328.87H1107A250.46,250.46,0,0,1,1127.75,234a255.09,255.09,0,0,1,134.62-133A250.4,250.4,0,0,1,1360,81.28m0-2.36c-139.58,0-253.73,113-255.42,252.32h510.84C1613.74,191.92,1499.59,78.92,1360,78.92Z"/><path class="cls-1" d="M1360,82.78a252.12,252.12,0,0,1,251.48,244.59h-503A252.12,252.12,0,0,1,1360,82.78m0-1.42a253.54,253.54,0,0,0-252.94,247.43h505.87A253.52,253.52,0,0,0,1360,81.36Z"/><path class="cls-1" d="M1360,85.37a249.51,249.51,0,0,1,248.8,239.41H1111.2A249.53,249.53,0,0,1,1360,85.37m0-.47a250,250,0,0,0-249.3,240.36H1609.3A250,250,0,0,0,1360,84.9Z"/><path class="cls-1" d="M1360,85.37a249.51,249.51,0,0,1,248.8,239.41H1111.2A249.53,249.53,0,0,1,1360,85.37m0-.47a250,250,0,0,0-249.3,240.36H1609.3A250,250,0,0,0,1360,84.9Z"/><path class="cls-1" d="M1360,85.37a249.51,249.51,0,0,1,248.8,239.41H1111.2A249.53,249.53,0,0,1,1360,85.37m0-.47a250,250,0,0,0-249.3,240.36H1609.3A250,250,0,0,0,1360,84.9Z"/><path class="cls-1" d="M1360,90.47a244.44,244.44,0,0,1,243.44,229.21H1116.56A244.46,244.46,0,0,1,1360,90.47m0-3.4a247.85,247.85,0,0,0-247,236H1607a247.83,247.83,0,0,0-247-236Z"/><path class="cls-1" d="M1360,92.36a242.56,242.56,0,0,1,241.44,225.43H1118.57A242.58,242.58,0,0,1,1360,92.36m0-1.89a244.46,244.46,0,0,0-243.46,229.22h486.91A244.42,244.42,0,0,0,1360,90.47Z"/><path class="cls-1" d="M1360,97.65A237.3,237.3,0,0,1,1595.72,312.5H1124.3A237.32,237.32,0,0,1,1360,97.65m0-3.79a241.09,241.09,0,0,0-239.83,222.43h479.65A241.07,241.07,0,0,0,1360,93.86Z"/><path class="cls-1" d="M1360,100.17A234.81,234.81,0,0,1,1592.93,310H1127.09A234.81,234.81,0,0,1,1360,100.17m0-.47a235.27,235.27,0,0,0-233.44,210.75h466.88A235.25,235.25,0,0,0,1360,99.7Z"/><path class="cls-1" d="M1360,107.56A225.39,225.39,0,0,1,1519.3,173.2a227.9,227.9,0,0,1,65.27,129.39H1135.44a227.76,227.76,0,0,1,65.28-129.39A225.39,225.39,0,0,1,1360,107.56m0-3.79a231.23,231.23,0,0,0-228.89,202.61h457.77A231.21,231.21,0,0,0,1360,103.77Z"/><path class="cls-1" d="M1360,109.06a223.88,223.88,0,0,1,158.23,65.21,226.78,226.78,0,0,1,64.59,126.82H1137.18a226.7,226.7,0,0,1,64.6-126.82A223.86,223.86,0,0,1,1360,109.06m0-1.89a225.76,225.76,0,0,0-159.56,65.75A228.22,228.22,0,0,0,1135,303h450a228.23,228.23,0,0,0-65.45-130.06A225.77,225.77,0,0,0,1360,107.17Z"/><path class="cls-1" d="M1360,114.16a218.84,218.84,0,0,1,154.65,63.74A222.59,222.59,0,0,1,1576.82,296H1143.19a222.54,222.54,0,0,1,62.17-118.09A218.84,218.84,0,0,1,1360,114.16m0-.48a219.32,219.32,0,0,0-155,63.88,222.8,222.8,0,0,0-62.4,118.9h434.76a223,223,0,0,0-62.4-118.9,219.32,219.32,0,0,0-155-63.88Z"/><path class="cls-1" d="M1360,117.62a215.4,215.4,0,0,1,152.22,62.74,219.51,219.51,0,0,1,60.42,112.17H1147.36a219.44,219.44,0,0,1,60.43-112.17A215.4,215.4,0,0,1,1360,117.62m0-1.9A217.27,217.27,0,0,0,1206.46,179a221,221,0,0,0-61.39,115.42h429.87A221.08,221.08,0,0,0,1513.56,179,217.29,217.29,0,0,0,1360,115.72Z"/><path class="cls-1" d="M1360,121.15a211.89,211.89,0,0,1,149.74,61.73A216.05,216.05,0,0,1,1568.28,289H1151.72a216,216,0,0,1,58.56-106.11A211.83,211.83,0,0,1,1360,121.15m0-.94a212.84,212.84,0,0,0-150.39,62,217.64,217.64,0,0,0-58.82,106.59l-.25,1.15h418.91l-.25-1.15a217.86,217.86,0,0,0-58.8-106.59,212.86,212.86,0,0,0-150.4-62Z"/><path class="cls-1" d="M1360,128.34A204.77,204.77,0,0,1,1504.69,188a210.69,210.69,0,0,1,54.43,93.81H1160.89A210.71,210.71,0,0,1,1215.33,188,204.77,204.77,0,0,1,1360,128.34m0-1.89a206.62,206.62,0,0,0-146,60.2,212.61,212.61,0,0,0-55.17,95.51l-.4,1.54h403.15l-.41-1.54A212.5,212.5,0,0,0,1506,186.65a206.63,206.63,0,0,0-146-60.2Z"/><path class="cls-1" d="M1360,130.86a202.29,202.29,0,0,1,142.91,58.92,208.57,208.57,0,0,1,52.89,89.51H1164.2a208.47,208.47,0,0,1,52.9-89.51A202.27,202.27,0,0,1,1360,130.86m0-.47a202.7,202.7,0,0,0-143.24,59.06,207.65,207.65,0,0,0-53.19,90.31h392.85a207.75,207.75,0,0,0-53.18-90.31A202.7,202.7,0,0,0,1360,130.39Z"/><path class="cls-1" d="M1360,135.8a197.33,197.33,0,0,1,139.44,57.5,203.94,203.94,0,0,1,49.68,81H1170.88a203.78,203.78,0,0,1,49.7-81A197.29,197.29,0,0,1,1360,135.8m0-3.78a201,201,0,0,0-142.09,58.59,207.28,207.28,0,0,0-52.18,87.52h388.52a207.4,207.4,0,0,0-52.15-87.52A201.07,201.07,0,0,0,1360,132Z"/><path class="cls-1" d="M1360,145.55a187.66,187.66,0,0,1,132.58,54.69,194.36,194.36,0,0,1,42.61,64.35H1184.81a194.18,194.18,0,0,1,42.62-64.35A187.66,187.66,0,0,1,1360,145.55m0-9.46a197,197,0,0,0-139.23,57.42,203.53,203.53,0,0,0-49.5,80.54h377.45a203.53,203.53,0,0,0-49.49-80.54A197,197,0,0,0,1360,136.09Z"/><path class="cls-1" d="M1360,146.08a187.1,187.1,0,0,1,132.22,54.53,192.94,192.94,0,0,1,42.2,63.46H1185.58a192.81,192.81,0,0,1,42.21-63.46A187.12,187.12,0,0,1,1360,146.08m0-.48a187.59,187.59,0,0,0-132.55,54.67,194.29,194.29,0,0,0-42.58,64.28h350.25a194.42,194.42,0,0,0-42.57-64.28A187.61,187.61,0,0,0,1360,145.6Z"/><path class="cls-1" d="M1360,147.43a185.73,185.73,0,0,1,131.26,54.15,191.32,191.32,0,0,1,41.12,61.14H1187.62a191.18,191.18,0,0,1,41.13-61.14A185.75,185.75,0,0,1,1360,147.43m0-.47a186.21,186.21,0,0,0-131.59,54.28,191.7,191.7,0,0,0-41.51,61.95H1533.1a191.86,191.86,0,0,0-41.49-61.95A186.25,186.25,0,0,0,1360,147Z"/><path class="cls-1" d="M1360,147.91a185.33,185.33,0,0,1,130.93,54,191,191,0,0,1,40.74,60.33H1188.34a190.68,190.68,0,0,1,40.74-60.33,185.33,185.33,0,0,1,130.93-54m0-.95a186.21,186.21,0,0,0-131.59,54.28,191.7,191.7,0,0,0-41.51,61.95H1533.1a191.86,191.86,0,0,0-41.49-61.95A186.25,186.25,0,0,0,1360,147Z"/><path class="cls-1" d="M1360,152.6a180.64,180.64,0,0,1,127.64,52.65,186.24,186.24,0,0,1,36.77,52.3H1195.59a185.9,185.9,0,0,1,36.79-52.3A180.61,180.61,0,0,1,1360,152.6m0-.47a181.07,181.07,0,0,0-128,52.78A186,186,0,0,0,1194.84,258h330.33A186.35,186.35,0,0,0,1488,204.91a181.1,181.1,0,0,0-128-52.78Z"/><path class="cls-1" d="M1360,157.83A175.4,175.4,0,0,1,1484,209a180.37,180.37,0,0,1,32,43.36H1204.05a180.14,180.14,0,0,1,32-43.36,175.43,175.43,0,0,1,124-51.14m0-1a176.37,176.37,0,0,0-124.62,51.41,180.82,180.82,0,0,0-32.9,45h315a180.85,180.85,0,0,0-32.89-45A176.33,176.33,0,0,0,1360,156.88Z"/><path class="cls-1" d="M1360,159a174.27,174.27,0,0,1,123.15,50.8A179.49,179.49,0,0,1,1514,251.17H1206a178.71,178.71,0,0,1,30.88-41.38A174.25,174.25,0,0,1,1360,159m0-.48a174.76,174.76,0,0,0-123.48,50.94,179.51,179.51,0,0,0-31.34,42.19h309.63a179.75,179.75,0,0,0-31.33-42.19A174.72,174.72,0,0,0,1360,158.51Z"/><path class="cls-1" d="M1360,168.42a165.06,165.06,0,0,1,136.55,72.24l.73,1.07H1222.72l.73-1.07A165.15,165.15,0,0,1,1360,168.42m0-.95a166.06,166.06,0,0,0-137.34,72.66l-1.74,2.55h278.15l-1.74-2.55A166,166,0,0,0,1360,167.47Z"/><path class="cls-1" d="M1360,167.47a166,166,0,0,1,137.33,72.66l1.74,2.55H1220.93l1.74-2.55A166.06,166.06,0,0,1,1360,167.47m0-1.89a167.9,167.9,0,0,0-138.9,73.48l-1.74,2.55-2,3h285.3l-2-3-1.74-2.55A167.82,167.82,0,0,0,1360,165.58Z"/><path class="cls-1" d="M1360,170.05a163.33,163.33,0,0,1,134.18,70H1225.82a161.21,161.21,0,0,1,18.83-22.44A163.24,163.24,0,0,1,1360,170.05m0-.94a164.32,164.32,0,0,0-136,71.94h272a164.32,164.32,0,0,0-136-71.94Z"/><path class="cls-1" d="M1360,171.27a162.08,162.08,0,0,1,114.51,47.26,159.27,159.27,0,0,1,17.31,20.35H1228.18a160.38,160.38,0,0,1,17.32-20.35A162.08,162.08,0,0,1,1360,171.27m0-.94a163.15,163.15,0,0,0-133.66,69.49h267.31a161.32,161.32,0,0,0-18.48-22A163,163,0,0,0,1360,170.33Z"/><path class="cls-1" d="M1360,177.24a156.07,156.07,0,0,1,110.31,45.54c3.21,3.16,6.33,6.56,9.33,10.13H1240.37q4.5-5.37,9.33-10.14A156.12,156.12,0,0,1,1360,177.24m0-2.83a159,159,0,0,0-112.31,46.34,154.33,154.33,0,0,0-13.27,15h251.15a152.5,152.5,0,0,0-13.26-15A158.94,158.94,0,0,0,1360,174.41Z"/><path class="cls-1" d="M1360,178.54a154.81,154.81,0,0,1,109.4,45.16c2.53,2.49,5,5.15,7.43,7.92H1243.18c2.42-2.78,4.91-5.43,7.43-7.92A154.83,154.83,0,0,1,1360,178.54m0-1.42a156.22,156.22,0,0,0-110.4,45.57c-3.26,3.22-6.44,6.69-9.5,10.35h239.8c-3.06-3.66-6.24-7.13-9.5-10.35A156.2,156.2,0,0,0,1360,177.12Z"/><path class="cls-1" d="M1360,180.31A153,153,0,0,1,1468.17,225c1.59,1.56,3.17,3.2,4.72,4.89H1247.13c1.57-1.71,3.15-3.35,4.72-4.9A153.08,153.08,0,0,1,1360,180.31m0-1.42a154.52,154.52,0,0,0-109.16,45.05c-2.33,2.31-4.64,4.77-6.9,7.33h232.12c-2.25-2.55-4.56-5-6.9-7.32A154.47,154.47,0,0,0,1360,178.89Z"/><path class="cls-1" d="M1360,181.4a152,152,0,0,1,107.4,44.33c1,1,2,2,3,3H1249.65c1-1,2-2.07,3-3A152,152,0,0,1,1360,181.4m0-.47a152.5,152.5,0,0,0-107.73,44.46c-1.23,1.22-2.48,2.51-3.73,3.84h222.92c-1.23-1.32-2.48-2.6-3.73-3.84A152.49,152.49,0,0,0,1360,180.93Z"/><path class="cls-1" d="M1360,185.74a147.88,147.88,0,0,1,99.69,38.68H1260.31a147.91,147.91,0,0,1,99.7-38.68m0-.47a148,148,0,0,0-100.91,39.62h201.82A148,148,0,0,0,1360,185.27Z"/><path class="cls-1" d="M1360,187.91a145.88,145.88,0,0,1,93.91,34.34H1266.09A145.89,145.89,0,0,1,1360,187.91m0-1.42a147.11,147.11,0,0,0-97.74,37.18h195.47A147.09,147.09,0,0,0,1360,186.49Z"/><path class="cls-1" d="M1360,189a145.27,145.27,0,0,1,90.87,32.15H1269.13A145.3,145.3,0,0,1,1360,189m0-.47a145.3,145.3,0,0,0-92.21,33.1h184.41a145.25,145.25,0,0,0-92.2-33.1Z"/><path class="cls-1" d="M1360,193.76a139.6,139.6,0,0,1,76.21,22.64H1283.79A139.66,139.66,0,0,1,1360,193.76m0-.47a140.79,140.79,0,0,0-77.8,23.59H1437.8A140.74,140.74,0,0,0,1360,193.29Z"/><path class="cls-1" d="M1360,195a138.5,138.5,0,0,1,72,20.2H1288a138.57,138.57,0,0,1,72-20.2m0-.47a138.87,138.87,0,0,0-73.64,21.14h147.28A138.9,138.9,0,0,0,1360,194.51Z"/><path class="cls-1" d="M1360,195a138.5,138.5,0,0,1,72,20.2H1288a138.57,138.57,0,0,1,72-20.2m0-.47a138.87,138.87,0,0,0-73.64,21.14h147.28A138.9,138.9,0,0,0,1360,194.51Z"/><path class="cls-1" d="M1360,195a138.5,138.5,0,0,1,72,20.2H1288a138.57,138.57,0,0,1,72-20.2m0-.47a138.87,138.87,0,0,0-73.64,21.14h147.28A138.9,138.9,0,0,0,1360,194.51Z"/><path class="cls-1" d="M1360,200.36a133.53,133.53,0,0,1,49.13,9.44h-98.27a133.62,133.62,0,0,1,49.14-9.44m0-3.41a136.75,136.75,0,0,0-64.54,16.26h129.08A136.78,136.78,0,0,0,1360,197Z"/><path class="cls-1" d="M1360,202.65a130.14,130.14,0,0,1,35.16,4.85h-70.32a130.25,130.25,0,0,1,35.16-4.85m0-.94a131.92,131.92,0,0,0-41.49,6.74h83a131.81,131.81,0,0,0-41.48-6.74Z"/><path class="cls-1" d="M1360,203.75a129.5,129.5,0,0,0-26,2.66h52.08a129.5,129.5,0,0,0-26-2.66Z"/><polyline class="cls-2" points="1527.19 334.36 1192.83 744.53 1192.82 334.36"/><path class="cls-1" d="M1526.22,336.28l-166.83,680.47A567.81,567.81,0,0,1,1102.23,745h90.82l.14-.18,333-408.53m1-1.93L1192.82,744.51H1101.5a568.27,568.27,0,0,0,258.21,272.93l167.47-683.09Z"/><path class="cls-1" d="M1510.17,368.5,1354.12,1005A561.2,561.2,0,0,1,1114.6,752.9h82.21l1.36-1.67,312-382.73m9.21-18.48L1194.65,748.36h-87.18a565.57,565.57,0,0,0,249.67,263.4L1519.38,350Z"/><path d="M1505.61,377.65l-153,624a560.16,560.16,0,0,1-234.45-246.48h79.7l.77-.94,307-376.57m5.18-10.39L1196.67,752.6h-82.55a562.56,562.56,0,0,0,240.2,252.86l156.47-638.2Z"/><path class="cls-1" d="M1514.13,360.55l-158.72,647.37a564.61,564.61,0,0,1-243.89-257h84.36l.2-.24,318.05-390.16m1.34-2.69-319.9,392.43h-85.09a564.77,564.77,0,0,0,245.37,258.62l159.62-651Z"/><path class="cls-1" d="M1494.56,399.84,1349,993.4A555.54,555.54,0,0,1,1127,760.61h73.52l1.36-1.68,292.73-359.09m9.2-18.48-305.45,374.7h-78.68A559.81,559.81,0,0,0,1352,1000.27l151.73-618.91Z"/><path class="cls-1" d="M1488.37,412.26,1347,988.75a554.32,554.32,0,0,1-215.1-225.09h70l.2-.25,286.25-351.15m1.34-2.69L1201.6,763h-70.76a555.1,555.1,0,0,0,216.63,226.78l142.24-580.2Z"/><path class="cls-1" d="M1484.85,419.33,1345.9,986.09c-88.71-51.47-163.64-129.79-211.12-220.69h68l.14-.18,282-345.89m1-1.93L1202.52,764.92H1134c47.65,91.56,122.84,170.19,212.21,221.9l139.6-569.42Z"/><path class="cls-1" d="M1475,439.21,1342.71,978.55c-83-49.53-153.73-123.32-199.8-208.27h62.15l.57-.7L1475,439.21m3.83-7.7L1204.16,768.39h-64.41c46.68,87.35,118.9,162.72,204.19,213.09l134.84-550Z"/><path class="cls-1" d="M1449,491.28,1334.48,958.39a541.61,541.61,0,0,1-169.54-175.32h46.2l2.33-2.85L1449,491.28m15.73-31.57-257.27,315.6h-56c44.57,79,110.75,147.84,188,195.37l125.27-511Z"/><path class="cls-1" d="M1449.72,489.84,1334.71,959a544.73,544.73,0,0,1-170.39-176.23H1211l.14-.17,238.61-292.71m1-1.92L1210.75,782.25h-47.26c42.08,70.67,102.4,133.1,171.52,177.45l115.67-471.78Z"/><path class="cls-1" d="M1432.79,523.82,1329.42,945.45A541.25,541.25,0,0,1,1179.3,791.07h35.64l.57-.7,217.28-266.55m3.84-7.7L1214,789.18h-38.18c39.28,62.42,93.64,118.41,154.75,159.35l106-432.41Z"/><path class="cls-1" d="M1423.48,542.52l-96.93,395.37C1273,900.52,1224,850.33,1187.77,795.66h29.35l1-1.25,205.34-251.89m6.9-13.86L1215.5,792.26h-34c37.83,58.62,89.81,112,147.21,151.24l101.7-414.84Z"/><path class="cls-1" d="M1419.7,550.1l-94.32,384.7a540.22,540.22,0,0,1-134.12-137.27H1218l.42-.52L1419.7,550.1m2.88-5.77L1217.33,796.11H1188.6a541.13,541.13,0,0,0,137.67,141l96.31-392.83Z"/><path class="cls-1" d="M1418.5,552.52,1325,933.81c-50.61-35.89-97.67-84-132.64-135.69h25.92l.14-.17L1418.5,552.52m1-1.92-201.39,247h-26.58c35.25,52.27,82.61,100.75,133.83,137l94.14-384Z"/><path class="cls-1" d="M1410.33,568.91l-87.81,358.15A544.2,544.2,0,0,1,1200,802.15h20.17l.43-.53,189.7-232.71m2.88-5.78-193.68,237.6h-22.21A542.9,542.9,0,0,0,1323.4,929.45l89.81-366.32Z"/><path class="cls-1" d="M1406,577.59l-84.8,345.87a545.36,545.36,0,0,1-117.06-119.18h17.07l.14-.17L1406,577.59m1-1.92L1221,803.81h-17.75A543.47,543.47,0,0,0,1321.5,924.26L1407,575.67Z"/><path class="cls-1" d="M1396.88,595.91l-78.42,319.86a545.34,545.34,0,0,1-105.48-107h10.37l.57-.7,173-212.17m3.84-7.7L1222.45,806.89h-13.2A543.92,543.92,0,0,0,1319.61,919l81.11-330.81Z"/><path class="cls-1" d="M1369.42,651l-59.08,241a535,535,0,0,1-75-76.45L1369.42,651m18-36.2-161.89,198.6h-3.23a543.61,543.61,0,0,0,93.32,94.28l71.8-292.88Z"/><path class="cls-1" d="M1365.66,658.59l-56.41,230.09a537,537,0,0,1-71.56-73.11l128-157m3.84-7.71L1235.26,815.56a534.85,534.85,0,0,0,75.1,76.52l59.14-241.2Z"/><path class="cls-1" d="M1356.44,677.1l-49.85,203.33a537.18,537.18,0,0,1-63-64.85L1356.44,677.1m1-1.93L1242.94,815.58a534.91,534.91,0,0,0,63.92,65.71l50.54-206.12Z"/><path class="cls-1" d="M1338.57,713l-37,151.14A524.35,524.35,0,0,1,1255,815.53L1338.57,713m5.94-11.93-93.35,114.52a529.86,529.86,0,0,0,52,54L1344.51,701Z"/><path d="M1327,736.22l-28.69,117a520.3,520.3,0,0,1-35.89-37.81L1327,736.22m1.92-3.85-67.73,83.1a520.83,520.83,0,0,0,37.65,39.6l30.08-122.7Z"/><path d="M1313.54,763.21l-18.93,77.21c-8.12-8.1-16-16.53-23.55-25.1l42.48-52.11m3.26-6.55L1269,815.36c8.44,9.68,17.33,19.13,26.54,28.2l21.3-86.9Z"/><path class="cls-1" d="M1292.76,804.92l-3.69,15c-1.53-1.65-3-3.3-4.54-4.94l8.23-10.1m9.21-18.48-23.42,28.73q6.32,7.07,13,14L1302,786.44Z"/><path class="cls-1" d="M1293.38,803.67,1284.12,815q2.54,2.79,5.12,5.55l4.14-16.91Z"/><path class="cls-1" d="M1332.87,724.4l-32.95,134.39a522.19,522.19,0,0,1-41.3-43.3l74.25-91.09m3.84-7.7-80.55,98.82A525.91,525.91,0,0,0,1301,862.37l35.71-145.67Z"/><path class="cls-1" d="M1522.76,336.47,1194.93,738.61V336.47h327.83m1-.48H1194.45v404l329.31-404Z"/><path class="cls-1" d="M1517,339.21l-319.31,391.7V339.21H1517m6.78-3.22H1194.45v404l329.31-404Z"/><path class="cls-1" d="M1510.75,342.17,1200.63,722.59V342.17h310.12m1-.47H1200.16V723.92L1511.75,341.7Z"/><path class="cls-1" d="M1505.75,344.55,1203,715.92V344.55h302.74m2-.95H1202.06v375l305.68-375Z"/><path class="cls-1" d="M1502.18,346.24,1204.7,711.15V346.24h297.48m3-1.42H1203.28V715.14l301.89-370.32Z"/><path class="cls-1" d="M1500.17,347.2,1205.66,708.46V347.2h294.51m1-.47h-296V709.79l296-363.06Z"/><path class="cls-1" d="M1496.6,348.9,1207.36,703.71V348.9H1496.6m2-.95H1206.41V706.36L1498.59,348Z"/><path class="cls-1" d="M1490.32,351.88l-280,343.44V351.88h280m4-1.89H1208.45V700.64L1494.3,350Z"/><path class="cls-1" d="M1484.73,354.54,1213,687.87V354.54h271.73m1-.48H1212.52V689.2l273.21-335.14Z"/><path class="cls-1" d="M1482.44,355.62,1214.08,684.81V355.62h268.36m1-.47H1213.61v331l269.83-331Z"/><path class="cls-1" d="M1477.87,357.79,1216.25,678.71V357.79h261.62m3-1.42h-266V682.7l266-326.33Z"/><path class="cls-1" d="M1468.14,362.41,1220.87,665.73V362.41h247.27m1-.47H1220.4V667.06l248.74-305.12Z"/><path class="cls-1" d="M1457.73,367.35l-231.91,284.5V367.35h231.91m8-3.78H1222V662.48L1465.7,363.57Z"/><path class="cls-1" d="M1454.27,369l-.37.45L1228,646.62l-.49.61V369h226.81m2-.95H1226.51V649.88l2.18-2.66,226-277.17,1.62-2Z"/><path class="cls-1" d="M1450.7,370.7,1229.16,642.46V370.7H1450.7m3-1.42h-226V646.45l226-277.17Z"/><path class="cls-1" d="M1440.58,375.51,1234,629V375.51h206.61m8-3.79H1230.18V639.58l218.36-267.86Z"/><path class="cls-1" d="M1435.53,377.9,1236.36,622.22V377.9h199.17m1-.47H1235.88V623.55l200.65-246.12Z"/><path class="cls-1" d="M1433,379.12,1237.58,618.79V379.12H1433m1-.47H1237.11V620.12L1434,378.65Z"/><path class="cls-1" d="M1420,385.3l-.19.23L1244,601.12l-.25.31V385.3H1420m2-.95H1242.81V604.09l1.93-2.37L1420.5,386.13l1.45-1.78Z"/><path class="cls-1" d="M1418.66,385.91l-174.29,213.8V385.91h174.29m1-.47H1243.9V601l175.76-215.59Z"/><path class="cls-1" d="M1416.09,387.14,1245.6,596.27V387.14h170.49m1-.48h-172V597.6l172-210.94Z"/><path class="cls-1" d="M1392.41,398.38l-135.57,166.3V398.38h135.57m12.95-6.15H1250.7V582l154.66-189.72Z"/><path class="cls-1" d="M1392.64,398.28l-1,1.22L1258.07,563.35l-1.34,1.63V398.28h135.91m1-.48H1256.26V566.31l2.17-2.66L1392,399.8l1.63-2Z"/><path d="M1387.67,400.63,1259.09,558.36V400.63h128.58m3.39-1.6H1257.49V562.88L1391.06,399Z"/><path class="cls-1" d="M1384.63,402.08,1260.54,554.3V402.08h124.09m1-.47H1260.07v154l125.56-154Z"/><path class="cls-1" d="M1373.19,407.51,1266,539V407.51h107.22m1-.47H1265.5V540.36L1374.19,407Z"/><path class="cls-1" d="M1366.63,410.63l-97.54,119.65V410.63h97.54m5-2.37H1266.72V536.93l104.89-128.67Z"/><path d="M1353.77,416.74l-78.57,96.37V416.74h78.57m11.55-5.49h-95.61V528.53l95.61-117.28Z"/><path class="cls-1" d="M1342.06,422.3l-61.3,75.19V422.3h61.3m9-4.26H1276.5v91.41L1351,418Z"/><path class="cls-1" d="M1333.74,426.25l-49,60.14V426.25h49m3-1.42h-53.44v65.54l53.44-65.54Z"/><path d="M1326.44,429.72l-38.26,46.93V429.72h38.26m2-1h-41.2v50.54l41.2-50.54Z"/><path class="cls-1" d="M1323.15,431.28l-33.41,41v-41h33.41m1-.47h-34.88v42.78l34.88-42.78Z"/><path class="cls-1" d="M1312.58,436.3l-17.82,21.86V436.3h17.82m3-1.42h-22.22v27.26l22.22-27.26Z"/><path d="M1303.24,440.74l-4,5v-5h4m7.17-3.41h-14.62v17.94l14.62-17.94Z"/><polygon class="cls-1" points="1301.83 441.41 1299.86 441.41 1299.86 443.82 1301.83 441.41 1301.83 441.41"/><path class="cls-1" d="M798.57.48,953.41,334.57,552.48,167.42V.48H798.57m.3-.48H552V167.74L954.35,335.48,798.87,0Z"/><path d="M797.11,2.76,948.86,330.2,554.76,165.9V2.76H797.11M798,1.34H553.34V166.85L951.68,332.91,798,1.34Z"/><path class="cls-1" d="M795.93,4.61,945.2,326.67l-388.59-162V4.61H795.93m.61-1H555.66V165.3L947.08,328.48,796.54,3.66Z"/><path class="cls-1" d="M793.91,7.77l145,312.84-379.12-158V7.77H793.91m.91-1.41H558.36V163.5L941.72,323.33l-146.9-317Z"/><path class="cls-1" d="M791.46,11.61,931.28,313.29,563.61,160V11.61H791.46m1.63-2.56h-232V161.71L936.36,318.17,793.09,9.05Z"/><path class="cls-1" d="M790.08,13.76,927,309.17,565.76,158.57V13.76H790.08m.31-.47H565.29v145.6L927.94,310.07,790.39,13.29Z"/><path d="M787,18.54,917.5,300l-347-144.64V18.54H787M788.67,16H568V157.09l354.6,147.83L788.67,16Z"/><path d="M782.68,25.35,904,287,577.35,150.84V25.35H782.68m1.63-2.55H574.8V152.55L909,291.88,784.31,22.8Z"/><path d="M781.8,26.74,901.2,284.35,578.74,149.92V26.74H781.8m.3-.48H578.26v124l323.88,135-120-259Z"/><path class="cls-1" d="M777,34.27,886.21,269.94l-299.94-125V34.27H777m2.9-4.54H581.73v118.2l313.51,130.7L779.89,29.73Z"/><path class="cls-1" d="M775.4,36.75,881.29,265.21l-292.54-122V36.75H775.4m.31-.48H588.28V143.56l294,122.55L775.71,36.27Z"/><path class="cls-1" d="M773.93,39.06,876.69,260.79,591.06,141.71V39.06H773.93m.3-.48H590.58V142l287,119.67L774.23,38.58Z"/><path class="cls-1" d="M772.15,41.84l99,213.63L593.84,139.85v-98H772.15m.6-1H592.89v99.59L873,257.28,772.75,40.89Z"/><path class="cls-1" d="M770.37,44.62l95.25,205.52L596.62,138V44.62H770.37m.91-1.42H595.2v95.74L868.45,252.86,771.28,43.2Z"/><path class="cls-1" d="M767.17,49.63l88.5,190.94-254-105.91v-85H767.17m.91-1.42H600.21v87.4L858.49,243.29,768.08,48.21Z"/><path class="cls-1" d="M765.28,52.59l84.5,182.31L604.59,132.69V52.59H765.28m.91-1.42h-163v82.46l249.43,104L766.19,51.17Z"/><path class="cls-1" d="M762.42,57.07l78.45,169.27L609.07,129.7V57.07H762.42m1.88-2.93H606.14v77.52L846.7,232,764.3,54.14Z"/><path class="cls-1" d="M760.53,60,835,220.67,612,127.73V60H760.53m1.87-2.94H609.1v72.58l231.71,96.6L762.4,57.1Z"/><path class="cls-1" d="M754.47,69.52l61.64,133L621.52,121.4V69.52h133M758,64H616v61l211,88L758,64Z"/><path class="cls-1" d="M753.25,71.44l59,127.42L623.44,120.13V71.44H753.25m.3-.47H623v49.47l190.28,79.33L753.55,71Z"/><path class="cls-1" d="M751.52,74.13l55.42,119.58L626.13,118.33V74.13H751.52m.31-.47H625.66v45l182.22,76-56-121Z"/><path class="cls-1" d="M749.2,77.78l50.5,109L629.78,115.9V77.78H749.2m.9-1.42H628.36v40.49l174.16,72.61L750.1,76.36Z"/><path class="cls-1" d="M744.53,85.09l40.62,87.66L637.09,111V85.09H744.53m.9-1.42H635.67V112L788,175.47l-42.55-91.8Z"/><path class="cls-1" d="M741.59,89.69,776,164,641.69,108V89.69h99.9m1.87-2.94H638.75v23.17l143.1,59.66L743.46,86.75Z"/><path class="cls-1" d="M735.86,98.66l22.3,48.13L650.66,102V98.66h85.2m4.41-6.9H643.76v14.82L771.9,160,740.27,91.76Z"/><path class="cls-1" d="M733.29,102.69l16.87,36.4-87.32-36.4h70.45m2.9-4.54h-86v4.17l109,45.46-23-49.63Z"/><path class="cls-1" d="M731.8,105l13.74,29.64L674.45,105H731.8m.3-.47h-60l74.4,31-14.38-31Z"/><path class="cls-1" d="M728.74,109.81,736,125.48l-37.58-15.67h30.32m.9-1.42H691.32l47.5,19.8-9.18-19.8Z"/><path class="cls-1" d="M726.29,113.64l2.09,4.51-10.82-4.51h8.73m1.63-2.55H704.79l28.67,12-5.54-12Z"/><polygon class="cls-1" points="725.71 114.55 722.11 114.55 726.57 116.41 725.71 114.55 725.71 114.55"/><path class="cls-1" d="M1042.81,2.94v329.6H956.22L803.47,2.94h239.34M1045.74,0H798.87L954.35,335.48h91.39V0Z"/><path class="cls-1" d="M1041.8,3.94v327.6H956.87L805,3.94H1041.8m.48-.47h-238L956.57,332h85.71V3.47Z"/><path class="cls-1" d="M1036.26,9.49V326H960.41L813.72,9.49h222.54m2.55-2.56H809.72L958.78,328.55h80V6.93Z"/><path class="cls-1" d="M1033.29,12.45V323h-71L818.36,12.45h214.93m2.56-2.55H814.37l146.3,315.68h75.18V9.9Z"/><path class="cls-1" d="M1032.3,13.45V322H962.94l-143-308.58H1032.3m.47-.47H819.19L962.64,322.5h70.13V13Z"/><path class="cls-1" d="M1030.18,15.57V319.91H964.3L823.24,15.57h206.94m.47-.47H822.5L964,320.39h66.65V15.1Z"/><path class="cls-1" d="M1025.38,20.37V315.12h-58L830.75,20.37h194.63M1026.8,19H828.53L966.45,316.53h60.35V19Z"/><path class="cls-1" d="M1020.31,25.43V310.05H970.6L838.69,25.43h181.62m3.41-3.4H833.36L968.42,313.45h55.3V22Z"/><path class="cls-1" d="M1017.4,28.35V307.13H972.46L843.25,28.35H1017.4m1.89-1.9h-179L971.25,309h48V26.45Z"/><path class="cls-1" d="M1015.74,30V305.47H973.52L845.85,30h169.89m.47-.47H845.11L973.22,306h43V29.54Z"/><path class="cls-1" d="M1013.81,31.93V303.55H974.75L848.86,31.93h164.95m.48-.47H848.12L974.45,304h39.84V31.46Z"/><path class="cls-1" d="M1011.42,34.33V301.15H976.28L852.62,34.33h158.8m.94-.94H851.14L975.68,302.1h36.68V33.39Z"/><path class="cls-1" d="M1006.34,39.41V296.08H979.52l-119-256.67h145.78m2.56-2.56H856.56L977.89,298.63h31V36.85Z"/><path class="cls-1" d="M1005,40.79v253.9H980.41L862.73,40.79H1005m.47-.47H862L980.1,295.16h25.33V40.32Z"/><path class="cls-1" d="M1003,42.72V292.77H981.64l-115.9-250H1003m.48-.48H865l116.33,251h22.18v-251Z"/><path class="cls-1" d="M996.49,49.26v237H985.82L876,49.26h120.5m.47-.47H875.25l110.26,237.9H997V48.79Z"/><path class="cls-1" d="M987.74,58V269.59L889.68,58h98.06m6.91-6.9H878.87L987,284.38h7.66V51.1Z"/><path class="cls-1" d="M985.71,60V260.35L892.87,60h92.84m.47-.47h-94l94,202.92V59.57Z"/><path class="cls-1" d="M983,62.74V248.12L897.09,62.74H983m.47-.48H896.35l87.13,188v-188Z"/><path class="cls-1" d="M977.86,67.89V224.74L905.16,67.89h72.7M980.79,65H900.57L980.79,238V65Z"/><path class="cls-1" d="M972.84,72.9V202L913,72.9h59.83m2.56-2.55H909L975.4,213.59V70.35Z"/><path class="cls-1" d="M971.84,73.9V197.48L914.57,73.9h57.27m.48-.47H913.83l58.49,126.19V73.43Z"/><path class="cls-1" d="M966.07,79.68v91.6l-42.45-91.6h42.45m.47-.47H922.88l43.66,94.22V79.21Z"/><path class="cls-1" d="M964.34,81.41v82l-38-82h38m.47-.47H925.59l39.22,84.63V80.94Z"/><path d="M961.19,84.56v64.57L931.26,84.56h29.93m1.89-1.89H928.3l34.78,75v-75Z"/><path class="cls-1" d="M957.73,88v45.42L936.68,88h21.05M960,85.75H933.12l26.88,58v-58Z"/><path class="cls-1" d="M951.9,93.85V107l-6.1-13.17h6.1m5-5H938l19,40.94V88.83Z"/><path class="cls-1" d="M950.67,95.08v6.34l-2.94-6.34h2.94m.47-.47H947l4.15,9v-9Z"/><polygon class="cls-1" points="950.18 95.57 948.5 95.57 950.18 99.2 950.18 95.57 950.18 95.57"/><path d="M553.61,170.15l395,164.67-327,55.59V333.87h-68V170.15M552,167.74V335.48h68v56.84h0l334.36-56.84L552,167.74Z"/><path class="cls-1" d="M555.94,173.65,940.27,333.88,623.93,387.65V331.54h-68V173.65m-.47-.71V332h68v56.2L942,334.07,555.47,172.94Z"/><path d="M566.14,189,903.82,329.73,634.13,375.57V321.34h-68V189m-6.24-9.37v148h68V383l298.25-50.7L559.9,179.58Z"/><path class="cls-1" d="M568.63,192.69l326.29,136-258.3,43.91V318.85h-68V192.69m-1.42-2.13V320.27h68v54l264.79-45L567.21,190.56Z"/><path class="cls-1" d="M571.33,196.73,885.28,327.62l-246,41.81V316.15h-68V196.73m-1.42-2.13v123h68v53.54L890.35,328.2,569.91,194.6Z"/><path class="cls-1" d="M574,200.78,875.65,326.52,642,366.24V313.46H574V200.78m-1.42-2.13V314.88h68v53L880.72,327.1,572.6,198.65Z"/><path class="cls-1" d="M575.77,203.4,869.4,325.81,643.76,364.17V311.71h-68V203.4m-.47-.71V312.18h68v52.55L871.09,326,575.3,202.69Z"/><path class="cls-1" d="M581.7,212.29,848.22,323.4,649.69,357.15V305.78h-68V212.29m-2.94-4.4V308.72h68v51.91l212-36L578.76,207.89Z"/><path d="M588.65,222.73l234.7,97.84L656.64,348.91V298.83h-68v-76.1m-1.42-2.13v79.65h68v50.34l173.2-29.44L587.23,220.6Z"/><path class="cls-1" d="M590.25,225.12l227.4,94.8L658.24,347V297.23h-68V225.12m-.47-.71V297.7h68v49.88l161.58-27.46L589.78,224.41Z"/><path class="cls-1" d="M593,229.22l214.91,89.59L661,343.79V294.5H593V229.22m-.66-1v66.94h68v49.41l150-25.49L592.32,228.22Z"/><path class="cls-1" d="M596.28,234.17l199.82,83.3L664.27,339.88V291.2h-68v-57M594.86,232v60.58h68v48.94l138.32-23.51L594.86,232Z"/><path class="cls-1" d="M601.11,241.41l177.73,74.1L669.09,334.16V286.37h-68v-45m-.47-.71v46.15h68v47.87l111.91-19-179.89-75Z"/><path class="cls-1" d="M605.22,247.59l158.91,66.24-90.92,15.46v-47h-68V247.59m-1.89-2.84v39.4h68v47.38L770.9,314.6,603.33,244.75Z"/><path class="cls-1" d="M609.35,253.78l58.42,24.35H609.35V253.78m68,28.34,72,30-72,12.24V282.12M606.8,250v30.74h68v46.74l83.73-14.24L606.8,250Z"/><path class="cls-1" d="M616,263.81l18.33,7.64H616v-7.64m68,28.34,41.47,17.29-41.47,7V292.15M611.49,257v19h45.57l-45.57-19Zm68,28.35v36.52l62.24-10.58-62.24-25.94Z"/><path class="cls-1" d="M688.72,299.2l20,8.33-20,3.39V299.2M616.19,264v7.25h17.39L616.19,264Zm68,28.34V316.3l40.75-6.93-40.75-17Z"/><path class="cls-1" d="M689.35,300.14l17.1,7.13-17.1,2.91v-10m-.48-.71v11.31l19.27-3.28-19.27-8Z"/><polygon class="cls-1" points="692.34 304.63 692.34 306.63 695.75 306.05 692.34 304.63 692.34 304.63"/><path class="cls-1" d="M953.88,336v350.6l-332.83-294L953.88,336m.47-.56L620,392.32h0L954.35,687.69V335.48Z"/><path class="cls-1" d="M950.33,340.25v338.5L629,394.88l321.36-54.63m.94-1.12L626.86,394.28,951.27,680.85V339.13Z"/><path class="cls-1" d="M945.64,345.8V668.36L639.42,397.86,945.64,345.8m2.55-3L633.73,396.23,948.19,674V342.77Z"/><path class="cls-1" d="M943.69,348.1V664L643.76,399.09l299.93-51m1.42-1.68L640.59,398.19l304.52,269V346.42Z"/><path class="cls-1" d="M941.47,350.73V659.12L648.71,400.5l292.76-49.77m.95-1.12L646.6,399.9,942.42,661.21V349.61Z"/><path class="cls-1" d="M934,359.58v283L665.36,405.25,934,359.58m3.4-4L657.76,403.08l279.65,247V355.54Z"/><path class="cls-1" d="M933.67,360V641.8L666.12,405.46,933.67,360m.47-.56L665.06,405.16,934.14,642.85V359.42Z"/><path class="cls-1" d="M930.2,364.08V634.13L673.84,407.66,930.2,364.08m.67-.79L672.36,407.24,930.87,635.6V363.29Z"/><path class="cls-1" d="M927.52,367.25V628.18L679.81,409.37l247.71-42.12m1.42-1.68L676.65,408.46,928.94,631.33V365.57Z"/><path class="cls-1" d="M923.12,372.47V618.42L689.63,412.16l233.49-39.69m2.93-3.48-243,41.31,243,214.62V369Z"/><path class="cls-1" d="M919.66,376.57V610.73L697.36,414.36l222.3-37.79m2.93-3.47L690.82,412.5,922.59,617.24V373.1Z"/><path class="cls-1" d="M912.27,385.32v209L713.82,419.05l198.45-33.73m4.54-5.38L703.7,416.17,916.81,604.43V379.94Z"/><path class="cls-1" d="M912.88,384.6V595.7l-200.4-177,200.4-34.07m.47-.56L711.42,418.37,913.35,596.74V384Z"/><path class="cls-1" d="M909.41,388.71V588L720.2,420.87l189.21-32.16m.47-.56L719.15,420.57,909.88,589.06V388.15Z"/><path class="cls-1" d="M899.51,400.43V566.06L742.27,427.16l157.24-26.73m6.91-8.18L726.88,422.77l179.54,158.6V392.25Z"/><path d="M891.32,410.13V547.89L760.54,432.37l130.78-22.24m6.24-7.39L746.62,428.4,897.56,561.73v-159Z"/><path class="cls-1" d="M885.78,416.7V535.59l-112.87-99.7L885.78,416.7m2.93-3.47L766.37,434,888.71,542.1V413.23Z"/><path class="cls-1" d="M883.53,419.37V530.61L777.92,437.32l105.61-17.95m.94-1.12L775.81,436.72l108.66,96V418.25Z"/><path class="cls-1" d="M880.54,422.91V524l-95.95-84.75,95.95-16.31m.47-.56-97.47,16.57L881,525V422.35Z"/><path class="cls-1" d="M878.22,425.65v93.2l-88.48-78.16,88.48-15m.48-.56-90,15.3,90,79.51V425.09Z"/><path class="cls-1" d="M871,434.22v68.57l-65.11-57.5L871,434.22m.47-.56L804.83,445l66.63,58.85V433.66Z"/><path class="cls-1" d="M861.09,445.94v34.9L828,451.57l33.13-5.63m6.9-8.18-55.43,9.43,55.43,49v-58.4Z"/><path class="cls-1" d="M857.06,450.71v21.2l-20.13-17.78,20.13-3.42m4.54-5.38-34.79,5.92L861.6,482V445.33Z"/><polygon class="cls-1" points="853.71 454.68 844.41 456.26 853.71 464.48 853.71 454.68 853.71 454.68"/><path class="cls-1" d="M88.3,747.93v328.66H4.83V747.93H88.3m3.4-3.4H1.42V1080H91.7V744.53Z"/><path class="cls-1" d="M85.84,750.39v323.75H7.28V750.39H85.84m.47-.48H6.81v324.7h79.5V749.91Z"/><path class="cls-1" d="M82.37,753.85v316.82H10.75V753.85H82.37m.48-.47H10.28v317.77H82.85V753.38Z"/><path class="cls-1" d="M77.49,758.74v307H15.63v-307H77.49m1.89-1.9H13.74v310.84H79.38V756.84Z"/><path class="cls-1" d="M70.67,765.55V1059H22.45V765.55H70.67m2.94-2.93H19.52V1061.9H73.61V762.62Z"/><path class="cls-1" d="M66.17,770.06v284.41H27V770.06H66.17m4-4H23v292.35H70.14V766.09Z"/><path class="cls-1" d="M53.93,782.29v259.94H39.19V782.29H53.93m8.9-8.89H30.3v277.72H62.83V773.4Z"/><path class="cls-1" d="M50.71,785.51V1039h-8.3V785.51h8.3m.95-.94H41.47V1040H51.66V784.57Z"/><path class="cls-1" d="M46.58,789.64v245.25h0V789.64h0M48.19,788H44.93v248.46h3.26V788Z"/><path class="cls-1" d="M394,392.32h-.21l.21.22v-.22Z"/><path class="cls-1" d="M1.42,0Z"/><path class="cls-1" d="M492.61,2.56V332.92h-68v56.84H396.5a392.56,392.56,0,0,0-31.08-151.11,394,394,0,0,0-84.63-125.49A393.78,393.78,0,0,0,155.3,28.54a391.4,391.4,0,0,0-90-26H492.61M495.16,0H1.63C218.25.12,393.83,175.7,394,392.32h33.23V335.48h68V0Z"/><path class="cls-1" d="M490.07,5.1V330.39h-68v56.84H399A395,395,0,0,0,374.16,254a397,397,0,0,0-65.77-113.92,399.86,399.86,0,0,0-98.48-86A394.76,394.76,0,0,0,91,5.1H490.07m.47-.48H86.77C263.34,43.47,396.3,200.19,398.54,387.7h24V330.86h68V4.62Z"/><path d="M484.91,10.26v315h-68v56.84H404.07C399.68,213.8,287.43,63.48,128.28,10.26H484.91m2.55-2.56h-376C278,55.58,398.13,210,401.58,384.62h17.9V327.78h68V7.7Z"/><path class="cls-1" d="M481.06,14.11V321.37h-68v56.84h-5.26a399.78,399.78,0,0,0-22.35-118.1,411.25,411.25,0,0,0-56.29-106.83,412.8,412.8,0,0,0-84.68-86A403.67,403.67,0,0,0,150,14.11h331m2.55-2.56H136C291.38,66.91,400.47,215.07,405.33,380.77h10.3V323.93h68V11.55Z"/><path class="cls-1" d="M474.52,20.65V314.83H407.1C382.43,188.34,298.59,78,181.05,20.65H474.52m4-4H162.93c143,62.06,240.81,202.72,247.34,359h.24V318.81h68V16.67Z"/><path class="cls-1" d="M463.44,31.73v272H416.12a424.31,424.31,0,0,0-27.74-83.9A431.22,431.22,0,0,0,339.93,138a430.81,430.81,0,0,0-65.41-69.39,426,426,0,0,0-50.58-36.89h239.5m8.89-8.9h-282c113.27,58.42,194,166.39,218.6,289.82h63.44V22.83Z"/><path class="cls-1" d="M467.92,27.25v281H412.5a417.07,417.07,0,0,0-27.83-85.49,428.78,428.78,0,0,0-45.48-77.94,430.16,430.16,0,0,0-60.78-66.73,420.1,420.1,0,0,0-70.75-50.82H467.92m.95-.95H204.06c106,59.28,183.06,163.92,207.67,282.88h57.14V26.3Z"/><path class="cls-1" d="M462.06,33.11V302.37H417.23a420.08,420.08,0,0,0-26.52-80.16,437.24,437.24,0,0,0-42.38-74.37A440.32,440.32,0,0,0,292.28,83a428.12,428.12,0,0,0-63.61-49.93H462.06m1.42-1.42H223.77c97,60.53,168,160.69,192.32,272.1h47.39V31.69Z"/><path class="cls-1" d="M459,36.12V299.36h-39.4a428.9,428.9,0,0,0-66-149.55A434.42,434.42,0,0,0,238.74,36.12H459m.95-.94H235.62c92.59,61.43,159,157.32,183.27,265.12H460V35.18Z"/><path class="cls-1" d="M453.61,41.56V293.93H424a434.63,434.63,0,0,0-63.47-143.74A440.85,440.85,0,0,0,255.91,41.56h197.7m2.93-2.94H246.78c87.73,61.55,150.73,154.28,174.86,258.24h34.9V38.62Z"/><path class="cls-1" d="M451.28,43.89v247.7H425.8a437.41,437.41,0,0,0-60.69-139A442.86,442.86,0,0,0,263,43.89H451.28m1.41-1.42h-194c83.3,61.83,142,150.27,166,250.54h28V42.47Z"/><path class="cls-1" d="M443.71,51.45V284h-12A445.33,445.33,0,0,0,374.32,153,450.45,450.45,0,0,0,284.59,51.45H443.71m4-4H273.43A445.57,445.57,0,0,1,428.61,288h19.08V47.48Z"/><path class="cls-1" d="M440.9,54.27V281.21h-7a448.6,448.6,0,0,0-54.93-126A454.49,454.49,0,0,0,292.24,54.27H440.9m2.55-2.56H285.31c71.66,60.16,123.44,142,146.6,232.06h11.54V51.71Z"/><path class="cls-1" d="M436.82,58.35v218a453.38,453.38,0,0,0-51.34-118.33A460.44,460.44,0,0,0,303,58.35H436.82m.47-.48H301.75c64.85,58.65,112.38,135.94,134.91,219.74h.63V57.87Z"/><path class="cls-1" d="M435.21,60v205a457.16,457.16,0,0,0-49.8-109.83A462.15,462.15,0,0,0,307.11,60h128.1m.47-.48H305.9c61,56.18,106.74,129.84,129.78,208.69V59.48Z"/><path class="cls-1" d="M426.57,68.6v147a475.92,475.92,0,0,0-98.17-147h98.17M430,65.19H320.18A472,472,0,0,1,430,233.25V65.19Z"/><path class="cls-1" d="M420.61,74.55V188.38a487.41,487.41,0,0,0-78.3-113.83h78.3m4-4H333.1a478.65,478.65,0,0,1,91.49,135.54V70.58Z"/><path class="cls-1" d="M418.25,76.92V178.51A487,487,0,0,0,347.68,76.92h70.57m.95-1H345.54A489.26,489.26,0,0,1,419.2,182.41V76Z"/><path class="cls-1" d="M408.11,87.06v53.25a498.57,498.57,0,0,0-38.28-53.25h38.28m4.54-4.54H360.07a492.23,492.23,0,0,1,52.58,74.16V82.52Z"/><path class="cls-1" d="M398,97.12v10.09q-3.66-5.08-7.44-10.09H398m6.91-6.9H376.47q15.15,18.89,28.48,39.27V90.22Z"/><path class="cls-1" d="M1.89.48A389.7,389.7,0,0,1,154.12,31.32a391,391,0,0,1,124.53,84,391,391,0,0,1,84,124.53,389.57,389.57,0,0,1,30.85,152H92.18V335H1.89V.48M1.63,0H1.42V335.48H91.7v56.84H394C393.83,175.7,218.25.12,1.63,0Z"/><path class="cls-1" d="M6,4.62A385.55,385.55,0,0,1,275.74,118.21a385.66,385.66,0,0,1,113.6,269.52h-293V330.89H6V4.62M4.12,2.71V332.78H94.4v56.84H391.25A387.28,387.28,0,0,0,277.07,116.88,387.21,387.21,0,0,0,4.12,2.71Z"/><path class="cls-1" d="M8.53,7.17A383.31,383.31,0,0,1,274,120,383.31,383.31,0,0,1,386.78,385.21h-288V328.37H8.53V7.17m-.95-1V329.32H97.86v56.84H387.74A384,384,0,0,0,274.62,119.33,383.94,383.94,0,0,0,7.58,6.21Z"/><path class="cls-1" d="M15.52,14.36A376.62,376.62,0,0,1,269,124.94,376.7,376.7,0,0,1,379.59,378.22H105.8V321.38H15.52v-307m-2.93-3v313h90.28v56.84H382.62A379.22,379.22,0,0,0,271.09,122.87,379.23,379.23,0,0,0,12.59,11.33Z"/><path class="cls-1" d="M23.08,22.28a369.57,369.57,0,0,1,240.59,108,369.54,369.54,0,0,1,108,240.37H113.36V313.82H23.08V22.28m-5.49-5.77v302.8h90.28v56.84H377.43A374.62,374.62,0,0,0,267.55,126.41a374.6,374.6,0,0,0-250-109.9Z"/><path class="cls-1" d="M27.54,27a365.71,365.71,0,0,1,233,106.4A365.72,365.72,0,0,1,366.9,366.19H117.83V309.35H27.54V27m-3.4-3.63V312.76h90.28V369.6H370.54A368.52,368.52,0,0,0,262.92,131,368.53,368.53,0,0,0,24.14,23.41Z"/><path class="cls-1" d="M28.83,28.42A364.75,364.75,0,0,1,259.6,134.35,364.7,364.7,0,0,1,365.51,364.91H119.11V308.07H28.83V28.42M27.41,26.9V309.49h90.28v56.84H367a365.81,365.81,0,0,0-106.44-233A365.82,365.82,0,0,0,27.41,26.9Z"/><path class="cls-1" d="M30.19,29.9A363.57,363.57,0,0,1,258.64,135.32,363.58,363.58,0,0,1,364,363.54H120.48V306.7H30.19V29.9m-.47-.51V307.18H120V364H364.55A363.84,363.84,0,0,0,259,135,363.82,363.82,0,0,0,29.72,29.39Z"/><path class="cls-1" d="M36,36.25a358,358,0,0,1,218.5,103.18A358.12,358.12,0,0,1,357.69,357.72H126.3V300.88H36V36.25m-3.41-3.73V304.29h90.28v56.84H361.42A360.72,360.72,0,0,0,256.93,137,360.67,360.67,0,0,0,32.61,32.52Z"/><path class="cls-1" d="M43.86,45A348.12,348.12,0,0,1,154.4,77.63,349.86,349.86,0,0,1,249,145a349.79,349.79,0,0,1,67.3,94.47,348.31,348.31,0,0,1,32.66,110.43H134.15V293H43.86V45m-.47-.54V293.51h90.28v56.84h215.8a350.82,350.82,0,0,0-100.16-205.7A350.81,350.81,0,0,0,43.39,44.46Z"/><path class="cls-1" d="M46.75,48.27A348.77,348.77,0,0,1,246.93,147a348.86,348.86,0,0,1,98.73,200H137V290.15H46.75V48.27m-.66-.76v243.3h90.28v56.84h210a349.18,349.18,0,0,0-99-201.1,349.19,349.19,0,0,0-201.31-99Z"/><path class="cls-1" d="M55,57.85a341.05,341.05,0,0,1,186,95,341,341,0,0,1,95,185.81H145.32V281.86H55v-224m-5.49-6.37V287.35h90.28v56.84H342.45A346.08,346.08,0,0,0,245,149,346,346,0,0,0,49.55,51.48Z"/><path class="cls-1" d="M56.36,59.41a340.39,340.39,0,0,1,183.77,94.41,340.42,340.42,0,0,1,94.38,183.56H146.64V280.54H56.36V59.41m-1.42-1.67V282h90.28V338.8h191a341.14,341.14,0,0,0-95-186A341.19,341.19,0,0,0,54.94,57.74Z"/><path class="cls-1" d="M59.14,62.71a338,338,0,0,1,179,93.08,338,338,0,0,1,93,178.81H149.43V277.76H59.14v-215m-1.89-2.25V279.65h90.28v56.84H333.46a339.56,339.56,0,0,0-94-182,339.42,339.42,0,0,0-182.25-94Z"/><path class="cls-1" d="M64.42,69.05a333.3,333.3,0,0,1,170,90.47,333.31,333.31,0,0,1,90.42,169.8H154.7V272.48H64.42V69.05m-2.93-3.54v209.9h90.28v56.84H328.4a335.34,335.34,0,0,0-91.89-174.8,335.38,335.38,0,0,0-175-91.94Z"/><path class="cls-1" d="M75.83,83.24C132.31,97,185.54,126.77,226.37,167.59s70.53,93.92,84.29,150.32H166.11V261.07H75.83V83.24m-5.49-6.9V266.56h90.28V323.4h157a327.4,327.4,0,0,0-87.32-159.69A327.41,327.41,0,0,0,70.34,76.34Z"/><path class="cls-1" d="M79.7,88.2c54,14.06,104.89,43.08,143.93,82.12s68,89.83,82.07,143.72H170V257.2H79.7V88.2m-4.54-5.82V261.74h90.28v56.84H311.52c-13.7-56.83-43.63-110.42-84.67-151.47S132.06,96.06,75.16,82.38Z"/><path class="cls-1" d="M82.56,91.92A317,317,0,0,1,157.05,123a310.6,310.6,0,0,1,64.56,49.31,310,310,0,0,1,49.25,64.47A316.56,316.56,0,0,1,302,311.18H172.84V254.34H82.56V91.92m-.67-.86V255h90.29v56.85H302.84c-14.24-52.54-42.58-101.8-80.76-140s-87.57-66.6-140.19-80.82Z"/><path class="cls-1" d="M84.87,95c50.55,14.38,98.5,42.41,135.11,79s64.56,84.42,79,134.89H175.15V252H84.87V95m-.67-.87V252.7h90.29v56.83H299.8c-14.35-50.92-42.46-99.13-79.35-136S135.21,108.43,84.2,94.09Z"/><path class="cls-1" d="M87,97.76c49.21,14.49,95.84,42,131.52,77.7s63.13,82.18,77.64,131.31H177.25V249.93H87V97.76m-1.61-2.14V251.54h90.28v56.84H298.27c-14.42-50.2-42.24-97.65-78.64-134s-84-64.3-134.27-78.71Z"/><path class="cls-1" d="M92.61,105.41c45.59,14.71,88.76,40.91,121.89,74s59.26,76.17,74,121.68H182.89V244.29H92.61V105.41m-2.55-3.49V246.84h90.28v56.84H292c-14.65-47.18-41.36-91.74-75.66-126s-79-61.09-126.25-75.73Z"/><path class="cls-1" d="M101.66,118.12c39.81,14.79,77.31,38.61,106.44,67.73S261,252.34,275.75,292.08H191.94V235.24H101.66V118.12m-6.9-9.75V242.14H185V299H285.52c-14.78-44.15-40.38-85.86-72.53-118s-74-57.84-118.23-72.6Z"/><path class="cls-1" d="M107.77,127.05c35.84,14.59,69.74,36.85,96,63.12s48.43,60,63,95.8H198.05V229.13H107.77V127.05m-4.54-6.67V233.67h90.28v56.84h80C258.73,251.77,235.39,215.35,207,187s-65-51.82-103.77-66.58Z"/><path class="cls-1" d="M116.87,140.94C147.18,155,175,174.2,197.35,196.61s41.5,50,55.56,80.26H207.15V220H116.87V140.94m-2.55-4v85.61H204.6v56.85h52.29c-14.19-31.62-34.33-61.23-57.73-84.63S146,151.16,114.32,137Z"/><path class="cls-1" d="M120.81,147.18a279.08,279.08,0,0,1,73.76,52.21c5.26,5.26,10.36,10.85,15.25,16.7h-89V147.18m90.28,70.43a286.24,286.24,0,0,1,35.58,55.32H211.09V217.61m-91.23-71.94V217h90.28v56.84h38a278.93,278.93,0,0,0-53-75.16,279.13,279.13,0,0,0-75.37-53.05Z"/><path class="cls-1" d="M128.65,160.08A269.48,269.48,0,0,1,189,204.93q1.64,1.63,3.26,3.32H128.65V160.08m90.28,81a280.49,280.49,0,0,1,14.83,24H218.93V241m-94.26-87.58v58.77h76.7q-4.67-5.23-9.54-10.11a273.92,273.92,0,0,0-67.16-48.66ZM215,228.75v40.32h25.42A283.07,283.07,0,0,0,215,228.75Z"/><path class="cls-1" d="M136,172.84a265.75,265.75,0,0,1,38,28H136v-28m-6.91-12v47h62.11c-.84-.86-1.67-1.71-2.51-2.54a267.37,267.37,0,0,0-59.6-44.41Zm90.28,81.66v22.13H233c-4.21-7.62-8.76-15-13.61-22.13Z"/><path class="cls-1" d="M140.23,180.5a260.17,260.17,0,0,1,22.27,16.17H140.23V180.5M138.34,177v21.52h29.42A264.58,264.58,0,0,0,138.34,177Z"/><path d="M619.05,393.26V686.74H427.53L94.21,393.26H619.05m.94-.94H91.7L427.18,687.69H620V392.32Z"/><path class="cls-1" d="M614.25,398.06V681.94H429.34L106.92,398.06H614.25m1.89-1.89H101.9L428.63,683.83H616.14V396.17Z"/><path class="cls-1" d="M613.36,399v282.1H429.68L109.27,399H613.36m.66-.66H107.51L429.43,681.71H614V398.29Z"/><path class="cls-1" d="M608.37,403.94V676.06H431.56L122.49,403.94H608.37m1.42-1.42H118.73l312.3,275H609.79v-275Z"/><path class="cls-1" d="M605.29,407V673H432.73L130.65,407H605.29m1.42-1.42H126.89l305.3,268.8H606.71V405.6Z"/><path class="cls-1" d="M601.07,411.24V668.77H434.32L141.82,411.24H601.07m2.56-2.56H135.05l298.3,262.64H603.63V408.68Z"/><path class="cls-1" d="M598,414.32V665.68H435.48L150,414.32H598m2.56-2.56H143.21L434.52,668.24h166V411.76Z"/><path class="cls-1" d="M592.22,420.09V659.91H437.66L165.28,420.09H592.22m2.55-2.55H158.51L436.7,662.47H594.77V417.54Z"/><path class="cls-1" d="M588.52,423.79V656.22H439.05l-264-232.43H588.52m.48-.48H173.81L438.88,656.69H589V423.31Z"/><path class="cls-1" d="M583.43,428.88V651.12H441L188.56,428.88H583.43m1-.95H186.05L440.62,652.07H584.38V427.93Z"/><path class="cls-1" d="M581.12,431.19V648.81H441.85L194.68,431.19H581.12m1-.95H192.17L441.49,649.76H582.07V430.24Z"/><path class="cls-1" d="M576.82,435.49v209H443.47l-237.41-209H576.82m2.94-2.94H198.29l244.07,214.9h137.4V432.55Z"/><path class="cls-1" d="M573.36,439v202.1H444.78L215.24,439H573.36m2.93-2.93H207.47l236.2,208H576.29V436Z"/><path class="cls-1" d="M564.43,447.88V632.13H448.15L238.88,447.88H564.43m4.54-4.54H226.85L446.43,636.67H569V443.34Z"/><path class="cls-1" d="M553.15,459.16V620.84H452.41L268.77,459.16H553.15m8.89-8.9H245.21L449.05,629.73H562V450.26Z"/><path class="cls-1" d="M547.94,464.37V615.63H454.37L282.58,464.37H547.94m2.55-2.55H275.81l177.6,156.36h97.08V461.82Z"/><path class="cls-1" d="M546.94,465.37V614.63H454.75L285.22,465.37H546.94m.47-.47H284l170.6,150.2h92.84V464.9Z"/><path class="cls-1" d="M543.86,468.45v143.1H455.92L293.38,468.45H543.86m.47-.47H292.13L455.74,612h88.59V468Z"/><path class="cls-1" d="M537.14,475.17V604.83H458.45L311.19,475.17h226m1.42-1.42H307.43l150.49,132.5h80.64V473.75Z"/><path class="cls-1" d="M534.44,477.87V602.13h-75L318.33,477.87H534.44m1.42-1.42H314.57l144.36,127.1h76.93V476.45Z"/><path class="cls-1" d="M529.82,482.49v115H461.21l-130.64-115H529.82m1.42-1.42H326.81L460.68,598.93h70.56V481.07Z"/><path class="cls-1" d="M522.53,489.78V590.22H464L349.88,489.78H522.53m2.94-2.94H342.11L462.86,593.16h62.61V486.84Z"/><path class="cls-1" d="M519.07,493.24v93.52h-53.8L359.06,493.24h160m2.93-2.93H351.29l112.88,99.38H522V490.31Z"/><path class="cls-1" d="M513,499.29v81.42H467.56l-92.48-81.42H513m4-4H364.55l101.51,89.36H517V495.32Z"/><path class="cls-1" d="M508,504.29v71.42H469.45l-81.11-71.42H508m4-4H377.81L468,579.68h44V500.32Z"/><path class="cls-1" d="M501.74,510.57v58.86H471.82L405,510.57h96.78m2.93-2.93H397.19l73.52,64.72h34V507.64Z"/><path class="cls-1" d="M498.81,513.5v53H472.92l-60.2-53h86.09m.47-.47H411.47L472.74,567h26.54V513Z"/><path class="cls-1" d="M489.78,522.53v34.94H476.33l-39.68-34.94h53.13m1.42-1.42H432.89l42.9,37.78H491.2V521.11Z"/><path class="cls-1" d="M486.31,526v28h-8.67l-31.81-28h40.48m1.42-1.42H442.07l35,30.84h10.63V524.58Z"/><path class="cls-1" d="M477.41,534.89V542l-8-7.06h8m4.55-4.54H457.37l21.91,19.3H482v-19.3Z"/><polygon class="cls-1" points="477.34 534.97 469.61 534.97 477.34 541.78 477.34 534.97 477.34 534.97"/><path class="cls-1" d="M93.16,394.23,426.7,687.9V745h68v334.53H427.47L93.16,394.23m-1.46-1.91L427.18,1080h68V744.53h-68V687.69L91.7,392.32Z"/><path class="cls-1" d="M112.93,420.16,420.3,690.79v60.6h68v321.74H431.47l-318.54-653m-10.52-13.8,326.93,670.17H491.7V748h-68V689.25L102.41,406.36Z"/><path class="cls-1" d="M117.5,426.16l301.33,265.3v61.41h68v318.78H432.39L117.5,426.16m-4.38-5.75,318.39,652.66h56.72V751.46h-68V690.82L113.12,420.41Z"/><path class="cls-1" d="M129.32,441.65,415,693.19V756.7h68v311.13H434.78L129.32,441.65m-9.07-11.88,312.7,641h53v-317h-68V691.86L120.25,429.77Z"/><path class="cls-1" d="M158.08,479.38l247.61,218V766h68v292.52H440.6L158.08,479.38m-14-18.41,293.71,602.09h40.46V761.46h-68V695.34L144.05,461Z"/><path class="cls-1" d="M162.75,485.51,404.18,698.07v69.45h68V1057H441.54L162.75,485.51m-2.05-2.69,280.43,574.85h31.7V766.86h-68V697.78l-244.14-215Z"/><path class="cls-1" d="M193.77,526.19,394.14,702.61v74.95h68V1047H447.82l-254-520.77m-14-18.4L445,1051.51h21.69V773h-68V700.56L179.73,507.79Z"/><path class="cls-1" d="M199.58,533.82,392.26,703.46v76h68v265.64H449L199.58,533.82m-4.38-5.75L448.11,1046.5h13.55V778h-68v-75.2L195.2,528.07Z"/><path class="cls-1" d="M222.94,564.46,384.7,706.88V787h68v248.41L222.94,564.46m-12.28-16.1L451.23,1041.5h5.43V783h-68V705.08l-178-156.72Z"/><path class="cls-1" d="M244.85,593.19,377.61,710.08v84h68v210.62L244.85,593.19M237,582.84l211.2,432.93V791.54h-68V708.93L237,582.84Z"/><path class="cls-1" d="M261.45,615l110.78,97.53v87h68v182L261.45,615m-14-18.41,197.34,404.52V794.92h-68V710.46L247.42,596.57Z"/><path class="cls-1" d="M287.2,648.75l76.7,67.53V806L287.2,648.75m144.69,159V945.34L364.79,807.8h67.1m-166-187L438.79,975.25V800.89h-68V713.16l-104.95-92.4Z"/><path class="cls-1" d="M287.22,648.78l76.67,67.5v89.66L287.22,648.78m144.66,159V945.31L364.8,807.8h67.08M284.3,645,432.83,949.4V806.86h-68v-91L284.3,645Z"/><path class="cls-1" d="M302.9,669.34l55.92,49.23V784L302.9,669.34M426.81,812.88V923.33L372.92,812.88h53.89M295,659l66.36,136V717.42L295,659ZM429.36,810.32H368.83L429.36,934.4V810.32Z"/><path class="cls-1" d="M317.68,688.73l36.36,32v42.51l-36.36-74.52M422,817.66v85l-41.44-85H422M314.75,684.89,355,767.35v-47l-40.23-35.42ZM423,816.71H379.06l43.91,90v-90Z"/><path class="cls-1" d="M326,699.65,351.34,722v29.62L326,699.65m93.32,120.71v70.58l-34.44-70.58h34.44M323.08,695.81l29.21,59.87V721.53l-29.21-25.72Zm97.19,123.6H383.38L420.27,895V819.41Z"/><path d="M343.69,722.84l1.93,1.7v2.26l-1.93-4M413.6,826.08v40.08l-19.55-40.08H413.6M331.41,706.74,349.59,744V722.74l-18.18-16Zm86.17,115.37H387.69l29.89,61.26V822.11Z"/><polygon class="cls-1" points="412.57 827.11 395.7 827.11 412.57 861.7 412.57 827.11 412.57 827.11"/><path class="cls-1" d="M92.18,394.37l334.24,685.16H92.18V394.37m-.48-2.05V1080H427.18L91.7,392.32Z"/><path class="cls-1" d="M97.23,416.24l321.11,658.23H97.23V416.24m-3.41-14.75v676.39h330l-330-676.39Z"/><path class="cls-1" d="M101.57,435l309.82,635.1H101.57V435m-2.94-12.7v650.74H416.08L98.63,422.33Z"/><path class="cls-1" d="M103.89,445.11l303.78,622.7H103.89V445.11M103,441v627.75H409.18L103,441Z"/><path class="cls-1" d="M108.47,464.91l291.88,598.33H108.47V464.91m-2.56-11.06v611.94H404.44L105.91,453.85Z"/><path class="cls-1" d="M112.78,483.61l280.66,575.31H112.78V483.61m-3.4-14.75v593.47H398.89L109.38,468.86Z"/><path class="cls-1" d="M119.17,511.29l264,541.24h-264V511.29m-3.4-14.75v559.39H388.66L115.77,496.54Z"/><path class="cls-1" d="M120.67,517.75,380.82,1051H120.67V517.75m-.67-2.87V1051.7H381.88L120,514.88Z"/><path class="cls-1" d="M123.63,530.59l252.45,517.48H123.63V530.59m-.66-2.87v521H377.14L123,527.72Z"/><path class="cls-1" d="M135.6,582.44,356.91,1036.1H135.6V582.44m-6.24-27v486.94H366.91L129.36,555.4Z"/><path class="cls-1" d="M133.47,573.22l226.85,465H133.47v-465m-1.42-6.15v472.58H362.59L132.05,567.07Z"/><path class="cls-1" d="M137.68,591.44,353.59,1034H137.68V591.44m-2.93-12.7V1037H358.28L134.75,578.74Z"/><path class="cls-1" d="M144.23,619.79l198.88,407.68H144.23V619.79m-2.93-12.7v423.32H347.81L141.3,607.09Z"/><path class="cls-1" d="M150.42,646.59l182.79,374.7H150.42V646.59M149,640.44v382.27H335.48L149,640.44Z"/><path class="cls-1" d="M158,679.21l163.2,334.55H158V679.21m-5.49-23.77v363.8H329.93L152.46,655.44Z"/><path d="M166.34,715.55l141.38,289.81H166.34V715.55m-6.9-29.91v326.63H318.77L159.44,685.64Z"/><path class="cls-1" d="M170.84,735l129.69,265.85H170.84V735m-.67-2.87v269.38H301.59L170.17,732.15Z"/><path class="cls-1" d="M175.15,753.69,293.63,996.56H175.15V753.69m-1.9-8.2v253H296.66l-123.41-253Z"/><path class="cls-1" d="M179.27,771.53,287,992.44H179.27V771.53m-2.94-12.7V995.37h115.4L176.33,758.83Z"/><path class="cls-1" d="M185.31,797.72l92,188.67h-92V797.72m-4-17.21V990.36H283.71L181.34,780.51Z"/><path class="cls-1" d="M186.52,803l88.9,182.23h-88.9V803m-.94-4.1V986.13h91.36L185.58,798.85Z"/><path class="cls-1" d="M194.22,836.3,263.1,977.48H194.22V836.3m-.94-4.1V978.43h71.33L193.28,832.2Z"/><path class="cls-1" d="M203.65,877.12,248,968.06H203.65V877.12m-6.91-29.91V975h62.33L196.74,847.21Z"/><path class="cls-1" d="M207.11,892.12l35.36,72.47H207.11V892.12m-6.9-29.91V971.5h53.31L200.21,862.21Z"/><path class="cls-1" d="M210.46,906.6l26.66,54.65H210.46V906.6m-2.94-12.7v70.28h34.29L207.52,893.9Z"/><path class="cls-1" d="M216.26,931.72l11.57,23.73H216.26V931.72m-1.42-6.14v31.29H230.1l-15.26-31.29Z"/><polygon class="cls-1" points="218.69 942.25 218.69 953.02 223.94 953.02 218.69 942.25 218.69 942.25"/><path class="cls-1" d="M953.88,688.56V745h91.39v334.53H954.82a335.4,335.4,0,0,0-96.92-235.7,340.65,340.65,0,0,0-36.84-32.31,545.59,545.59,0,0,1,132.82-123m.47-.87a547.41,547.41,0,0,0-134,123.92,336.59,336.59,0,0,1,134,268.39h91.39V744.53H954.35V687.69Z"/><path class="cls-1" d="M947.68,700.18v51h91.39v322.14H961a340.7,340.7,0,0,0-98.65-233.85,346.88,346.88,0,0,0-32.53-29.06,539.6,539.6,0,0,1,117.9-110.24m4-7.49A543.21,543.21,0,0,0,824.19,811.11a341.47,341.47,0,0,1,35.29,31.16,336.56,336.56,0,0,1,97.56,235h86V747.22H951.66V692.69Z"/><path class="cls-1" d="M945.54,704.27v49.07h91.39v317.85H963.05A343.17,343.17,0,0,0,863.84,838a347.76,347.76,0,0,0-31-27.91,537.41,537.41,0,0,1,112.74-105.8m1.42-2.71A538.66,538.66,0,0,0,830.8,810.3a347.92,347.92,0,0,1,32,28.67,341.43,341.43,0,0,1,98.84,233.63h76.68V751.92H947V701.56Z"/><path class="cls-1" d="M939.52,716v43.38h91.39v305.82h-62A349.54,349.54,0,0,0,868.13,833.75a355.27,355.27,0,0,0-26.88-24.57A531.92,531.92,0,0,1,939.52,716m4-7.75A534.92,534.92,0,0,0,835.67,809.76a351,351,0,0,1,29.63,26.78A345.22,345.22,0,0,1,965,1069.14h69.84V755.38H943.5V708.22Z"/><path class="cls-1" d="M935.44,724.09v39.34h91.39v297.66H972.77A354.08,354.08,0,0,0,871,830.89c-7.63-7.74-15.71-15.22-24-22.25a527.71,527.71,0,0,1,88.46-84.55m1.89-3.79a529.45,529.45,0,0,0-93,88.58c8.82,7.36,17.33,15.19,25.36,23.34A351.63,351.63,0,0,1,971,1063h57.75V761.54H937.33V720.3Z"/><path class="cls-1" d="M932.36,730.32v36.19h91.39V1058H975.68A357.44,357.44,0,0,0,873.22,828.72c-7-7.05-14.32-13.92-21.93-20.45a524.93,524.93,0,0,1,81.07-77.95m1.89-3.84a527,527,0,0,0-85.61,82c8.05,6.84,15.86,14.08,23.23,21.56a355.18,355.18,0,0,1,102,229.85h51.75V764.62H934.25V726.48Z"/><path class="cls-1" d="M930.23,734.69v34h91.39v287.22H977.68A359.68,359.68,0,0,0,874.74,827.23c-6.49-6.59-13.37-13-20.46-19.2a524.22,524.22,0,0,1,76-73.34m.94-2A524.69,524.69,0,0,0,853,808.13c7.3,6.31,14.39,13,21.11,19.76a358.53,358.53,0,0,1,102.72,228.93h45.77V767.7H931.17v-35Z"/><path class="cls-1" d="M923.93,747.88v27.06h91.39v274.64h-31.8A366.38,366.38,0,0,0,879.22,822.8c-5.18-5.26-10.6-10.42-16.12-15.39a517.56,517.56,0,0,1,60.83-59.53m4.17-8.77a521.57,521.57,0,0,0-70.83,68.7c6.55,5.75,12.93,11.77,19,17.91a362,362,0,0,1,103.41,228h39.81v-283H928.1V739.11Z"/><path class="cls-1" d="M920.16,756v22.73h91.39v267.09H987A370.59,370.59,0,0,0,881.91,820.15c-4.37-4.43-8.91-8.81-13.54-13A515.31,515.31,0,0,1,920.16,756m2.93-6.32a518.46,518.46,0,0,0-58.82,57.67c5.35,4.82,10.56,9.81,15.55,14.87A367.23,367.23,0,0,1,984.3,1048.74h30.18v-273H923.09V749.67Z"/><path class="cls-1" d="M914.73,768v16.18h91.39v256.22H991.9a376.77,376.77,0,0,0-106.12-224c-3.18-3.23-6.48-6.45-9.82-9.6A512,512,0,0,1,914.73,768m.66-1.48A511.45,511.45,0,0,0,875,806.78q5.26,4.94,10.28,10A375.49,375.49,0,0,1,991.3,1041h15.48V783.49H915.39v-17Z"/><path class="cls-1" d="M910.15,778.37v10.35h91.39V1035.8H996A381.64,381.64,0,0,0,889,813.12c-2.18-2.21-4.43-4.43-6.69-6.61,8.86-9.7,18.19-19.14,27.81-28.14m2.56-5.84c-11.83,10.82-23.22,22.26-33.93,34.1,2.87,2.73,5.7,5.51,8.44,8.29a378.86,378.86,0,0,1,106.49,223.43h10.39V786.17H912.71V772.53Z"/><path class="cls-1" d="M993.38,796.88V979.19a390.22,390.22,0,0,0-98.54-171.8l-1.13-1.14q4.47-4.72,9.08-9.37h90.59m-86.85-10.07q-9.84,9.53-19.14,19.56c1.42,1.4,2.83,2.81,4.22,4.21a385.21,385.21,0,0,1,106.31,212.36V792.34H906.53v-5.53Z"/><path class="cls-1" d="M990.49,799.78V959.53a395.63,395.63,0,0,0-29.93-68.79,390.88,390.88,0,0,0-62.82-84.53q3.09-3.23,6.26-6.43h86.49m-87-5.62c-4,4-7.93,8-11.77,12.12l2.12,2.14A390.34,390.34,0,0,1,994.84,991V795.42H903.45v-1.26Z"/><path class="cls-1" d="M988.42,801.85V947a394,394,0,0,0-87.8-140.83c1.39-1.44,2.81-2.9,4.24-4.35h83.56m1.42-1.42H904.27c-1.89,1.91-3.77,3.84-5.62,5.78a392.86,392.86,0,0,1,91.19,149.2v-155Z"/><path class="cls-1" d="M985,805.31v123.2a401.84,401.84,0,0,0-79.51-122.3l.87-.9H985m1.42-1.42H905.72c-.75.77-1.51,1.54-2.25,2.31a398.7,398.7,0,0,1,82.9,129.6V803.89Z"/><path class="cls-1" d="M980.89,809.37v100a403.68,403.68,0,0,0-66.95-100h66.95m.48-.47H912.86a406.22,406.22,0,0,1,68.51,102.58V808.9Z"/><path class="cls-1" d="M973.11,817.16v60.38a412.68,412.68,0,0,0-42-60.38h42m.94-.94h-45a409.57,409.57,0,0,1,45,64.91V816.22Z"/><path class="cls-1" d="M970.8,819.47V869A416,416,0,0,0,936,819.47H970.8m.94-.94H934a413.29,413.29,0,0,1,37.72,53.93V818.53Z"/><path class="cls-1" d="M960.3,830v4c-.95-1.33-1.91-2.64-2.87-4h2.87m6.44-6.43H944.47c7.87,10,15.31,20.49,22.27,31.26V823.53Z"/><path d="M620,745.47A330.86,330.86,0,0,1,819.06,811.8a539.75,539.75,0,0,0-108.21,267.25H553V745.47h67m0-.94H552V1080H711.7A537.65,537.65,0,0,1,820.4,811.61,331.94,331.94,0,0,0,620,744.53Z"/><path d="M620,747.14a328,328,0,0,1,196.72,65,541.76,541.76,0,0,0-107.35,265.26H554.62V747.14H620m0-.47H554.15v331.18H709.78A541,541,0,0,1,817.37,812,328.25,328.25,0,0,0,620,746.67Z"/><path class="cls-1" d="M620,751.32A323.86,323.86,0,0,1,810.81,813,546.22,546.22,0,0,0,705.66,1073.2H558.8V751.32H620m0-2.18H556.62v326.24h151a543.55,543.55,0,0,1,106.3-262.85A325.82,325.82,0,0,0,620,749.14Z"/><path class="cls-1" d="M620,753.64A321.67,321.67,0,0,1,807.53,813.5a548.92,548.92,0,0,0-103.92,257.38H561.12V753.64H620m0-1.42H559.7V1072.3H704.86A546.5,546.5,0,0,1,809.54,813.18a322.74,322.74,0,0,0-189.55-61Z"/><path class="cls-1" d="M620,755.39a320.07,320.07,0,0,1,185.07,58.5,551,551,0,0,0-103,255.24H562.87V755.39H620m0-.47H562.4V1069.6H702.49A550.2,550.2,0,0,1,805.73,813.78,320.35,320.35,0,0,0,620,754.92Z"/><path d="M620,758A317.55,317.55,0,0,1,801.36,814.5a554.1,554.1,0,0,0-101.58,252H565.49V758H620m0-1H564.54v310.4H700.61A552.64,552.64,0,0,1,802.7,814.28,318.38,318.38,0,0,0,620,757.06Z"/><path class="cls-1" d="M620,763.27a312.52,312.52,0,0,1,173.93,52.54,560.25,560.25,0,0,0-98.72,245.45H570.75v-298H620m0-1.42H569.33v300.82h127.1a558.34,558.34,0,0,1,99.5-247.22A313.76,313.76,0,0,0,620,761.85Z"/><path d="M620,767.36A308.71,308.71,0,0,1,788.14,816.9a564.71,564.71,0,0,0-96.46,240.27H574.83V767.36H620m0-2.56H572.28v294.93h121.6a561.75,561.75,0,0,1,97.88-243.52A311.07,311.07,0,0,0,620,764.8Z"/><path class="cls-1" d="M620,776.15a300.17,300.17,0,0,1,155.67,43.32,574.54,574.54,0,0,0-91.51,228.9H583.63V776.15H620m0-7.75H575.88v287.73h114.9a565.23,565.23,0,0,1,95.89-238.94A307.5,307.5,0,0,0,620,768.4Z"/><path class="cls-1" d="M620,775.61A301.05,301.05,0,0,1,776.44,819.3a575,575,0,0,0-91.82,229.62H583.08V775.61H620m0-.66H582.42v274.63H685.18a573.3,573.3,0,0,1,92.2-230.48A301.33,301.33,0,0,0,620,775Z"/><path class="cls-1" d="M620,780.3a296.79,296.79,0,0,1,149.78,40.49,580.36,580.36,0,0,0-89.12,223.44H587.78V780.3H620m0-1.89H585.88v267.71h96.36a577.94,577.94,0,0,1,90.22-225.94A298.36,298.36,0,0,0,620,778.41Z"/><path class="cls-1" d="M620,782.35a294.93,294.93,0,0,1,146.87,39.12,583.32,583.32,0,0,0-87.94,220.71h-89.1V782.35H620m0-.48H589.35v260.78h90a582.11,582.11,0,0,1,88.21-221.34A295.18,295.18,0,0,0,620,781.87Z"/><path class="cls-1" d="M620,788.28a289.48,289.48,0,0,1,138.42,35.25A590.65,590.65,0,0,0,674,1036.25H595.76v-248H620m0-2.56H593.2V1038.8h82.89a587.08,587.08,0,0,1,86-216.18A291.68,291.68,0,0,0,620,785.72Z"/><path class="cls-1" d="M620,791.08a287,287,0,0,1,134.43,33.48,594.06,594.06,0,0,0-82.8,208.88H598.56V791.08H620m0-1.89H596.67v246.14H673.2a590.48,590.48,0,0,1,83.92-211.47A288.36,288.36,0,0,0,620,789.19Z"/><path class="cls-1" d="M620,797a281.89,281.89,0,0,1,126,29.86,601.94,601.94,0,0,0-79.25,200.71h-62.3V797H620m0-.47H604V1028h63.16a599.82,599.82,0,0,1,79.54-201.36A281.64,281.64,0,0,0,620,796.51Z"/><path class="cls-1" d="M620,802.61a276.32,276.32,0,0,1,118,26.57,608.75,608.75,0,0,0-75.81,192.74H610.08V802.61H620m0-3.41H606.68v226.13h58.24a604.39,604.39,0,0,1,77.9-197.58A279.51,279.51,0,0,0,620,799.2Z"/><path class="cls-1" d="M620,802.37a277,277,0,0,1,118.3,26.7,609,609,0,0,0-76,193.08H609.85V802.37H620m0-.48H609.37v220.74h53.35A607.73,607.73,0,0,1,739,828.87a277.31,277.31,0,0,0-119-27Z"/><path d="M620,807.6a272.33,272.33,0,0,1,110.8,23.77,616.07,616.07,0,0,0-72.72,185.55h-43V807.6H620m0-1.41h-6.33v212.15h45.56a613.23,613.23,0,0,1,73.6-187.6A273.12,273.12,0,0,0,620,806.19Z"/><path d="M620,809.34A270.74,270.74,0,0,1,728.3,832.17a618,618,0,0,0-71.63,183H616.82V809.34H620m0-.47h-3.64v206.79h40.7A617.12,617.12,0,0,1,729,832a271,271,0,0,0-109-23.08Z"/><path class="cls-1" d="M621.19,813.71A266.89,266.89,0,0,1,722,834.23a624,624,0,0,0-68.89,176.58H621.19V813.71m-1.2-1.42h-.22v199.94h34.52a619.91,619.91,0,0,1,69.78-178.68A267.33,267.33,0,0,0,620,812.29Z"/><path class="cls-1" d="M625.05,817.62a264.36,264.36,0,0,1,91.42,18.51A629.64,629.64,0,0,0,650.05,1007h-25V817.62m-.66-.67v190.66h26.19A627.43,627.43,0,0,1,717.43,835.8a263.94,263.94,0,0,0-93-18.85Z"/><path class="cls-1" d="M627.73,820.38a262.14,262.14,0,0,1,84.88,17.12,633.26,633.26,0,0,0-64.7,166.77H627.73V820.38m-1.42-1.46v186.77H649a631.13,631.13,0,0,1,65.62-168.92,263,263,0,0,0-88.35-17.85Z"/><path class="cls-1" d="M630.79,823.55a260,260,0,0,1,77.41,15.57,637.22,637.22,0,0,0-62.72,162.09H630.79V823.55m-2.55-2.65v182.87h19.27a633.71,633.71,0,0,1,64.37-166,261.71,261.71,0,0,0-83.64-16.87Z"/><path class="cls-1" d="M631.79,824.6a259.83,259.83,0,0,1,75,15.06,639.14,639.14,0,0,0-62.07,160.55h-12.9V824.6m-.47-.5v176.58h13.74A638.14,638.14,0,0,1,707.44,839.4a259.62,259.62,0,0,0-76.12-15.3Z"/><path class="cls-1" d="M636.41,829.5a257.56,257.56,0,0,1,63.68,12.72A646.42,646.42,0,0,0,641,995.59h-4.63V829.5m-.47-.51V996.06h5.48A644,644,0,0,1,700.77,842a256.8,256.8,0,0,0-64.83-13Z"/><path class="cls-1" d="M641.66,835.18a254.21,254.21,0,0,1,50.84,10.1,655.88,655.88,0,0,0-50.84,127.29V835.18m-3.41-3.71V993.75h1.35a648.82,648.82,0,0,1,57.83-150.48,256.12,256.12,0,0,0-59.18-11.8Z"/><path class="cls-1" d="M643.9,837.66a254.55,254.55,0,0,1,45.35,9A664,664,0,0,0,643.9,957V837.66m-1.41-1.57V966.66A656.49,656.49,0,0,1,691.3,845.78a253.09,253.09,0,0,0-48.81-9.69Z"/><path class="cls-1" d="M645.93,839.92a253.09,253.09,0,0,1,40.37,8A672.25,672.25,0,0,0,645.93,944V839.92m-.94-1V949.94a665.13,665.13,0,0,1,42.69-102.63A253.68,253.68,0,0,0,645,838.87Z"/><path class="cls-1" d="M650.42,845a253.16,253.16,0,0,1,29.37,5.78,678.25,678.25,0,0,0-29.37,67V845m-2.93-3.33v92.88A673.7,673.7,0,0,1,684,848.89a252.91,252.91,0,0,0-36.55-7.22Z"/><path class="cls-1" d="M657.21,852.9q6.38,1.07,12.7,2.48-6.58,13.47-12.7,27.55v-30m-5.48-6.4v64.24c7.85-20.26,16.72-40.31,26.16-59.1a252.34,252.34,0,0,0-26.16-5.14Z"/><path class="cls-1" d="M658,853.8c3.58.61,7.22,1.33,10.84,2.12-3.71,7.61-7.35,15.46-10.84,23.38V853.8m-.66-.79v29.46c4-9.18,8.16-18.21,12.46-27q-6.19-1.38-12.46-2.44Z"/><path class="cls-1" d="M658.66,854.61v21.46q4.44-10,9.15-19.67c-3-.66-6.1-1.25-9.15-1.79Z"/><path class="cls-1" d="M821,816.38a336,336,0,0,1,34.1,30.18,331.55,331.55,0,0,1,95.79,230H715.52A535.42,535.42,0,0,1,821,816.38m-.64-4.77A537.65,537.65,0,0,0,711.7,1080H954.35a336.59,336.59,0,0,0-134-268.39Z"/><path class="cls-1" d="M821.32,818.48a333.57,333.57,0,0,1,32.76,29.13,329.31,329.31,0,0,1,95.34,227.49H717.21A534.38,534.38,0,0,1,821.32,818.48m-.13-.93a534.63,534.63,0,0,0-104.73,258.21H950.09a329.67,329.67,0,0,0-95.54-228.62,334.86,334.86,0,0,0-33.36-29.59Z"/><path class="cls-1" d="M821.78,822a329.19,329.19,0,0,1,125.09,250.56H720.05A532.48,532.48,0,0,1,821.78,822m-.09-.67a532.5,532.5,0,0,0-102.18,251.71H947.35a327.32,327.32,0,0,0-94.72-224,333.62,333.62,0,0,0-30.94-27.67Z"/><path class="cls-1" d="M822.06,824.22a332.55,332.55,0,0,1,29.14,26.22,325.65,325.65,0,0,1,94.09,220.62H721.8A531.33,531.33,0,0,1,822.06,824.22m-.08-.67a531.46,531.46,0,0,0-100.72,248H945.77a325.92,325.92,0,0,0-94.24-221.42A331.89,331.89,0,0,0,822,823.55Z"/><path class="cls-1" d="M823.22,833.32c8.16,6.78,16,14,23.48,21.56a319.61,319.61,0,0,1,92,209.86H729.06a525.64,525.64,0,0,1,94.16-231.42m-.46-3.7a527.54,527.54,0,0,0-96.65,237.67H941.4a321.84,321.84,0,0,0-92.88-214.2,328.9,328.9,0,0,0-25.76-23.47Z"/><path class="cls-1" d="M823.72,837.25c7.31,6.19,14.38,12.75,21.06,19.53A317.23,317.23,0,0,1,935.9,1062H732.19a523.39,523.39,0,0,1,91.53-224.79m-.47-3.73a525.57,525.57,0,0,0-94,231.08H938.59A319.57,319.57,0,0,0,846.6,855c-7.39-7.49-15.23-14.7-23.35-21.46Z"/><path class="cls-1" d="M824.14,840.67c6.58,5.67,13,11.63,19,17.74a315.17,315.17,0,0,1,90.3,201.3H734.91a521.88,521.88,0,0,1,89.23-219m-.26-2.08a522.49,522.49,0,0,0-90.63,222.54H934.93a316.25,316.25,0,0,0-90.8-203.71c-6.43-6.53-13.23-12.85-20.25-18.83Z"/><path class="cls-1" d="M824.63,844.68c5.73,5.05,11.31,10.3,16.56,15.63A312.81,312.81,0,0,1,930.52,1057H738.09a520,520,0,0,1,86.54-212.32m-.12-1a519.86,519.86,0,0,0-87.2,214H931.23a313.17,313.17,0,0,0-89.57-197.82c-5.46-5.54-11.22-11-17.15-16.15Z"/><path class="cls-1" d="M825,847.85c5.08,4.53,10,9.22,14.68,13.95a310.94,310.94,0,0,1,88.55,193.08H740.6a518.58,518.58,0,0,1,84.4-207m-.08-.71A518.47,518.47,0,0,0,740,1055.36H928.75A311.31,311.31,0,0,0,840,861.47c-4.82-4.89-9.89-9.69-15.1-14.33Z"/><path class="cls-1" d="M825.31,850.46c4.49,4,8.91,8.27,13.14,12.56a309.41,309.41,0,0,1,87.9,190.13H742.65a517.19,517.19,0,0,1,82.66-202.69m-.08-.71a517.07,517.07,0,0,0-83.14,203.87H926.86a309.67,309.67,0,0,0-88.08-190.93c-4.33-4.4-8.88-8.75-13.55-12.94Z"/><path class="cls-1" d="M826.23,858.34c2.94,2.76,5.8,5.55,8.53,8.32A304.73,304.73,0,0,1,920.65,1048H748.85a513.14,513.14,0,0,1,77.38-189.63m-.25-2.17a513.43,513.43,0,0,0-78.83,193.22H922.22a305.69,305.69,0,0,0-86.45-183.73c-3.16-3.2-6.44-6.38-9.79-9.49Z"/><path class="cls-1" d="M827.49,869.69c.7.69,1.39,1.39,2.08,2.08a298.19,298.19,0,0,1,82.86,168.91H757.71a508,508,0,0,1,69.78-171m-.5-4.61a509,509,0,0,0-72.86,178.54H915.76a300.49,300.49,0,0,0-84.1-173.91c-1.52-1.54-3.08-3.09-4.67-4.63Z"/><path class="cls-1" d="M827.84,872.93l.28.27a296.62,296.62,0,0,1,82,165.44H760.22a506.6,506.6,0,0,1,67.62-165.71m-.32-3a507.88,507.88,0,0,0-69.63,170.61H912.26a298,298,0,0,0-82.8-168.65l-1.94-2Z"/><path class="cls-1" d="M828.12,875.48A295.39,295.39,0,0,1,908.25,1037H762.19a505.92,505.92,0,0,1,65.93-161.56M828,874A506,506,0,0,0,761,1038H909.34A295.79,295.79,0,0,0,828,874Z"/><path class="cls-1" d="M828.46,878.75A294.09,294.09,0,0,1,905.89,1035H764.71a504.65,504.65,0,0,1,63.75-156.27m-.11-1.07a504.67,504.67,0,0,0-64.47,158H906.66a294,294,0,0,0-78.31-158Z"/><path class="cls-1" d="M828.81,882.21a292.53,292.53,0,0,1,74.58,150.69h-136a503.85,503.85,0,0,1,61.46-150.69m-.08-.77a503.66,503.66,0,0,0-62,151.93H904a292.44,292.44,0,0,0-75.22-151.93Z"/><path class="cls-1" d="M829.76,891.81a287.23,287.23,0,0,1,66.73,135.31H774.64a500.66,500.66,0,0,1,55.12-135.31m-.08-.79A499.65,499.65,0,0,0,774,1027.59h123A287.57,287.57,0,0,0,829.68,891Z"/><path class="cls-1" d="M830.42,898.85a286,286,0,0,1,61,124.16H779.91a497.62,497.62,0,0,1,50.51-124.16m-.3-3.26a498.77,498.77,0,0,0-52.64,129.31H893.79a287,287,0,0,0-63.67-129.31Z"/><path class="cls-1" d="M831.21,907.85a280,280,0,0,1,53.85,110H786.55a496.85,496.85,0,0,1,44.66-110m-.07-.84a494.62,494.62,0,0,0-45.2,111.34h99.71A282.19,282.19,0,0,0,831.14,907Z"/><path class="cls-1" d="M831.5,911.31A278.45,278.45,0,0,1,882.61,1016H789.07A496.67,496.67,0,0,1,831.5,911.31m-.07-.85a495.75,495.75,0,0,0-43,106h94.76a278.45,278.45,0,0,0-51.78-106Z"/><path class="cls-1" d="M832,918a276,276,0,0,1,45.88,94.33h-84A495.66,495.66,0,0,1,832,918m-.21-2.62A495.17,495.17,0,0,0,792,1013.73h87.76a276.8,276.8,0,0,0-47.93-98.37Z"/><path class="cls-1" d="M832.64,925.92a272.93,272.93,0,0,1,39.75,82.19H799.51a494.07,494.07,0,0,1,33.13-82.19m-.42-5.56A494.78,494.78,0,0,0,795.58,1011h80.67a274.83,274.83,0,0,0-44-90.68Z"/><path class="cls-1" d="M832.94,930.07A272.57,272.57,0,0,1,869.52,1006H802.4a494.81,494.81,0,0,1,30.54-75.89m-.2-2.75a494.65,494.65,0,0,0-32.26,80.06h70.94a272.32,272.32,0,0,0-38.68-80.06Z"/><path class="cls-1" d="M833.17,933.51a271.92,271.92,0,0,1,34,70.7H804.78a496.44,496.44,0,0,1,28.39-70.7m-.06-.93a494.71,494.71,0,0,0-29,72.11H867.8a271.35,271.35,0,0,0-34.69-72.11Z"/><path class="cls-1" d="M834.39,953.87a262.67,262.67,0,0,1,19.11,40.56H818.3c4.72-13.67,10.12-27.28,16.09-40.56m-.3-5.51A492.4,492.4,0,0,0,814.73,997h42.41a265.59,265.59,0,0,0-23-48.62Z"/><path class="cls-1" d="M835.19,971.82q3.63,7.29,6.81,14.79H829.4q2.76-7.43,5.79-14.79m-.7-16c-5.5,12.35-10.5,25-14.91,37.65h32.61a262.36,262.36,0,0,0-17.7-37.65Z"/><path class="cls-1" d="M835.5,981.16l.77,1.7h-1.43c.21-.57.43-1.13.66-1.7m-.12-3.6q-1.32,3.35-2.6,6.72h5.67q-1.49-3.37-3.07-6.72Z"/><path class="cls-1" d="M624.53,402.39,946.91,687.17A550,550,0,0,0,819.54,805.32a336.42,336.42,0,0,0-195-65.31V402.39M620,392.32V744.53A331.94,331.94,0,0,1,820.4,811.61a547.41,547.41,0,0,1,134-123.92L620,392.32Z"/><path class="cls-1" d="M626.89,407.61l316.17,279.3a553,553,0,0,0-124,115.17,337.5,337.5,0,0,0-192.2-64.38V407.61M625,403.42V739.56a335.19,335.19,0,0,1,194.45,65.12,551,551,0,0,1,126.7-117.57L625,403.42Z"/><path class="cls-1" d="M627.78,409.59,941.61,686.82a554,554,0,0,0-122.69,114,338.78,338.78,0,0,0-191.14-64V409.59m-.47-1V737.29A338,338,0,0,1,819,801.5,553.61,553.61,0,0,1,942.38,686.87L627.31,408.54Z"/><path class="cls-1" d="M635.64,427,928.9,686.07A562.59,562.59,0,0,0,817.41,790.18a347.12,347.12,0,0,0-181.77-61V427m-2.56-5.66V731.68a343.85,343.85,0,0,1,184.83,62A558.88,558.88,0,0,1,933,686.3L633.08,421.35Z"/><path class="cls-1" d="M636.44,428.8,927.61,686A562.56,562.56,0,0,0,817.26,789.1a348.29,348.29,0,0,0-180.82-60.65V428.8m-.66-1.47V729.09A347.28,347.28,0,0,1,817.39,790,562,562,0,0,1,928.67,686.06L635.78,427.33Z"/><path class="cls-1" d="M640,436.68l281.9,249a567.22,567.22,0,0,0-105.33,98.63A352.1,352.1,0,0,0,640,725.08V436.68m-1-2.09V726a350.71,350.71,0,0,1,177.7,59.63,565.77,565.77,0,0,1,106.67-99.81L639.05,434.59Z"/><path class="cls-1" d="M647.81,454,909.47,685.15A575,575,0,0,0,815.05,774a360.61,360.61,0,0,0-167.24-56.22V454m-5.49-12.17v281a354.58,354.58,0,0,1,173.8,58.36,569.28,569.28,0,0,1,102.07-95.71L642.32,441.84Z"/><path class="cls-1" d="M648.19,454.85,908.87,685.13A575.87,575.87,0,0,0,815,773.49a361.35,361.35,0,0,0-166.78-56.07V454.85m-.47-1.05V717.85a360.17,360.17,0,0,1,167.34,56.26,574.93,574.93,0,0,1,94.56-89L647.72,453.8Z"/><path class="cls-1" d="M657.08,474.57l237.8,210.06a585.38,585.38,0,0,0-81.66,77.26,371.4,371.4,0,0,0-156.14-52.61V474.57m-4-8.82V712.89A366.58,366.58,0,0,1,814,767.05a581,581,0,0,1,87.11-82.21l-248-219.09Z"/><path class="cls-1" d="M660.3,481.71,889.84,684.48a589.71,589.71,0,0,0-77.27,73.25A375.39,375.39,0,0,0,660.3,706.38V481.71m-1.42-3.15v229.1a373.25,373.25,0,0,1,154,51.9,586.85,586.85,0,0,1,79.2-75l-233.18-206Z"/><path class="cls-1" d="M670,503.27,874.77,684.14a600.17,600.17,0,0,0-64.15,61.17A386.59,386.59,0,0,0,670,697.76V503.27M663.12,488V703.86A378.39,378.39,0,0,1,812,754.12a592.33,592.33,0,0,1,73.45-69.75L663.12,488Z"/><path class="cls-1" d="M670.61,504.57,873.87,684.12a602.4,602.4,0,0,0-63.36,60.45,388.2,388.2,0,0,0-139.9-47.32V504.57m-1-2.1v195.6a386.18,386.18,0,0,1,141,47.7,599.34,599.34,0,0,1,64.62-61.62L669.66,502.47Z"/><path class="cls-1" d="M672.25,508.21,871.33,684.08a604,604,0,0,0-61.16,58.41,390.13,390.13,0,0,0-137.92-46.68V508.21m-.47-1V696.22a389.67,389.67,0,0,1,138.49,46.86,604.42,604.42,0,0,1,61.79-59L671.78,507.17Z"/><path class="cls-1" d="M674.37,512.91,868.08,684a606.5,606.5,0,0,0-58.33,55.78A393,393,0,0,0,674.37,694V512.91m-.47-1V694.38a392,392,0,0,1,135.94,46,606.48,606.48,0,0,1,59-56.37L673.9,511.86Z"/><path class="cls-1" d="M681,527.62l176.94,156.3a615.09,615.09,0,0,0-49.54,47.57A401.05,401.05,0,0,0,681,688.26V527.62m-.94-2.1V689.07a398.13,398.13,0,0,1,128.53,43.6,613.77,613.77,0,0,1,50.79-48.74L680.06,525.52Z"/><path class="cls-1" d="M683.51,533.17,854.13,683.9a618.42,618.42,0,0,0-46.24,44.47,404.27,404.27,0,0,0-124.38-42.24v-153m-1-2.1V686.93a402.87,402.87,0,0,1,125.52,42.62,614.74,614.74,0,0,1,47.49-45.64l-173-152.84Z"/><path class="cls-1" d="M691,549.79,842.8,683.88c-12.6,11.22-24.85,23.06-36.45,35.21A413.78,413.78,0,0,0,691,679.82v-130m-1.9-4.2V681.4a410.6,410.6,0,0,1,117.64,40c12.37-13,25.42-25.62,38.91-37.55L689.1,545.59Z"/><path class="cls-1" d="M695.5,559.78,836,683.91c-10.51,9.52-20.79,19.47-30.6,29.64A420.14,420.14,0,0,0,695.5,676.07V559.78m-2.93-6.5V678.5A415.77,415.77,0,0,1,806,717.16c11-11.47,22.54-22.64,34.41-33.27L692.57,553.28Z"/><path class="cls-1" d="M701.93,574,826.41,684c-7.61,7-15.09,14.32-22.32,21.7a428.3,428.3,0,0,0-102.16-34.92V574m-4-8.81V674a422.81,422.81,0,0,1,106.95,36.5c8.83-9.09,18-18,27.43-26.6L698,565.23Z"/><path class="cls-1" d="M707.12,585.55,818.69,684.1c-5.31,5-10.56,10.13-15.68,15.3a435.63,435.63,0,0,0-95.89-32.83v-81m-4.54-10.07v94.77A429.44,429.44,0,0,1,804,704.91c7-7.1,14.17-14.11,21.49-20.9L702.58,575.48Z"/><path class="cls-1" d="M712.1,596.58l99.23,87.66c-3.12,3-6.27,6.07-9.37,9.16a443.31,443.31,0,0,0-89.86-30.83v-66m-.66-1.46v68a441,441,0,0,1,90.66,31.09q5-5,10.21-10l-100.87-89.1Z"/><path d="M723.08,621l58.51,51.68a460,460,0,0,0-58.51-18.75V621m-5.48-12.17V658.2a450.15,450.15,0,0,1,83.21,28.6c.8-.8,1.61-1.59,2.42-2.38L717.6,608.78Z"/><path class="cls-1" d="M728.68,633.37,756,657.46q-13.61-4.43-27.28-7.94V633.37m-4.54-10.07v29.75a459.44,459.44,0,0,1,52.31,16.45l-52.31-46.2Z"/><path class="cls-1" d="M732.79,642.47l6.35,5.61q-3.24-.92-6.35-1.73v-3.88m-.95-2.1v6.7c3.69,1,7.37,2,11,3.06l-11-9.76Z"/><path class="cls-1" d="M733,642.93v3.25c1.77.47,3.54,1,5.32,1.45l-5.32-4.7Z"/></svg>